<svg width="269" height="243" xmlns="http://www.w3.org/2000/svg"><g transform="translate(0 1)" fill="none" fill-rule="evenodd"><path d="M249.42 14.75h.001-24.29c-1.384 0-2.5 1.092-2.5 2.432 0 1.34 1.116 2.432 2.5 2.432h19.071l-1.365 1.294-22.31 21.147a2.39 2.39 0 00-.705 2.34c.213.85.88 1.524 1.747 1.763a2.55 2.55 0 002.452-.625l23.231-22.021v17.264c0 1.34 1.115 2.432 2.499 2.432 1.384 0 2.499-1.093 2.499-2.432v-23.27c-.002-1.518-1.264-2.754-2.83-2.756z" stroke="#333" stroke-width="1.5" fill="#36E079"/><rect stroke="#333" stroke-width="2" x="27" y="154" width="87" height="87" rx="12"/><path d="M77.58 192.964v2.257c0 .507.409.912.92.912.511 0 .92-.405.92-.912v-2.257a2.47 2.47 0 00-.92-1.934c-1.748-1.42-3.608-2.45-4.482-2.902v-2.294c.428-.442.67-1.032.67-1.658v-3.298c0-2.137-1.758-3.878-3.915-3.878h-.716c-2.157 0-3.915 1.741-3.915 3.878v3.298c0 .626.242 1.216.67 1.658v2.285c-.874.451-2.734 1.483-4.482 2.901a2.483 2.483 0 00-.92 1.935v2.257c0 .506.408.912.92.912.511 0 .92-.406.92-.912v-2.257a.68.68 0 01.251-.525c1.99-1.622 4.138-2.7 4.557-2.893.362-.175.595-.553.595-.949v-3.178a.912.912 0 00-.41-.755.589.589 0 01-.26-.479v-3.298c0-1.133.93-2.054 2.074-2.054h.716c1.144 0 2.073.921 2.073 2.054v3.298a.566.566 0 01-.26.479.89.89 0 00-.409.755v3.178c0 .406.232.774.595.95.41.202 2.567 1.27 4.556 2.892a.685.685 0 01.251.534zm8.215 13.225a.89.89 0 00-.41.755v3.178c0 .405.233.774.595.949.41.203 2.567 1.28 4.557 2.892a.68.68 0 01.25.525v2.257c0 .507.41.912.921.912a.912.912 0 00.921-.912v-2.257a2.47 2.47 0 00-.92-1.934c-1.749-1.419-3.608-2.45-4.482-2.902v-2.293a2.382 2.382 0 00.669-1.659v-3.297c0-2.138-1.757-3.879-3.915-3.879h-.716c-2.157 0-3.914 1.741-3.914 3.879v3.297c0 .627.241 1.216.67 1.659v2.293c-.875.452-2.735 1.483-4.483 2.902a2.497 2.497 0 00-.92 1.934v2.257c0 .507.409.912.92.912.512 0 .92-.405.92-.912v-2.257a.68.68 0 01.252-.525c1.99-1.62 4.138-2.699 4.556-2.892.363-.175.595-.553.595-.949v-3.178a.912.912 0 00-.409-.755.589.589 0 01-.26-.48v-3.297c0-1.133.93-2.054 2.073-2.054h.716c1.144 0 2.074.92 2.074 2.054v3.298a.566.566 0 01-.26.479zm-22.625 8.299v2.257c0 .507.41.912.92.912a.912.912 0 00.921-.912v-2.257a2.47 2.47 0 00-.92-1.934c-1.748-1.419-3.608-2.45-4.482-2.902v-2.293c.428-.443.67-1.032.67-1.659v-3.297c0-2.138-1.758-3.879-3.915-3.879h-.716c-2.158 0-3.915 1.741-3.915 3.879v3.297c0 .627.242 1.216.67 1.659v2.293c-.875.452-2.734 1.483-4.482 2.902a2.483 2.483 0 00-.921 1.934v2.257c0 .507.41.912.92.912a.912.912 0 00.921-.912v-2.257a.68.68 0 01.251-.525c1.99-1.62 4.138-2.699 4.557-2.892a1.04 1.04 0 00.595-.949v-3.178a.912.912 0 00-.41-.755.589.589 0 01-.26-.48v-3.297c0-1.133.93-2.054 2.074-2.054h.716c1.143 0 2.073.92 2.073 2.054v3.298a.566.566 0 01-.26.479.89.89 0 00-.41.755v3.178c0 .405.233.774.596.949.41.203 2.566 1.271 4.556 2.892a.666.666 0 01.251.525z" fill="#333" fill-rule="nonzero"/><path d="M99.689 0a15.669 15.669 0 00-11.094 4.608A15.758 15.758 0 0084 15.735v18.414a3.203 3.203 0 003.199 3.208 3.203 3.203 0 003.198-3.208V15.735c0-2.472.98-4.842 2.722-6.59a9.277 9.277 0 016.57-2.729H252.31c2.464 0 4.828.982 6.57 2.73a9.332 9.332 0 012.722 6.589v152.53c0 5.146-4.16 9.319-9.292 9.319H99.69c-5.132 0-9.292-4.173-9.292-9.32v-67.38a3.203 3.203 0 00-3.198-3.208 3.203 3.203 0 00-3.2 3.208v67.38C84 176.956 91.024 184 99.689 184H252.31c8.665 0 15.689-7.045 15.689-15.735V15.735a15.76 15.76 0 00-4.595-11.127A15.665 15.665 0 00252.31 0H99.69z" stroke="#333" stroke-width="1.5" fill="#36E079"/><g fill-rule="nonzero"><path d="M63.351 68.575l-4.22-3.504 4.22-3.504a.826.826 0 00.107-1.166.835.835 0 00-1.172-.105l-4.987 4.14a.826.826 0 000 1.27l4.987 4.14a.834.834 0 001.171-.105.826.826 0 00-.106-1.166zm8.251 1.165a.834.834 0 001.171.106l4.988-4.14a.826.826 0 000-1.27l-4.988-4.14a.835.835 0 00-1.171.105.826.826 0 00.106 1.166l4.221 3.504-4.22 3.504a.826.826 0 00-.107 1.166zm-1.805-10.674a.834.834 0 00-1.092.435l-4.987 11.59a.828.828 0 00.764 1.155.83.83 0 00.764-.501l4.987-11.59a.828.828 0 00-.436-1.089z" fill="#333"/><path d="M97.273 74.172l-1.593-.397.844-1.4a.826.826 0 00-.125-1.012l-1.822-1.815V49.31A3.322 3.322 0 0091.252 46H51.325A3.322 3.322 0 0048 49.311v29.803a3.322 3.322 0 003.325 3.312h30.32l1.822 1.814a.836.836 0 001.016.125l1.408-.841.398 1.586a.83.83 0 00.806.627h3.325a.83.83 0 00.807-.627l.398-1.586 1.408.84a.834.834 0 001.016-.124l2.35-2.341a.826.826 0 00.126-1.012l-.845-1.4 1.593-.397a.83.83 0 00.63-.803v-3.312a.83.83 0 00-.63-.803zm-47.61-24.86a1.66 1.66 0 011.662-1.656h39.927a1.66 1.66 0 011.662 1.655v3.312H49.663V49.31zM81.06 80.77H51.325a1.66 1.66 0 01-1.662-1.656V54.28h43.251v14.689l-1.289.77-.398-1.586a.83.83 0 00-.807-.628h-3.325a.83.83 0 00-.806.628l-.399 1.586-1.407-.84a.831.831 0 00-1.016.124l-2.35 2.341a.826.826 0 00-.126 1.012l.844 1.4-1.592.397a.83.83 0 00-.63.803v3.312c0 .38.26.711.63.803l1.592.396-.774 1.284zm15.179-3.13l-1.428.356a.831.831 0 00-.583.53 5.574 5.574 0 01-.254.62.828.828 0 00.035.788l.755 1.252-1.433 1.426-1.258-.75a.83.83 0 00-.791-.036c-.202.099-.411.18-.625.254a.828.828 0 00-.529.58l-.357 1.422h-2.028l-.357-1.422a.828.828 0 00-.53-.58 5.65 5.65 0 01-.624-.254.834.834 0 00-.791.036l-1.258.75-1.432-1.426.754-1.252a.828.828 0 00.035-.789c-.099-.2-.18-.407-.254-.62a.831.831 0 00-.583-.53l-1.427-.355v-2.018l1.427-.356a.831.831 0 00.583-.53c.074-.212.155-.419.254-.62a.828.828 0 00-.035-.788l-.754-1.252 1.432-1.426 1.258.75a.842.842 0 00.791.036c.202-.099.411-.18.625-.254a.828.828 0 00.529-.58l.357-1.422h2.028l.357 1.421c.068.27.266.489.53.58.213.075.422.156.624.255.252.12.55.11.791-.036l1.258-.75 1.433 1.426-.755 1.252a.828.828 0 00-.035.789c.099.2.18.407.254.619a.831.831 0 00.583.53l1.428.356v2.018z" fill="#333"/><path d="M88.48 72.492c-2.138 0-3.878 1.732-3.878 3.863 0 2.13 1.74 3.863 3.879 3.863 2.139 0 3.88-1.732 3.88-3.863 0-2.13-1.741-3.863-3.88-3.863zm0 6.181a2.325 2.325 0 01-2.327-2.318 2.325 2.325 0 012.328-2.318 2.325 2.325 0 012.328 2.318 2.325 2.325 0 01-2.328 2.318z" fill="#000"/></g><g transform="translate(0 8)"><path stroke="#F5F5F5" d="M11 51.22h7.448v7.363H11z"/><ellipse stroke="#A7A7A7" cx="153.006" cy="223.949" rx="5.006" ry="4.949"/><ellipse fill="#C4C4C4" cx="23.006" cy="128.949" rx="5.006" ry="4.949"/><path d="M43.782 6.448H56.3M50.041.26v12.375" stroke="#3F3F3F" stroke-linecap="round" stroke-width="1.5"/><path d="M.782 152.448H13.3m-6.259-6.188v12.375" stroke="#C2C2C2" stroke-linecap="round" stroke-width="1.5"/></g><path d="M164.112 92.732l3.121 33.29h19.112l2.08-33.29h-24.313z" stroke="#391445" fill="#FFF" fill-rule="nonzero"/><g transform="translate(153.433 70.008)" fill="#FFF" fill-rule="nonzero" stroke="#333"><ellipse transform="rotate(174.997 4.634 6.432)" cx="4.634" cy="6.432" rx="3.463" ry="5.401"/><ellipse transform="rotate(-174.997 41.297 6.414)" cx="41.297" cy="6.414" rx="3.463" ry="5.401"/></g><path d="M194.385 67.797v6.099c0 1.263 0 2.526-.215 3.79-.215 2.111-.625 4.203-1.25 6.098a33.028 33.028 0 01-7.495 13.046l-1.66 1.895c-1.658 1.678-3.747 2.744-6.245 2.744h-2.714c-2.283 0-4.587-1.046-6.246-2.744l-1.66-1.895c-2.498-2.743-4.372-5.684-5.836-8.842a34.067 34.067 0 01-2.908-10.322c-.215-1.264-.215-2.527-.215-3.79v-5.882c0-1.677.625-8.21 1.035-9.888 2.088-7.796 8.745-8.428 17.08-8.428 8.334 0 15.4 5.685 17.49 13.264.624 1.5.839 3.177.839 4.855z" stroke="#333" fill="#FFF" fill-rule="nonzero"/><path d="M173.921 87.092c.163.095.433.23.776.366.522.206 1.044.34 1.546.364.053.003.106.004.159.004.548 0 1.118-.14 1.684-.37a5.42 5.42 0 00.754-.369.495.495 0 00.166-.664.46.46 0 00-.642-.172 5.32 5.32 0 01-.621.302c-.465.19-.927.302-1.341.302-.038 0-.077 0-.116-.003-.388-.018-.819-.128-1.255-.3a5.827 5.827 0 01-.65-.306.46.46 0 00-.638.185.495.495 0 00.178.66zm-3.157 3.427l.14.066a17.378 17.378 0 001.707.663c1.374.451 2.752.724 4.05.727 1.334-.003 2.712-.276 4.087-.727a17.378 17.378 0 001.706-.663 6.29 6.29 0 00.14-.066.493.493 0 00.222-.647.462.462 0 00-.625-.23 9.7 9.7 0 01-.467.21c-.38.16-.803.32-1.26.47-1.291.425-2.579.68-3.769.682-1.222-.002-2.51-.257-3.801-.681-.457-.15-.88-.311-1.26-.472a9.7 9.7 0 01-.467-.209.462.462 0 00-.625.23.493.493 0 00.222.647zm-5.635-18.482a1.82 1.82 0 00-1.813 1.826v3.861a1.82 1.82 0 001.813 1.827h6.147a1.82 1.82 0 001.812-1.827v-3.86a1.82 1.82 0 00-1.812-1.827h-6.147zm0-1.37h6.147c1.752 0 3.172 1.431 3.172 3.196v3.861c0 1.765-1.42 3.197-3.172 3.197h-6.147c-1.752 0-3.172-1.432-3.172-3.197v-3.86c0-1.766 1.42-3.197 3.172-3.197zm16.333 1.37a1.82 1.82 0 00-1.812 1.826v3.861a1.82 1.82 0 001.812 1.827h6.147a1.82 1.82 0 001.813-1.827v-3.86a1.82 1.82 0 00-1.813-1.827h-6.147zm0-1.37h6.147c1.752 0 3.172 1.431 3.172 3.196v3.861c0 1.765-1.42 3.197-3.172 3.197h-6.147c-1.751 0-3.171-1.432-3.171-3.197v-3.86c0-1.766 1.42-3.197 3.171-3.197z" fill="#333" fill-rule="nonzero"/><path d="M186.623 75.265c0 .956-.8 1.731-1.789 1.731-.987 0-1.787-.775-1.787-1.73 0-.957.8-1.732 1.787-1.732.988 0 1.789.775 1.789 1.731z" fill="#333"/><path d="M182.142 74.04h5.547a.022.022 0 110-.045h-5.547a.022.022 0 010 .045z" stroke="#333" fill="#D8D8D8"/><path d="M169.551 75.265c0 .956-.8 1.731-1.788 1.731-.987 0-1.788-.775-1.788-1.73 0-.957.8-1.732 1.788-1.732s1.788.775 1.788 1.731z" fill="#333"/><path d="M165.07 74.04h5.548a.022.022 0 110-.045h-5.548a.022.022 0 010 .045z" stroke="#333" fill="#D8D8D8"/><path d="M174.498 75.729c1.323-1.013 2.525-1 3.807.04l.852-1.067c-1.769-1.435-3.662-1.457-5.481-.064l.822 1.09zm16.255-.985l5.723-2.08-.46-1.288-5.724 2.08zm-33.628-3.368l5.723 2.08-.46 1.288-5.724-2.08z" fill="#333" fill-rule="nonzero"/><path d="M131.914 137.655l-.365-9.782c0-7.362 4.587-13.895 11.243-16.421h0l21.862-7.863.37 3.354c6.363 5.176 9.989 7.749 10.878 7.72.918-.03 4.762-2.707 11.53-8.03l.26-1.943 21.862 6.96a17.482 17.482 0 0111.458 16.42h0v9.585h-89.098z" stroke="#333" stroke-width="1.5" fill="#36E079" fill-rule="nonzero"/><path d="M159.01 50.476c1.354-2.701 3.548-4.802 6.342-6.377 1.694-.956 3.506-1.66 5.318-2.154a22.88 22.88 0 011.753-.407c.321-.06.553-.096.696-.114 7.238-.696 12.867 1.198 17.045 4.786a18.696 18.696 0 013.103 3.395c.287.408.528.787.724 1.128.073.129.132.235.175.319 2.17 1.46 3.457 3.605 4.002 6.235.45 2.165.368 4.464-.036 6.66-.074.399-.153.761-.232 1.08-.048.194-.086.331-.09.319-.335 2.99-.75 5.374-1.226 7.217-.843 3.263-1.762 4.51-2.558 4.593l-.625.065.685-5.534a27.276 27.276 0 01-.831-2.073 71.23 71.23 0 01-1.25-3.863 166.5 166.5 0 01-1.885-7.024c-2.866 1.73-6.344 2.483-10.296 2.403-3.955-.08-8.178-.98-12.407-2.431a55.434 55.434 0 01-5.123-2.046c.064 1.08-.015 2.264-.22 3.536-.29 1.78-.815 3.673-1.51 5.602a43.742 43.742 0 01-1.594 3.833l-.1.205v8.655l-.943-1.811c-2.141-4.111-3.365-8.736-3.588-12.82-.417-4.93 1.254-9.691 4.67-13.377z" stroke="#000" fill="#FFF" fill-rule="nonzero"/><path stroke="#391445" stroke-linecap="round" d="M125.496 137.797H226.5"/></g></svg>