<svg width="343" height="243" xmlns="http://www.w3.org/2000/svg" xmlns:xlink="http://www.w3.org/1999/xlink"><defs><path id="a" d="M.257 0h14.357l-2.751 32.292H3.99z"/><path d="M.654 45.217c-1.203-10.291.524-17.523 5.18-21.695-.666-8.333.989-14.734 4.967-19.204 5.966-6.706 25.227-7.86 25.227 17.469 4.049 6.217 5.702 12.572 4.959 19.065-11.162 1.563-21.224-1.566-30.186-9.387-2.23 4.792-3.885 7.921-4.966 9.387-1.174 1.59-2.9 3.045-5.181 4.365z" id="c"/><path d="M20.09 50.528c11.097 0 18.468-8.918 18.468-19.918 0-4.19.541-12.822 1.624-25.896C30.55 1.571 24.148 0 20.978 0 17.542 0 10.549 1.242 0 3.725.812 17.72 1.218 26.683 1.218 30.61c0 11 7.777 19.918 18.873 19.918z" id="e"/><path d="M.406 36.799c-.349-13.113-.349-20.642 0-22.587.522-2.917 1.598-4.097 4.817-4.306 3.22-.21 0-3.482 5.505-7.75C12.3.94 15.368.24 19.933.06l-1.9 3.052c6.615-1.847 11.815-1.213 15.602 1.901l-2.95 2.244c6.21-.3 9.314 2.019 9.314 6.956s-.135 12.66-.406 23.168a1.605 1.605 0 01-1.603-1.69c.386-7.339.276-11.86-.33-13.564-.976-2.747-3.201-5.98-6.249-2.99-2.031 1.993-3.862 3.034-5.492 3.122l3.805 3.137c-3.755 1.08-6.325 1.082-7.712.008-2.08-1.611-5.024-8.482-11.284-8.482-6.259 0-8.036 3.19-7.96 5.631.047 1.476.051 5.57.014 12.28a2 2 0 01-2.145 1.984L.406 36.8z" id="f"/></defs><g transform="rotate(-90 121.5 122)" fill="none" fill-rule="evenodd"><ellipse fill="#FFF" cx="107" cy="176.5" rx="77" ry="77.5"/><g transform="rotate(90 -35.196 133.02)"><mask id="b" fill="#fff"><use xlink:href="#a"/></mask><path stroke="#333" d="M-.304-.5h15.462l-2.836 33.292H3.544L-.304-.5z"/><ellipse mask="url(#b)" cx="8.26" cy="4.137" rx="8.49" ry="5.688"/></g><path d="M90.304 182.696v6.42c0 5.29-2.456 10.28-6.648 13.507a28.317 28.317 0 01-14.732 5.764l-5.145.464v-31.795l.356-.22c2.28-1.406 5.32-1.58 9.096-.572 3.635.97 9.17 3.048 16.618 6.237l.455.195z" fill="#36E079" stroke="#333" stroke-width="1.5"/><path d="M90.3 168.004l.058-6.261c.084-8.843-6.721-16.227-15.542-16.865l-10.676-.771v32.277l.849-.113c4.083-.545 7.602-1.279 10.559-2.205 2.95-.923 7.716-2.877 14.315-5.865l.436-.197z" fill="#36E079" stroke="#333" stroke-width="1.5"/><path stroke="#333" stroke-width="1.5" stroke-linecap="round" d="M63.61 139.5v72.465"/><g transform="rotate(90 5.997 157.503)"><ellipse stroke="#333" fill="#FFF" cx="45.946" cy="46.283" rx="3.995" ry="4.913"/><ellipse stroke="#333" fill="#FFF" cx="46.695" cy="53.266" rx="1.748" ry="2.068"/><ellipse stroke="#333" fill="#FFF" cx="3.995" cy="46.283" rx="3.995" ry="4.913"/><path d="M29.544 69.94c1.38-.796 2.973-1.745 4.776-2.847C41.057 62.975 44.947 52.6 44.947 46.54c0-3.082.149-6.487-1.022-9.392C40.762 29.3 33.022 23.27 24.97 23.27c-11.032 0-19.976 11.846-19.976 23.27 0 5.324 3.577 15.666 10.188 20.552a44.525 44.525 0 004.41 2.874h0a10 10 0 009.952-.026z" stroke="#333" fill="#FFF" stroke-linecap="round"/><ellipse fill="#EEE" cx="11.986" cy="54.039" rx="2.497" ry="1.81"/><ellipse stroke="#333" fill="#FFF" cx="3.746" cy="53.266" rx="1.748" ry="2.068"/><ellipse fill="#EEE" cx="37.955" cy="54.556" rx="2.497" ry="1.81"/><path d="M20.226 59.986a8.65 8.65 0 009.751 0h0" fill="#FFF" stroke="#333"/><ellipse fill="#223844" cx="16.73" cy="47.99" rx="1.523" ry="1.577"/><ellipse fill="#223844" cx="33.71" cy="47.99" rx="1.612" ry="1.669"/><g transform="translate(3.995)"><mask id="d" fill="#fff"><use xlink:href="#c"/></mask><path stroke="#333" d="M5.318 23.317c-.626-8.34 1.07-14.793 5.11-19.332C13.776.221 20.397-1.42 25.823.57 32.45 3 36.494 10.092 36.528 21.639c4.051 6.271 5.707 12.7 4.955 19.27l-.044.384-.383.054c-11.099 1.555-21.137-1.475-30.081-9.073-2.103 4.486-3.677 7.436-4.738 8.875-1.218 1.65-2.997 3.149-5.333 4.5l-.659.382-.088-.756c-1.204-10.302.5-17.635 5.16-21.958z"/><path d="M20.789 14.242C13.158 7.71 8.934 7.114 8.116 12.455c-1.227 8.01 2.638 23.359 27.212 29.878 16.383 4.345 19.963 3.068 10.74-3.831-6.68.06-13.656-2.704-20.924-8.293-7.27-5.59-8.72-10.912-4.355-15.967z" stroke="#333" mask="url(#d)"/><ellipse stroke="#0F1F28" fill="#FFF" mask="url(#d)" cx="13.983" cy="7.24" rx="8.989" ry="9.308"/><ellipse stroke="#0F1F28" fill="#FFF" mask="url(#d)" transform="rotate(-3 32.711 6.464)" cx="32.711" cy="6.464" rx="13.734" ry="14.221"/></g><path d="M11.867 44.241c1.279-1.463 2.626-2.27 4.042-2.42 1.416-.15 2.9.357 4.453 1.521" stroke="#213743" stroke-width="1.5" stroke-linecap="round"/><path d="M26.08 45.45l1.593 6.618a2.552 2.552 0 01-3.473 2.948s0 0 0 0" stroke="#333" stroke-width="1.5" stroke-linecap="round"/></g><ellipse stroke="#333" stroke-width="2" fill="#FFF" cx="214" cy="176.5" rx="28" ry="27.5"/><path d="M144.78 270.678c31.074-7.19 53.75-31.512 60.364-60.692M144.78 74.63c31.074 7.19 53.75 31.513 60.364 60.694" stroke="#333" stroke-width="2" stroke-linecap="round"/><circle fill="#EBEBEB" cx="6" cy="130" r="5.5"/><path d="M13.177 99.152h11.996m-5.998-6.061v12.123" stroke="#C8C8C8" stroke-linecap="round" stroke-width="1.5"/><path d="M188.177 281.152h11.996m-5.998-6.061v12.123" stroke="#C7C7C7" stroke-linecap="round" stroke-width="1.5"/><g transform="rotate(90 -53.86 204.862)"><g transform="translate(2.503 .096)" stroke="#333"><path d="M22.139 67.167h33.033a19 19 0 0118.706 15.667l1.914 10.743h0H1.014l2.582-11.554A19 19 0 0122.14 67.167z" fill="#FFF"/><path d="M40.257 73.52c-4.647 0-8.415-3.736-8.415-8.347V54.186l.385-.09c4.194-.988 6.973-1.481 8.379-1.481 1.32 0 3.874.627 7.72 1.881l.345.113v10.564c0 4.61-3.768 8.347-8.414 8.347z"/><path d="M60.756 80.805c1.83 2.647 3.386 6.904 4.67 12.772M17.627 80.805c-2.387 2.647-4.222 6.904-5.507 12.772" stroke-linecap="round"/><ellipse fill="#FFF" fill-rule="nonzero" cx="21.18" cy="37.22" rx="5.073" ry="5.03"/><ellipse fill="#FFF" fill-rule="nonzero" cx="58.724" cy="37.422" rx="5.276" ry="5.231"/><use fill="#FFF" xlink:href="#e" transform="translate(20.166 11.267)"/><use fill="#FFF" xlink:href="#f" transform="translate(20.166)"/></g><path d="M30.98 31.064h7.323a1.006 1.006 0 010 2.012H30.98a1.006 1.006 0 110-2.012z" fill="#333"/><path d="M37.362 51.307h10.244m-4.496-9.914l.56 2.215a1.822 1.822 0 01-3.456 1.13s0 0 0 0" stroke="#333" stroke-width="1.5" stroke-linecap="round"/><ellipse fill="#333" transform="rotate(15 50.475 37.305)" cx="50.475" cy="37.305" rx="1.592" ry="1.582"/><ellipse fill="#333" transform="rotate(15 35.052 37.305)" cx="35.052" cy="37.305" rx="1.686" ry="1.675"/><path d="M47.215 31.064h7.323a1.006 1.006 0 010 2.012h-7.323a1.006 1.006 0 110-2.012z" fill="#333"/></g><path stroke="#333" stroke-linecap="round" d="M57.305 256.5v85.556"/><path d="M99.1 35.37l-29.216 2.74v16.73L99.1 56.667V35.37z" stroke="#391445" fill="#FFF" fill-rule="nonzero"/><g transform="rotate(90 46.644 72.54)" fill="#FFF" fill-rule="nonzero" stroke="#333"><ellipse transform="rotate(174.997 4.084 5.668)" cx="4.084" cy="5.668" rx="2.992" ry="4.7"/><ellipse transform="rotate(-174.997 36.39 5.652)" cx="36.39" cy="5.652" rx="2.992" ry="4.7"/></g><path d="M121.132 61.981h-5.375c-1.113 0-2.226 0-3.339-.19-1.86-.188-3.704-.55-5.374-1.1a29.104 29.104 0 01-11.496-6.605l-1.67-1.462c-1.478-1.462-2.417-3.303-2.417-5.504v-2.391c0-2.013.921-4.042 2.417-5.504l1.67-1.462c2.417-2.202 5.009-3.853 7.791-5.143a30.02 30.02 0 019.097-2.563c1.113-.19 2.226-.19 3.339-.19h5.183c1.478 0 7.235.551 8.713.912 6.87 1.84 7.427 7.706 7.427 15.05 0 7.345-5.01 13.572-11.688 15.412-1.322.551-2.8.74-4.278.74z" stroke="#333" fill="#FFF" fill-rule="nonzero"/><path d="M104.13 43.949a5.226 5.226 0 00-.324.683c-.181.46-.299.92-.32 1.362a2.896 2.896 0 00-.004.14c0 .484.123.986.326 1.485.12.295.24.526.326.665.12.196.382.261.585.146a.405.405 0 00.151-.566 4.688 4.688 0 01-.266-.547c-.167-.41-.266-.817-.266-1.182 0-.034 0-.068.002-.102.017-.342.114-.722.265-1.106a5.135 5.135 0 01.27-.573.406.406 0 00-.163-.562.436.436 0 00-.583.157zm-3.02-2.782a11.621 11.621 0 00-.204.454c-.15.355-.3.749-.439 1.173-.398 1.211-.638 2.425-.64 3.569.002 1.176.242 2.39.64 3.601a15.313 15.313 0 00.584 1.504l.058.123a.434.434 0 00.57.196.407.407 0 00.203-.55 8.548 8.548 0 01-.184-.412 14.51 14.51 0 01-.416-1.11c-.374-1.138-.598-2.273-.6-3.321.002-1.078.226-2.213.6-3.35a14.333 14.333 0 01.6-1.522.407.407 0 00-.203-.55.434.434 0 00-.57.195zm16.285-4.966c0-.882-.72-1.597-1.609-1.597h-3.402c-.889 0-1.61.715-1.61 1.597v5.417c0 .882.721 1.597 1.61 1.597h3.402c.889 0 1.61-.715 1.61-1.597V36.2zm1.208 0v5.417c0 1.543-1.261 2.795-2.817 2.795h-3.402c-1.556 0-2.817-1.252-2.817-2.795V36.2c0-1.543 1.261-2.795 2.817-2.795h3.402c1.556 0 2.817 1.252 2.817 2.795zm-1.208 14.393c0-.882-.72-1.597-1.609-1.597h-3.402c-.889 0-1.61.715-1.61 1.597v5.417c0 .882.721 1.597 1.61 1.597h3.402c.889 0 1.61-.715 1.61-1.597v-5.417zm1.208 0v5.417c0 1.543-1.261 2.795-2.817 2.795h-3.402c-1.556 0-2.817-1.252-2.817-2.795v-5.417c0-1.543 1.261-2.795 2.817-2.795h3.402c1.556 0 2.817 1.252 2.817 2.795z" fill="#333" fill-rule="nonzero"/><path d="M114.55 55.142c-.842 0-1.525-.706-1.525-1.577 0-.87.683-1.575 1.526-1.575.842 0 1.525.706 1.525 1.575 0 .87-.683 1.577-1.525 1.577z" fill="#333"/><path d="M115.571 51.193v4.888a.079.079 0 01.158 0v-4.888a.079.079 0 11-.158 0z" stroke="#333" fill="#D8D8D8"/><path d="M114.55 40.098c-.842 0-1.525-.705-1.525-1.576 0-.87.683-1.575 1.526-1.575.842 0 1.525.705 1.525 1.575s-.683 1.576-1.525 1.576z" fill="#333"/><path d="M115.571 36.15v4.888a.079.079 0 01.158 0v-4.889a.079.079 0 11-.158 0z" stroke="#333" fill="#D8D8D8"/><path d="M114.142 44.458c.893 1.165.88 2.225-.035 3.353l.94.752c1.265-1.56 1.284-3.227.056-4.83l-.96.725zm.868 14.322l1.833 5.044 1.135-.406-1.833-5.044zm2.968-29.632l-1.833 5.044-1.135-.407 1.833-5.043z" fill="#333" fill-rule="nonzero"/><path d="M59.574 6.933l8.62-.322c6.486 0 12.243 4.042 14.47 9.907h0l6.928 19.265-2.956.327c-4.56 5.606-6.827 8.8-6.802 9.584.026.81 2.385 4.196 7.075 10.16l1.713.23-6.132 19.264a15.405 15.405 0 01-14.47 10.096h0-8.446V6.933z" stroke="#333" stroke-width="1.5" fill="#FFF" fill-rule="nonzero"/><path d="M136.429 30.76c2.388 1.199 4.245 3.14 5.637 5.608a20.598 20.598 0 011.903 4.7c.153.56.271 1.081.36 1.55.054.284.085.49.102.618.614 6.395-1.06 11.371-4.232 15.065a16.534 16.534 0 01-3.003 2.743 12.827 12.827 0 01-1.268.79c-1.295 1.918-3.196 3.057-5.523 3.54-1.917.397-3.95.325-5.892-.033a16.111 16.111 0 01-.955-.204c-.171-.043-.294-.077-.273-.079-2.637-.295-4.74-.66-6.368-1.081-2.897-.749-4.016-1.573-4.092-2.306l-.065-.625 4.934.61c.506-.23 1.114-.473 1.817-.727a62.823 62.823 0 013.407-1.102 147.685 147.685 0 016.114-1.643c-1.5-2.522-2.155-5.573-2.085-9.035.07-3.492.865-7.218 2.145-10.951a48.907 48.907 0 011.765-4.43c-.93.046-1.945-.025-3.03-.2-1.574-.256-3.245-.72-4.948-1.334a38.604 38.604 0 01-3.383-1.407 21.452 21.452 0 01-.169-.081h-7.855l1.81-.943c3.631-1.892 7.714-2.972 11.32-3.169 4.359-.369 8.568 1.107 11.827 4.126z" stroke="#000" fill="#FFF" fill-rule="nonzero"/><path stroke="#391445" stroke-linecap="round" d="M59.449 1.277v89.004"/><path stroke="#333" stroke-width="2" stroke-linecap="round" stroke-linejoin="round" d="M221.557 161.5L208.5 171.823l27 38.677"/></g></svg>