<svg width="295" height="291" xmlns="http://www.w3.org/2000/svg"><g transform="translate(1 1)" fill="none" fill-rule="evenodd"><ellipse fill="#FFF" cx="147.059" cy="143.942" rx="56.475" ry="56.907"/><path d="M251.192 214.074l7.558-13.06a10.695 10.695 0 00-2.434-13.616l-12.084-10.04a102.284 102.284 0 003.085-11.514l15.504-2.668a10.72 10.72 0 008.93-10.578v-15.08c0-5.24-3.755-9.689-8.93-10.578l-15.504-2.668a102.42 102.42 0 00-3.085-11.515l12.084-10.039a10.695 10.695 0 002.434-13.617l-7.558-13.06a10.749 10.749 0 00-13.035-4.705l-14.778 5.43a103.719 103.719 0 00-8.435-8.417l5.442-14.744a10.7 10.7 0 00-4.716-13.006l-13.089-7.54a10.752 10.752 0 00-13.647 2.428l-10.061 12.056a102.888 102.888 0 00-11.54-3.078l-2.674-15.468a10.728 10.728 0 00-10.602-8.912h-15.114c-5.252 0-9.71 3.749-10.601 8.911l-2.674 15.47a102.59 102.59 0 00-11.54 3.077l-10.063-12.057a10.75 10.75 0 00-13.646-2.427l-13.089 7.54a10.7 10.7 0 00-4.716 13.006l5.442 14.744a103.835 103.835 0 00-8.435 8.417l-14.778-5.43a10.747 10.747 0 00-13.035 4.706l-7.558 13.06a10.695 10.695 0 002.434 13.616l12.084 10.039a102.284 102.284 0 00-3.085 11.515l-15.504 2.668a10.72 10.72 0 00-8.93 10.578v15.08c0 5.239 3.755 9.689 8.93 10.578l15.504 2.668a102.419 102.419 0 003.085 11.515l-12.084 10.039a10.695 10.695 0 00-2.434 13.617l7.558 13.06a10.749 10.749 0 0013.035 4.705l14.778-5.43c2.639 2.955 5.47 5.78 8.435 8.416l-5.442 14.745a10.7 10.7 0 004.716 13.006l13.089 7.54a10.754 10.754 0 0013.647-2.428l10.061-12.057a102.887 102.887 0 0011.54 3.079l2.674 15.468a10.728 10.728 0 0010.602 8.912h15.114c5.252 0 9.71-3.749 10.601-8.911l2.674-15.47c3.894-.799 7.77-1.832 11.54-3.078l10.063 12.058a10.753 10.753 0 0013.646 2.427l13.089-7.54a10.7 10.7 0 004.716-13.006l-5.442-14.744a103.835 103.835 0 008.435-8.417l14.778 5.43a10.752 10.752 0 0013.035-4.706h0zm-7.387-5.086l-14.99-5.508c-4.252-1.562-9.102-.34-12.078 3.04a94.084 94.084 0 01-8.638 8.62c-3.388 2.967-4.612 7.81-3.046 12.05l5.521 14.956-11.841 6.82-10.207-12.23c-2.899-3.474-7.714-4.838-11.988-3.391a93.291 93.291 0 01-11.8 3.147c-4.427.874-7.92 4.458-8.69 8.919l-2.712 15.693h-13.672l-2.712-15.693c-.77-4.46-4.263-8.044-8.69-8.918a93.291 93.291 0 01-11.801-3.147c-4.274-1.447-9.088-.082-11.987 3.39l-10.207 12.232-11.841-6.82 5.52-14.956c1.566-4.241.343-9.084-3.046-12.052a94.102 94.102 0 01-8.639-8.62c-2.972-3.379-7.823-4.6-12.076-3.039l-14.99 5.508-6.836-11.814 12.258-10.184c3.482-2.893 4.848-7.7 3.398-11.961a92.581 92.581 0 01-3.154-11.773c-.875-4.418-4.467-7.903-8.938-8.672l-15.728-2.706v-13.642l15.727-2.705c4.472-.769 8.064-4.254 8.94-8.672.789-3.98 1.85-7.94 3.153-11.771 1.45-4.262.084-9.07-3.398-11.962l-12.26-10.185 6.838-11.814 14.99 5.508c4.253 1.562 9.103.34 12.078-3.04a94.084 94.084 0 018.638-8.62c3.388-2.967 4.612-7.81 3.046-12.05L82.426 47.97l11.841-6.82 10.207 12.23c2.898 3.473 7.713 4.836 11.988 3.39a93.29 93.29 0 0111.8-3.146c4.427-.875 7.92-4.459 8.69-8.92l2.712-15.692h13.672l2.712 15.693c.77 4.46 4.263 8.044 8.69 8.918a93.29 93.29 0 0111.801 3.147c4.274 1.446 9.088.082 11.987-3.39l10.207-12.232 11.841 6.82-5.52 14.956c-1.566 4.24-.343 9.083 3.046 12.05a94.102 94.102 0 018.639 8.621c2.972 3.378 7.823 4.599 12.076 3.039l14.99-5.508 6.836 11.814-12.258 10.184c-3.482 2.894-4.848 7.7-3.398 11.961a92.581 92.581 0 013.154 11.773c.875 4.418 4.467 7.903 8.938 8.672l15.728 2.706v13.642l-15.727 2.705c-4.472.769-8.064 4.254-8.94 8.672a92.673 92.673 0 01-3.153 11.772c-1.45 4.261-.084 9.068 3.398 11.961l12.26 10.185-6.838 11.815z" stroke="#333" stroke-width="1.5" fill="#36E079"/><g fill-rule="nonzero"><path d="M169.7 119.801h-1.684l-40.869 52.08v1.461a4.727 4.727 0 001.38 3.36 4.748 4.748 0 003.36 1.396h37.812a4.718 4.718 0 003.345-1.4 4.698 4.698 0 001.358-3.356v-48.82a4.67 4.67 0 00-1.361-3.342 4.69 4.69 0 00-3.342-1.379z" fill="#36E079"/><path d="M157.646 105.792h-33.412a4.778 4.778 0 00-4.786 4.755v57.333a4.812 4.812 0 004.786 4.795h39.633a4.822 4.822 0 004.798-4.795v-51.506l-11.02-10.582z" fill="#FFF"/><path fill="#FFF" d="M168.62 116.35v.024h-10.974v-10.582zm-26.815.214a13.67 13.67 0 0112.975 9.372 13.625 13.625 0 01-4.848 15.233 13.697 13.697 0 01-16.017.187 13.626 13.626 0 01-5.203-15.115l.031-.094 2.688.895 10.415 3.463-3.575-10.7-.844-2.526a13.63 13.63 0 014.378-.715z"/><path d="M138.271 119.804l3.575 10.701-10.415-3.463-2.688-.895-2.447-.813c0-5.712 4.64-10.343 10.366-10.344l.765 2.29.844 2.524z" fill="#36E079"/><g fill="#333"><path d="M169.7 118.897h-.129v-2.547a.926.926 0 00-.3-.65l-10.985-10.559a.935.935 0 00-.64-.253h-33.412a5.69 5.69 0 00-5.692 5.66v57.332a5.724 5.724 0 005.692 5.699h1.985a5.65 5.65 0 005.667 5.422h37.813a5.631 5.631 0 003.984-1.666 5.607 5.607 0 001.625-3.993v-48.82a5.578 5.578 0 00-1.629-3.98 5.602 5.602 0 00-3.98-1.645zm-11.15-10.978l7.851 7.514h-7.851v-7.514zm-34.316 63.852a3.912 3.912 0 01-3.88-3.892v-57.332a3.878 3.878 0 013.88-3.851h32.504v9.679a.873.873 0 00.908.865h10.113v50.64a3.933 3.933 0 01-3.905 3.89h-39.62zm49.263 1.571a3.8 3.8 0 01-1.095 2.716 3.815 3.815 0 01-2.703 1.136h-37.813a3.881 3.881 0 01-3.855-3.615h35.823a5.745 5.745 0 005.717-5.7v-47.174h.128a3.786 3.786 0 012.7 1.115 3.77 3.77 0 011.098 2.702v48.82z"/><path d="M129.21 150.38a.905.905 0 100 1.808h18.865a.905.905 0 100-1.808H129.21zm29.677 5.725H129.21a.905.905 0 100 1.807h29.677a.905.905 0 100-1.807zm-4.259 5.573H129.21a.905.905 0 100 1.808h25.418a.905.905 0 100-1.808zm-12.822-16.901c5.674 0 10.833-3.28 13.229-8.412a14.533 14.533 0 00-2.06-15.516 14.61 14.61 0 00-14.966-4.687l-.487-1.46a.906.906 0 00-.86-.617c-6.225.001-11.272 5.037-11.272 11.249 0 .389.25.734.62.857l1.629.543a14.533 14.533 0 002.68 12.463 14.603 14.603 0 0011.487 5.58zm0-27.31a12.774 12.774 0 0112.063 8.557 12.73 12.73 0 01-4.13 14.181 12.8 12.8 0 01-14.781.774 12.735 12.735 0 01-5.594-13.673l12.196 4.056a.907.907 0 00.927-.219.902.902 0 00.219-.924l-4.123-12.34a12.788 12.788 0 013.223-.412zm-14.583 7.223c.324-4.706 4.078-8.452 8.794-8.775l4.397 13.161-13.191-4.386z"/></g></g><g transform="translate(29.776 128.346)" fill="#FF7058" fill-rule="nonzero"><ellipse cx="213.963" cy="20.597" rx="20.251" ry="20.199"/><ellipse cx="20.517" cy="20.597" rx="20.251" ry="20.199"/><ellipse cx="117.24" cy="117.072" rx="20.251" ry="20.199"/></g><g fill-rule="nonzero"><ellipse stroke="#333" stroke-width="1.5" fill="#FFF" cx="254.471" cy="147.847" rx="38.129" ry="37.887"/><ellipse stroke="#333" stroke-width="1.5" fill="#FFF" cx="38.529" cy="147.847" rx="38.129" ry="37.887"/><ellipse stroke="#333" stroke-width="1.5" fill="#FFF" cx="146.606" cy="251.01" rx="38.129" ry="37.887"/><ellipse stroke="#333" stroke-width="1.5" fill="#FFF" cx="146.606" cy="37.887" rx="38.129" ry="37.887"/><g fill="#000"><path d="M275.032 168.627l-.835-7.821a5.94 5.94 0 00-4.525-5.136l-9.237-2.201-.31-3.639a13.815 13.815 0 004.652-6.487c.117.008.234.017.348.017a3.535 3.535 0 002.8-1.237 3.82 3.82 0 00.687-3.652 2.456 2.456 0 00-1.377-1.475c-.026-.01-.051-.017-.077-.026v-4.031c0-11.162-10.593-11.29-10.7-11.29H244.57a.704.704 0 00-.705.702 5.252 5.252 0 001.83 3.913 6.04 6.04 0 00-2.899 5.149v5.557c-.025.01-.051.016-.076.027a2.459 2.459 0 00-1.378 1.474 3.822 3.822 0 00.688 3.652 3.534 3.534 0 002.8 1.238c.113 0 .23-.01.348-.018a13.814 13.814 0 004.651 6.488l-.31 3.638-9.237 2.201a5.94 5.94 0 00-4.525 5.136l-.834 7.821a.704.704 0 001.401.15l.835-7.822a4.53 4.53 0 013.451-3.917l5.36-1.278-1.65 7.944a.702.702 0 00.922.806l4.231-1.48v5.672a.704.704 0 001.41 0v-11.01a5.483 5.483 0 008.189 0v11.01a.704.704 0 001.409 0v-5.673l4.23 1.481a.706.706 0 00.924-.806l-1.65-7.944 5.36 1.278a4.532 4.532 0 013.451 3.917l.835 7.821c.038.357.34.629.7.629.024 0 .05 0 .075-.004a.703.703 0 00.626-.774zm-7.735-29.657a2.425 2.425 0 01-.45 2.25c-.417.48-1.027.75-1.663.734.28-1.195.434-2.417.457-3.644.35-.112.726-.114 1.077-.006.28.129.49.371.579.666zm-20.01-11.913a.704.704 0 00.097-1.282 4.294 4.294 0 01-2.04-2.72h11.115c.38 0 9.292.111 9.292 9.884v3.91c-.212.032-.42.08-.625.143l-1.31-1.319a4.222 4.222 0 01-1.186-2.418l-.335-2.577a.703.703 0 00-.876-.588 28.248 28.248 0 01-6.442.68 28.377 28.377 0 01-6.441-.682.706.706 0 00-.877.59l-.335 2.577a4.223 4.223 0 01-1.186 2.418l-1.306 1.32a4.085 4.085 0 00-.625-.142v-5.438a4.633 4.633 0 013.08-4.356zm-4.178 14.162a2.423 2.423 0 01-.45-2.25 1.07 1.07 0 01.58-.667c.35-.108.725-.106 1.075.006.024 1.228.178 2.449.458 3.644a2.131 2.131 0 01-1.663-.733zm2.608-3.121l1.424-1.433a5.632 5.632 0 001.583-3.228l.236-1.815a31.71 31.71 0 006.017.555c2.02.007 4.035-.179 6.019-.555l.236 1.815a5.632 5.632 0 001.582 3.228l1.423 1.433c-.113 7.322-4.524 10.666-7.166 12.013a4.622 4.622 0 01-4.187 0c-2.644-1.347-7.055-4.691-7.167-12.013zm.236 24.674l1.53-7.372 1.99-.474v6.613l-3.52 1.233zm9.024-4.651a4.095 4.095 0 01-4.094-4.068l.282-3.297c.378.233.742.436 1.078.607a6.038 6.038 0 005.47 0c.336-.171.7-.374 1.078-.607l.282 3.299a4.094 4.094 0 01-4.096 4.066zm9.025 4.65l-3.521-1.232v-6.613l1.99.474 1.531 7.372z"/><path d="M257.923 145.727a.704.704 0 10-.691-1.226 5.106 5.106 0 01-2.255.46 5.117 5.117 0 01-2.252-.458.702.702 0 10-.694 1.224 6.387 6.387 0 002.946.64 6.39 6.39 0 002.946-.64zm-5.739-8.427c.29.259.736.233.995-.057a.702.702 0 00-.057-.992 3.16 3.16 0 00-2.075-.68 3.16 3.16 0 00-2.075.68.696.696 0 00-.052.976c.255.288.694.32.989.074a2.162 2.162 0 012.275 0zm-.164 1.883a.974.974 0 00-1.66-.687.969.969 0 00.687 1.656.971.971 0 00.972-.97zm5.75-1.882a2.162 2.162 0 012.274 0c.29.258.736.233.995-.057a.702.702 0 00-.058-.993 3.509 3.509 0 00-4.148 0 .695.695 0 00-.053.977.713.713 0 00.99.073zm1.137.911a.969.969 0 00-.688 1.656.974.974 0 001.66-.685.971.971 0 00-.972-.97z"/></g><g fill="#000"><path d="M58.077 168.627l-.834-7.821a5.94 5.94 0 00-4.525-5.136l-9.237-2.201-.31-3.639a13.815 13.815 0 004.652-6.487c.117.008.234.017.348.017a3.535 3.535 0 002.799-1.237 3.82 3.82 0 00.688-3.652 2.456 2.456 0 00-1.378-1.475c-.025-.01-.05-.017-.076-.026v-4.031c0-11.162-10.593-11.29-10.7-11.29H27.616a.704.704 0 00-.705.702 5.252 5.252 0 001.83 3.913 6.04 6.04 0 00-2.899 5.149v5.557c-.025.01-.051.016-.077.027a2.46 2.46 0 00-1.377 1.474 3.822 3.822 0 00.688 3.652 3.534 3.534 0 002.8 1.238c.113 0 .23-.01.347-.018a13.814 13.814 0 004.652 6.488l-.31 3.638-9.237 2.201a5.94 5.94 0 00-4.525 5.136l-.835 7.821a.704.704 0 001.402.15l.834-7.822a4.53 4.53 0 013.452-3.917l5.36-1.278-1.65 7.944a.702.702 0 00.922.806l4.231-1.48v5.672a.704.704 0 001.41 0v-11.01a5.483 5.483 0 008.189 0v11.01a.704.704 0 001.409 0v-5.673l4.23 1.481a.706.706 0 00.924-.806l-1.65-7.944 5.36 1.278a4.532 4.532 0 013.451 3.917l.834 7.821c.039.357.34.629.7.629.025 0 .05 0 .076-.004a.703.703 0 00.625-.774zm-7.735-29.657a2.425 2.425 0 01-.45 2.25 2.13 2.13 0 01-1.662.734c.28-1.195.433-2.417.457-3.644.35-.112.726-.114 1.076-.006.28.129.492.371.58.666zm-20.009-11.913a.704.704 0 00.097-1.282 4.294 4.294 0 01-2.04-2.72h11.115c.38 0 9.291.111 9.291 9.884v3.91c-.211.032-.42.08-.624.143l-1.31-1.319a4.222 4.222 0 01-1.186-2.418l-.335-2.577a.703.703 0 00-.877-.588 28.248 28.248 0 01-6.441.68 28.377 28.377 0 01-6.442-.682.706.706 0 00-.876.59l-.335 2.577a4.223 4.223 0 01-1.186 2.418l-1.307 1.32a4.085 4.085 0 00-.624-.142v-5.438a4.633 4.633 0 013.08-4.356zm-4.178 14.162a2.423 2.423 0 01-.45-2.25c.087-.295.298-.538.579-.667.35-.108.726-.106 1.076.006.024 1.228.178 2.449.458 3.644a2.131 2.131 0 01-1.663-.733zm2.608-3.121l1.424-1.433a5.632 5.632 0 001.582-3.228l.236-1.815c1.984.376 3.999.562 6.018.555 2.02.007 4.035-.179 6.019-.555l.236 1.815a5.632 5.632 0 001.582 3.228l1.423 1.433c-.113 7.322-4.524 10.666-7.167 12.013a4.622 4.622 0 01-4.187 0c-2.643-1.347-7.055-4.691-7.166-12.013zM29 162.772l1.53-7.372 1.99-.474v6.613L29 162.772zm9.024-4.651a4.095 4.095 0 01-4.094-4.068l.282-3.297c.378.233.741.436 1.078.607a6.038 6.038 0 005.47 0c.336-.171.7-.374 1.078-.607l.282 3.299a4.094 4.094 0 01-4.096 4.066zm9.025 4.65l-3.521-1.232v-6.613l1.989.474 1.532 7.372z"/><path d="M40.97 145.727a.704.704 0 10-.693-1.226 5.106 5.106 0 01-2.254.46 5.117 5.117 0 01-2.252-.458.702.702 0 10-.694 1.224 6.387 6.387 0 002.946.64 6.39 6.39 0 002.946-.64zm-5.74-8.427c.29.259.736.233.995-.057a.702.702 0 00-.058-.992 3.16 3.16 0 00-2.074-.68 3.16 3.16 0 00-2.075.68.696.696 0 00-.052.976c.255.288.693.32.989.074a2.162 2.162 0 012.275 0zm-.165 1.883a.974.974 0 00-1.66-.687.969.969 0 00.688 1.656.971.971 0 00.972-.97zm5.75-1.882a2.162 2.162 0 012.275 0c.29.258.735.233.994-.057a.702.702 0 00-.057-.993 3.509 3.509 0 00-4.149 0 .695.695 0 00-.052.977.713.713 0 00.989.073zm1.138.911a.969.969 0 00-.688 1.656.974.974 0 001.66-.685.971.971 0 00-.972-.97z"/></g><g fill="#000"><path d="M166.554 60.392l-.834-7.822a5.94 5.94 0 00-4.525-5.135l-9.237-2.202-.31-3.639a13.815 13.815 0 004.652-6.487c.117.009.234.018.348.018a3.535 3.535 0 002.8-1.238 3.82 3.82 0 00.687-3.652 2.456 2.456 0 00-1.378-1.474c-.025-.01-.05-.017-.076-.027v-4.031c0-11.161-10.593-11.29-10.7-11.29h-11.888a.704.704 0 00-.705.703 5.252 5.252 0 001.83 3.913 6.04 6.04 0 00-2.899 5.148v5.558c-.025.01-.051.016-.076.026a2.46 2.46 0 00-1.378 1.475 3.822 3.822 0 00.688 3.652 3.534 3.534 0 002.8 1.237c.113 0 .23-.009.347-.017a13.814 13.814 0 004.652 6.487l-.31 3.639-9.237 2.2a5.94 5.94 0 00-4.525 5.136l-.834 7.822a.704.704 0 001.4.149l.836-7.822a4.53 4.53 0 013.451-3.917l5.36-1.277-1.65 7.943a.702.702 0 00.922.807l4.231-1.481v5.672a.704.704 0 001.41 0v-11.01a5.483 5.483 0 008.189 0v11.01a.704.704 0 001.409 0v-5.672l4.23 1.48a.706.706 0 00.924-.806l-1.65-7.943 5.36 1.277a4.532 4.532 0 013.451 3.917l.834 7.822c.039.357.34.628.7.628.025 0 .05 0 .076-.003a.703.703 0 00.625-.774zm-7.735-29.657a2.425 2.425 0 01-.45 2.25c-.416.48-1.026.75-1.662.733.28-1.195.433-2.416.457-3.643.35-.112.726-.114 1.076-.006.28.128.492.37.58.666zM138.81 18.82a.704.704 0 00.097-1.282 4.294 4.294 0 01-2.04-2.72h11.115c.38 0 9.291.112 9.291 9.884v3.911c-.211.031-.42.079-.624.142l-1.31-1.318a4.222 4.222 0 01-1.186-2.418l-.335-2.578a.703.703 0 00-.876-.588 28.248 28.248 0 01-6.442.681 28.377 28.377 0 01-6.442-.683.706.706 0 00-.876.59l-.335 2.578a4.223 4.223 0 01-1.186 2.418l-1.306 1.32a4.085 4.085 0 00-.625-.142v-5.439a4.633 4.633 0 013.08-4.356zm-4.178 14.162a2.423 2.423 0 01-.45-2.25c.087-.295.299-.538.58-.666.35-.108.725-.106 1.075.006.024 1.227.178 2.448.458 3.643a2.131 2.131 0 01-1.663-.733zm2.608-3.12l1.424-1.433a5.632 5.632 0 001.582-3.228l.236-1.815a31.81 31.81 0 006.018.554c2.02.007 4.035-.179 6.019-.554l.236 1.815a5.632 5.632 0 001.582 3.228l1.423 1.432c-.113 7.322-4.524 10.666-7.167 12.014a4.622 4.622 0 01-4.186 0c-2.644-1.348-7.056-4.692-7.167-12.014zm.236 24.673l1.53-7.372 1.99-.474v6.614l-3.52 1.232zm9.024-4.65a4.095 4.095 0 01-4.094-4.068l.282-3.298c.378.234.741.436 1.078.608a6.038 6.038 0 005.47 0c.336-.172.7-.374 1.078-.608l.282 3.3a4.094 4.094 0 01-4.096 4.065zm9.025 4.65l-3.521-1.232V46.69l1.99.474 1.531 7.371z"/><path d="M149.446 37.492a.704.704 0 10-.691-1.227 5.106 5.106 0 01-2.255.46 5.117 5.117 0 01-2.252-.457.702.702 0 10-.694 1.224 6.387 6.387 0 002.946.64 6.39 6.39 0 002.946-.64zm-5.739-8.427c.29.258.736.232.995-.057a.702.702 0 00-.058-.993 3.16 3.16 0 00-2.074-.68 3.16 3.16 0 00-2.075.68.696.696 0 00-.052.977c.255.288.694.32.989.073a2.162 2.162 0 012.275 0zm-.165 1.882a.974.974 0 00-1.66-.687.969.969 0 00.688 1.657.971.971 0 00.972-.97zm5.75-1.882a2.162 2.162 0 012.275 0c.29.259.736.233.994-.057a.702.702 0 00-.057-.992 3.509 3.509 0 00-4.148 0 .695.695 0 00-.053.977.713.713 0 00.989.072zm1.138.912a.969.969 0 00-.688 1.656.974.974 0 001.66-.686.971.971 0 00-.972-.97z"/></g><g fill="#000"><path d="M166.554 273.515l-.834-7.821a5.94 5.94 0 00-4.525-5.136l-9.237-2.201-.31-3.639a13.815 13.815 0 004.652-6.487c.117.008.234.017.348.017a3.535 3.535 0 002.8-1.237 3.82 3.82 0 00.687-3.652 2.456 2.456 0 00-1.378-1.474c-.025-.01-.05-.018-.076-.027v-4.031c0-11.162-10.593-11.29-10.7-11.29h-11.888a.704.704 0 00-.705.702 5.252 5.252 0 001.83 3.913 6.04 6.04 0 00-2.899 5.149v5.557c-.025.01-.051.016-.076.027a2.459 2.459 0 00-1.378 1.474 3.822 3.822 0 00.688 3.652 3.534 3.534 0 002.8 1.238c.113 0 .23-.01.347-.018a13.814 13.814 0 004.652 6.488l-.31 3.638-9.237 2.201a5.94 5.94 0 00-4.525 5.136l-.834 7.821a.704.704 0 001.4.15l.836-7.822a4.53 4.53 0 013.451-3.917l5.36-1.278-1.65 7.944a.702.702 0 00.922.806l4.231-1.48v5.672a.704.704 0 001.41 0v-11.01a5.483 5.483 0 008.189 0v11.01a.704.704 0 001.409 0v-5.673l4.23 1.481a.706.706 0 00.924-.806l-1.65-7.944 5.36 1.278a4.532 4.532 0 013.451 3.917l.834 7.822c.039.356.34.628.7.628.025 0 .05 0 .076-.004a.703.703 0 00.625-.774zm-7.735-29.657a2.425 2.425 0 01-.45 2.25 2.13 2.13 0 01-1.662.734c.28-1.195.433-2.417.457-3.644.35-.112.726-.114 1.076-.006.28.129.492.371.58.666zm-20.009-11.913a.704.704 0 00.097-1.282 4.294 4.294 0 01-2.04-2.72h11.115c.38 0 9.291.111 9.291 9.884v3.91c-.211.032-.42.08-.624.143l-1.31-1.319a4.222 4.222 0 01-1.186-2.418l-.335-2.577a.703.703 0 00-.876-.588 28.248 28.248 0 01-6.442.68 28.377 28.377 0 01-6.442-.682.706.706 0 00-.876.59l-.335 2.577a4.223 4.223 0 01-1.186 2.418l-1.306 1.32a4.085 4.085 0 00-.625-.141v-5.44a4.633 4.633 0 013.08-4.355zm-4.178 14.162a2.423 2.423 0 01-.45-2.25c.087-.295.299-.538.58-.667.35-.108.725-.106 1.075.006.024 1.228.178 2.449.458 3.644a2.131 2.131 0 01-1.663-.733zm2.608-3.121l1.424-1.433a5.632 5.632 0 001.582-3.228l.236-1.815c1.984.376 3.999.562 6.018.555 2.02.007 4.035-.179 6.019-.555l.236 1.815a5.632 5.632 0 001.582 3.228l1.423 1.433c-.113 7.322-4.524 10.666-7.167 12.013a4.622 4.622 0 01-4.186 0c-2.644-1.347-7.056-4.691-7.167-12.013zm.236 24.674l1.53-7.372 1.99-.474v6.614l-3.52 1.232zm9.024-4.651a4.095 4.095 0 01-4.094-4.068l.282-3.297c.378.233.741.436 1.078.607a6.038 6.038 0 005.47 0c.336-.171.7-.374 1.078-.607l.282 3.299a4.094 4.094 0 01-4.096 4.066zm9.025 4.65l-3.521-1.231v-6.614l1.99.474 1.531 7.372z"/><path d="M149.446 250.615a.704.704 0 10-.691-1.226 5.106 5.106 0 01-2.255.46 5.117 5.117 0 01-2.252-.458.702.702 0 10-.694 1.224 6.387 6.387 0 002.946.64 6.39 6.39 0 002.946-.64zm-5.739-8.427c.29.259.736.233.995-.057a.702.702 0 00-.058-.992 3.16 3.16 0 00-2.074-.68 3.16 3.16 0 00-2.075.68.696.696 0 00-.052.976c.255.288.694.32.989.074a2.162 2.162 0 012.275 0zm-.165 1.882a.974.974 0 00-1.66-.687.969.969 0 00.688 1.657.971.971 0 00.972-.97zm5.75-1.881a2.162 2.162 0 012.275 0c.29.258.736.233.994-.057a.702.702 0 00-.057-.993 3.509 3.509 0 00-4.148 0 .695.695 0 00-.053.977.713.713 0 00.989.073zm1.138.911a.969.969 0 00-.688 1.656.974.974 0 001.66-.685.971.971 0 00-.972-.97z"/></g></g></g></svg>