<?xml version="1.0" encoding="utf-8"?>
<!-- Generator: Adobe Illustrator 22.0.0, SVG Export Plug-In . SVG Version: 6.00 Build 0)  -->
<svg version="1.1" id="Layer_1" xmlns="http://www.w3.org/2000/svg" xmlns:xlink="http://www.w3.org/1999/xlink" x="0px" y="0px"
	 viewBox="0 0 1200 1200" style="enable-background:new 0 0 1200 1200;" xml:space="preserve">
<style type="text/css">
	.st0{clip-path:url(#SVGID_2_);}
	.st1{opacity:0.3;}
	.st2{fill:#DCEAF9;}
	.st3{fill:#D5E7F7;}
	.st4{fill:#C4D9ED;}
	.st5{fill:#ADC9E0;}
	.st6{fill:#2FBF40;}
	.st7{fill:none;stroke:#249431;stroke-miterlimit:10;}
	.st8{fill:#249431;}
	.st9{fill:none;stroke:#2FBF40;stroke-miterlimit:10;}
	.st10{fill:url(#SVGID_3_);}
	.st11{fill:#D9CFBD;}
	.st12{clip-path:url(#SVGID_5_);}
	.st13{fill:#EBE0CC;}
	.st14{fill:#FFFFFF;}
	.st15{fill:#FFDA40;}
	.st16{fill:#E8E8E8;}
	.st17{fill:#E6C43A;}
	.st18{fill:#FF6430;}
	.st19{fill:none;stroke:#FF6430;stroke-miterlimit:10;}
	.st20{fill:none;stroke:#FF6430;stroke-miterlimit:10;stroke-dasharray:5.9624,5.9624;}
	.st21{fill:#F9CF1C;}
	.st22{fill:#FFF6F8;}
	.st23{fill:#F9E1BD;}
	.st24{fill:#2B478B;}
	.st25{fill:#FCE47E;}
	.st26{fill:#D9B67E;}
	.st27{fill:url(#SVGID_6_);}
	.st28{fill:url(#SVGID_7_);}
	.st29{fill:url(#SVGID_8_);}
	.st30{opacity:0.4;fill:#D86713;}
	.st31{fill:#FFB27D;}
	.st32{fill:#ED975D;}
	.st33{fill:url(#SVGID_9_);}
	.st34{fill:#EA3A0A;}
	.st35{fill:url(#SVGID_10_);}
	.st36{fill:url(#SVGID_11_);}
</style>
<g>
	<defs>
		<rect id="SVGID_1_" width="1200" height="1200"/>
	</defs>
	<clipPath id="SVGID_2_">
		<use xlink:href="#SVGID_1_"  style="overflow:visible;"/>
	</clipPath>
	<g class="st0">
		<g class="st1">
			<rect x="-245" y="1003.2" class="st2" width="89.2" height="183.7"/>
			<polygon class="st3" points="1066.8,486.4 1066.8,406.1 1042.4,406.1 1042.4,268.1 911.7,268.1 911.7,406.1 789.5,406.1 
				789.5,216.9 654.7,165.9 654.7,327.2 624,327.2 624,112.3 489.1,157 489.1,479.8 318.6,479.8 318.6,670.4 254.9,670.4 
				254.9,718.4 108.5,718.4 108.5,635.7 24.5,635.7 24.5,411 -79.3,411 -79.3,825.8 -183.1,825.8 -183.1,1186.8 -79.3,1186.8 
				9.7,1186.8 24.5,1186.8 108.5,1186.8 156,1186.8 232.1,1186.8 254.9,1186.8 318.6,1186.8 378.5,1186.8 489.1,1186.8 523,1186.8 
				590.5,1186.8 624,1186.8 654.7,1186.8 725.3,1186.8 773.3,1186.8 789.5,1186.8 911.7,1186.8 1040.2,1186.8 1042.4,1186.8 
				1066.8,1186.8 1170.9,1186.8 1170.9,486.4 			"/>
			<rect x="511" y="174.9" class="st4" width="91" height="33.3"/>
			<rect x="511" y="237.5" class="st4" width="91" height="33.3"/>
			<rect x="511" y="293.8" class="st4" width="91" height="33.3"/>
			<g>
				<rect x="-79.2" y="564" class="st4" width="104.7" height="51.4"/>
				<rect x="-79.2" y="721.8" class="st4" width="104.7" height="51.4"/>
				<rect x="-79.2" y="799.4" class="st4" width="104.7" height="51.4"/>
			</g>
			<rect x="-79.2" y="880.7" class="st4" width="104.7" height="51.4"/>
			<rect x="-79.2" y="960.3" class="st4" width="104.7" height="51.4"/>
			<rect x="-79.2" y="1041.5" class="st4" width="104.7" height="51.4"/>
			<g>
				<rect x="674.2" y="293.8" class="st4" width="95.7" height="33.3"/>
				<rect x="674.2" y="238" class="st4" width="95.7" height="33.3"/>
				<rect x="508.7" y="348.4" class="st4" width="261.2" height="33.3"/>
				<rect x="508.7" y="398.5" class="st4" width="261.2" height="33.3"/>
				<rect x="508.7" y="448.2" class="st4" width="261.2" height="32"/>
			</g>
			<rect x="-79.2" y="644.1" class="st4" width="104.7" height="51.4"/>
			<g>
				<rect x="346.5" y="512.6" class="st4" width="22.9" height="32.2"/>
				<rect x="389.2" y="512.6" class="st4" width="22.9" height="32.2"/>
				<rect x="431" y="512.6" class="st4" width="22.9" height="32.2"/>
				<rect x="470.6" y="512.6" class="st4" width="22.9" height="32.2"/>
				<rect x="511" y="512.6" class="st4" width="22.9" height="32.2"/>
				<rect x="551.8" y="512.6" class="st4" width="22.9" height="32.2"/>
				<rect x="594.6" y="512.6" class="st4" width="22.9" height="32.2"/>
				<rect x="636.4" y="512.6" class="st4" width="22.9" height="32.2"/>
				<rect x="676" y="512.6" class="st4" width="22.9" height="32.2"/>
				<rect x="716.4" y="512.6" class="st4" width="22.9" height="32.2"/>
				<rect x="758.5" y="512.6" class="st4" width="22.9" height="32.2"/>
				<rect x="801.2" y="512.6" class="st4" width="22.9" height="32.2"/>
				<rect x="843" y="512.6" class="st4" width="22.9" height="32.2"/>
				<rect x="882.6" y="512.6" class="st4" width="22.9" height="32.2"/>
				<rect x="923" y="512.6" class="st4" width="22.9" height="32.2"/>
				<rect x="963.8" y="512.6" class="st4" width="22.9" height="32.2"/>
				<rect x="1006.6" y="512.6" class="st4" width="22.9" height="32.2"/>
				<rect x="1048.4" y="512.6" class="st4" width="22.9" height="32.2"/>
				<rect x="1088" y="512.6" class="st4" width="22.9" height="32.2"/>
				<rect x="1128.4" y="512.6" class="st4" width="22.9" height="32.2"/>
				<rect x="346.5" y="569.4" class="st4" width="22.9" height="32.2"/>
				<rect x="389.2" y="569.4" class="st4" width="22.9" height="32.2"/>
				<rect x="431" y="569.4" class="st4" width="22.9" height="32.2"/>
				<rect x="470.6" y="569.4" class="st4" width="22.9" height="32.2"/>
				<rect x="511" y="569.4" class="st4" width="22.9" height="32.2"/>
				<rect x="551.8" y="569.4" class="st4" width="22.9" height="32.2"/>
				<rect x="594.6" y="569.4" class="st4" width="22.9" height="32.2"/>
				<rect x="636.4" y="569.4" class="st4" width="22.9" height="32.2"/>
				<rect x="676" y="569.4" class="st4" width="22.9" height="32.2"/>
				<rect x="716.4" y="569.4" class="st4" width="22.9" height="32.2"/>
				<rect x="758.5" y="569.4" class="st4" width="22.9" height="32.2"/>
				<rect x="801.2" y="569.4" class="st4" width="22.9" height="32.2"/>
				<rect x="843" y="569.4" class="st4" width="22.9" height="32.2"/>
				<rect x="882.6" y="569.4" class="st4" width="22.9" height="32.2"/>
				<rect x="923" y="569.4" class="st4" width="22.9" height="32.2"/>
				<rect x="963.8" y="569.4" class="st4" width="22.9" height="32.2"/>
				<rect x="1006.6" y="569.4" class="st4" width="22.9" height="32.2"/>
				<rect x="1048.4" y="569.4" class="st4" width="22.9" height="32.2"/>
				<rect x="1088" y="569.4" class="st4" width="22.9" height="32.2"/>
				<rect x="1128.4" y="569.4" class="st4" width="22.9" height="32.2"/>
				<rect x="346.5" y="625.4" class="st4" width="22.9" height="32.2"/>
				<rect x="389.2" y="625.4" class="st4" width="22.9" height="32.2"/>
				<rect x="431" y="625.4" class="st4" width="22.9" height="32.2"/>
				<rect x="470.6" y="625.4" class="st4" width="22.9" height="32.2"/>
				<rect x="511" y="625.4" class="st4" width="22.9" height="32.2"/>
				<rect x="551.8" y="625.4" class="st4" width="22.9" height="32.2"/>
				<rect x="594.6" y="625.4" class="st4" width="22.9" height="32.2"/>
				<rect x="636.4" y="625.4" class="st4" width="22.9" height="32.2"/>
				<rect x="676" y="625.4" class="st4" width="22.9" height="32.2"/>
				<rect x="716.4" y="625.4" class="st4" width="22.9" height="32.2"/>
				<rect x="758.5" y="625.4" class="st4" width="22.9" height="32.2"/>
				<rect x="801.2" y="625.4" class="st4" width="22.9" height="32.2"/>
				<rect x="843" y="625.4" class="st4" width="22.9" height="32.2"/>
				<rect x="882.6" y="625.4" class="st4" width="22.9" height="32.2"/>
				<rect x="923" y="625.4" class="st4" width="22.9" height="32.2"/>
				<rect x="963.8" y="625.4" class="st4" width="22.9" height="32.2"/>
				<rect x="1006.6" y="625.4" class="st4" width="22.9" height="32.2"/>
				<rect x="1048.4" y="625.4" class="st4" width="22.9" height="32.2"/>
				<rect x="1088" y="625.4" class="st4" width="22.9" height="32.2"/>
				<rect x="1128.4" y="625.4" class="st4" width="22.9" height="32.2"/>
				<rect x="346.5" y="684.9" class="st4" width="22.9" height="32.2"/>
				<rect x="389.2" y="684.9" class="st4" width="22.9" height="32.2"/>
				<rect x="431" y="684.9" class="st4" width="22.9" height="32.2"/>
				<rect x="470.6" y="684.9" class="st4" width="22.9" height="32.2"/>
				<rect x="511" y="684.9" class="st4" width="22.9" height="32.2"/>
				<rect x="551.8" y="684.9" class="st4" width="22.9" height="32.2"/>
				<rect x="594.6" y="684.9" class="st4" width="22.9" height="32.2"/>
				<rect x="636.4" y="684.9" class="st4" width="22.9" height="32.2"/>
				<rect x="676" y="684.9" class="st4" width="22.9" height="32.2"/>
				<rect x="716.4" y="684.9" class="st4" width="22.9" height="32.2"/>
				<rect x="758.5" y="684.9" class="st4" width="22.9" height="32.2"/>
				<rect x="801.2" y="684.9" class="st4" width="22.9" height="32.2"/>
				<rect x="843" y="684.9" class="st4" width="22.9" height="32.2"/>
				<rect x="882.6" y="684.9" class="st4" width="22.9" height="32.2"/>
				<rect x="923" y="684.9" class="st4" width="22.9" height="32.2"/>
				<rect x="963.8" y="684.9" class="st4" width="22.9" height="32.2"/>
				<rect x="1006.6" y="684.9" class="st4" width="22.9" height="32.2"/>
				<rect x="1048.4" y="684.9" class="st4" width="22.9" height="32.2"/>
				<rect x="1088" y="684.9" class="st4" width="22.9" height="32.2"/>
				<rect x="1128.4" y="684.9" class="st4" width="22.9" height="32.2"/>
				<rect x="346.5" y="741.7" class="st4" width="22.9" height="32.2"/>
				<rect x="389.2" y="741.7" class="st4" width="22.9" height="32.2"/>
				<rect x="431" y="741.7" class="st4" width="22.9" height="32.2"/>
				<rect x="470.6" y="741.7" class="st4" width="22.9" height="32.2"/>
				<rect x="511" y="741.7" class="st4" width="22.9" height="32.2"/>
				<rect x="551.8" y="741.7" class="st4" width="22.9" height="32.2"/>
				<rect x="594.6" y="741.7" class="st4" width="22.9" height="32.2"/>
				<rect x="636.4" y="741.7" class="st4" width="22.9" height="32.2"/>
				<rect x="676" y="741.7" class="st4" width="22.9" height="32.2"/>
				<rect x="716.4" y="741.7" class="st4" width="22.9" height="32.2"/>
				<rect x="758.5" y="741.7" class="st4" width="22.9" height="32.2"/>
				<rect x="801.2" y="741.7" class="st4" width="22.9" height="32.2"/>
				<rect x="843" y="741.7" class="st4" width="22.9" height="32.2"/>
				<rect x="882.6" y="741.7" class="st4" width="22.9" height="32.2"/>
				<rect x="923" y="741.7" class="st4" width="22.9" height="32.2"/>
				<rect x="963.8" y="741.7" class="st4" width="22.9" height="32.2"/>
				<rect x="1006.6" y="741.7" class="st4" width="22.9" height="32.2"/>
				<rect x="1088" y="741.7" class="st4" width="22.9" height="32.2"/>
				<rect x="1048.4" y="741.7" class="st4" width="22.9" height="32.2"/>
				<rect x="1128.4" y="741.7" class="st4" width="22.9" height="32.2"/>
				<rect x="346.5" y="797.7" class="st4" width="22.9" height="32.2"/>
				<rect x="389.2" y="797.7" class="st4" width="22.9" height="32.2"/>
				<rect x="431" y="797.7" class="st4" width="22.9" height="32.2"/>
				<rect x="470.6" y="797.7" class="st4" width="22.9" height="32.2"/>
				<rect x="511" y="797.7" class="st4" width="22.9" height="32.2"/>
				<rect x="551.8" y="797.7" class="st4" width="22.9" height="32.2"/>
				<rect x="594.6" y="797.7" class="st4" width="22.9" height="32.2"/>
				<rect x="636.4" y="797.7" class="st4" width="22.9" height="32.2"/>
				<rect x="676" y="797.7" class="st4" width="22.9" height="32.2"/>
				<rect x="716.4" y="797.7" class="st4" width="22.9" height="32.2"/>
				<rect x="758.5" y="797.7" class="st4" width="22.9" height="32.2"/>
				<rect x="801.2" y="797.7" class="st4" width="22.9" height="32.2"/>
				<rect x="843" y="797.7" class="st4" width="22.9" height="32.2"/>
				<rect x="882.6" y="797.7" class="st4" width="22.9" height="32.2"/>
				<rect x="923" y="797.7" class="st4" width="22.9" height="32.2"/>
				<rect x="963.8" y="797.7" class="st4" width="22.9" height="32.2"/>
				<rect x="1006.6" y="797.7" class="st4" width="22.9" height="32.2"/>
				<rect x="1088" y="797.7" class="st4" width="22.9" height="32.2"/>
				<rect x="1128.4" y="797.7" class="st4" width="22.9" height="32.2"/>
			</g>
			<rect x="1342.8" y="734" class="st4" width="50.8" height="344"/>
			<rect x="1288.2" y="943.2" class="st5" width="54.6" height="239"/>
			<polygon class="st4" points="-79.2,462.4 -79.2,411 -58.4,411 -58.4,388.7 -55.6,388.7 -55.6,411 24,411 25.5,411 40.6,411 
				40.6,388.7 43.3,388.7 43.3,411 62.6,411 62.6,635.7 24,635.7 24,538.9 -79.2,538.9 -79.2,487.5 24,487.5 24,462.4 			"/>
			<polygon class="st3" points="1051.2,784.1 1051.2,1074.1 1342.8,1074.1 1342.8,734 			"/>
			<rect x="1051.2" y="942.3" class="st3" width="363.8" height="244.6"/>
			<rect x="1051.2" y="797.5" class="st4" width="363.8" height="79.5"/>
			<g>
				<rect x="1076" y="1008.6" class="st4" width="18.7" height="26.3"/>
				<rect x="1110.9" y="1008.6" class="st4" width="18.7" height="26.3"/>
				<rect x="1145.1" y="1008.6" class="st4" width="18.7" height="26.3"/>
				<rect x="1177.5" y="1008.6" class="st4" width="18.7" height="26.3"/>
				<rect x="1210.5" y="1008.6" class="st4" width="18.7" height="26.3"/>
				<rect x="1243.9" y="1008.6" class="st4" width="18.7" height="26.3"/>
				<rect x="1278.8" y="1008.6" class="st4" width="18.7" height="26.3"/>
				<rect x="1313" y="1008.6" class="st4" width="18.7" height="26.3"/>
				<rect x="1345.3" y="1008.6" class="st4" width="18.7" height="26.3"/>
				<rect x="1378.3" y="1008.6" class="st4" width="18.7" height="26.3"/>
				<rect x="1076" y="1055.1" class="st4" width="18.7" height="26.3"/>
				<rect x="1110.9" y="1055.1" class="st4" width="18.7" height="26.3"/>
				<rect x="1145.1" y="1055.1" class="st4" width="18.7" height="26.3"/>
				<rect x="1177.5" y="1055.1" class="st4" width="18.7" height="26.3"/>
				<rect x="1210.5" y="1055.1" class="st4" width="18.7" height="26.3"/>
				<rect x="1243.9" y="1055.1" class="st4" width="18.7" height="26.3"/>
				<rect x="1278.8" y="1055.1" class="st4" width="18.7" height="26.3"/>
				<rect x="1313" y="1055.1" class="st4" width="18.7" height="26.3"/>
				<rect x="1345.3" y="1055.1" class="st4" width="18.7" height="26.3"/>
				<rect x="1378.3" y="1055.1" class="st4" width="18.7" height="26.3"/>
				<rect x="1076" y="915" class="st4" width="18.7" height="26.3"/>
				<rect x="1110.9" y="915" class="st4" width="18.7" height="26.3"/>
				<rect x="1145.1" y="915" class="st4" width="18.7" height="26.3"/>
				<rect x="1177.5" y="915" class="st4" width="18.7" height="26.3"/>
				<rect x="1210.5" y="915" class="st4" width="18.7" height="26.3"/>
				<rect x="1243.9" y="915" class="st4" width="18.7" height="26.3"/>
				<rect x="1278.8" y="915" class="st4" width="18.7" height="26.3"/>
				<rect x="1313" y="915" class="st4" width="18.7" height="26.3"/>
				<rect x="1076" y="961.4" class="st4" width="18.7" height="26.3"/>
				<rect x="1110.9" y="961.4" class="st4" width="18.7" height="26.3"/>
				<rect x="1145.1" y="961.4" class="st4" width="18.7" height="26.3"/>
				<rect x="1177.5" y="961.4" class="st4" width="18.7" height="26.3"/>
				<rect x="1210.5" y="961.4" class="st4" width="18.7" height="26.3"/>
				<rect x="1243.9" y="961.4" class="st4" width="18.7" height="26.3"/>
				<rect x="1278.8" y="961.4" class="st4" width="18.7" height="26.3"/>
				<rect x="1313" y="961.4" class="st4" width="18.7" height="26.3"/>
				<rect x="1345.3" y="961.4" class="st4" width="18.7" height="26.3"/>
				<rect x="1378.3" y="961.4" class="st4" width="18.7" height="26.3"/>
				<rect x="1076" y="1100.8" class="st4" width="18.7" height="26.3"/>
				<rect x="1110.9" y="1100.8" class="st4" width="18.7" height="26.3"/>
				<rect x="1145.1" y="1100.8" class="st4" width="18.7" height="26.3"/>
				<rect x="1177.5" y="1100.8" class="st4" width="18.7" height="26.3"/>
				<rect x="1210.5" y="1100.8" class="st4" width="18.7" height="26.3"/>
				<rect x="1243.9" y="1100.8" class="st4" width="18.7" height="26.3"/>
				<rect x="1278.8" y="1100.8" class="st4" width="18.7" height="26.3"/>
				<rect x="1313" y="1100.8" class="st4" width="18.7" height="26.3"/>
				<rect x="1345.3" y="1100.8" class="st4" width="18.7" height="26.3"/>
				<rect x="1378.3" y="1100.8" class="st4" width="18.7" height="26.3"/>
			</g>
			<rect x="1317.9" y="679.4" class="st3" width="5.4" height="69"/>
			<g>
				<rect x="1079" y="819.8" class="st3" width="15.7" height="27.2"/>
				<rect x="1234.9" y="819.8" class="st3" width="15.7" height="27.2"/>
				<rect x="1358.8" y="819.8" class="st3" width="15.7" height="27.2"/>
			</g>
		</g>
		<g>
			<g>
				<path class="st6" d="M182.7,1160.1c0.7-13.8-19.8-25.5-22-26.8c-11.8-6.7-16.4-3.5-22.3-9.7c-10.1-10.5-0.5-24.1-9.2-33.1
					c-9.5-9.9-24.6,2.5-41.3-7.7c-12.2-7.4-8.5-16.7-22-26.8c-8.9-6.6-27.8-15.5-40.4-6.4c-12.9,9.3-13.4,33.1-4,43
					c9.4,9.9,25.4,2.3,32.6,12.9c5.6,8.2-2.1,15.5,3.2,23.8c8.2,12.8,32,4.6,37.9,15.9c4.3,8.2-6.9,15.3-3.7,25.2
					c4.7,14.7,36,21.5,60.4,14.2C155.5,1183.6,181.9,1175.3,182.7,1160.1z"/>
				<path class="st7" d="M34,1064.4c0,0,24.7,12.3,38.7,30c14,17.7,18.3,12.3,33.4,27c15.1,14.7,20.4,31.9,37.8,35
					c17.4,3.1,38.5,21.5,38.5,21.5"/>
				<path class="st8" d="M151.9,1184.7c0.9-0.3,3.1-0.9,5.9-2c-13.6-2.2-46.7-5.2-53.8-23.4c-3.2-8.3,0.9-14.6-4.8-20.6
					c-7.2-7.5-17.9-1.5-28.9-10.2c-5.4-4.3-8.1-10-9.6-13.4c-5.3-11.4-1.3-15.9-5.7-21.4c-5.7-7.2-14.6-2.5-28.5-8.4
					c-4.6-1.9-8.3-4.4-11.2-6.9c0.8,5.7,2.9,10.9,6.2,14.3c9.4,9.9,25.4,2.3,32.6,12.9c5.6,8.2-2.1,15.5,3.2,23.8
					c8.2,12.8,32,4.6,37.9,15.9c4.3,8.2-6.9,15.3-3.7,25.2C96.1,1185.2,127.5,1192,151.9,1184.7z"/>
			</g>
			<g>
				<path class="st6" d="M169.2,1117.6c6.8-12-6.4-31.6-7.8-33.8c-7.5-11.3-13.2-10.4-15.7-18.6c-4.3-13.9,10.2-21.8,6.5-33.7
					c-4.1-13.1-23.2-8.8-33.6-25.2c-7.6-12.1-0.2-18.8-7.8-33.8c-5-9.9-18-26.2-33.4-23.7c-15.7,2.6-26.7,23.7-22.7,36.8
					c4.1,13.1,21.7,13.4,23.5,26c1.4,9.8-8.7,12.9-7.7,22.8c1.6,15.1,26.6,18.4,26.9,31.1c0.2,9.2-13,10.7-14.6,21
					c-2.3,15.2,22.7,35.3,47.8,39.6C134.4,1126.6,161.7,1130.9,169.2,1117.6z"/>
				<path class="st7" d="M78.6,965.8c0,0,16.7,22,21.3,44.1c4.6,22,11,19.1,17.9,39c6.9,19.9,4.1,37.7,18.3,48.2
					c14.2,10.5,24.9,36.4,24.9,36.4"/>
				<path class="st8" d="M130.7,1126c0.9,0.2,3.2,0.5,6.2,0.8c-11.2-8-39.5-25.5-37.8-44.9c0.8-8.8,7.4-12.7,4.9-20.5
					c-3.2-9.9-15.4-9.3-21.4-22c-2.9-6.3-2.8-12.6-2.7-16.3c0.3-12.5,5.9-14.8,4.4-21.7c-1.9-8.9-11.9-8.7-21.8-20.2
					c-3.3-3.8-5.5-7.7-7-11.2c-1.8,5.4-2.3,11-0.9,15.6c4.1,13.1,21.7,13.4,23.5,26c1.4,9.8-8.7,12.9-7.7,22.8
					c1.6,15.1,26.6,18.4,26.9,31.1c0.2,9.2-13,10.7-14.6,21C80.5,1101.6,105.6,1121.7,130.7,1126z"/>
			</g>
		</g>
		<g>
			<g>
				<path class="st8" d="M234.4,931.9c5.8-8.1-2.1-23.2-3-24.9c-4.5-8.7-8.6-8.5-9.8-14.6c-2-10.3,9-14.9,7.3-23.8
					c-1.9-9.7-16-8.1-22.2-20.8c-4.5-9.3,1.3-13.5-3-24.9c-2.8-7.5-10.9-20.3-22.2-19.6c-11.5,0.6-21.1,14.9-19.2,24.7
					c1.9,9.7,14.6,11.3,14.8,20.6c0.2,7.2-7.3,8.6-7.3,15.8c0,11,17.7,15.3,16.9,24.4c-0.6,6.6-10.2,6.6-12.1,13.9
					c-2.9,10.7,13.6,27.1,31.3,32.2C208.7,935.6,227.9,940.8,234.4,931.9z"/>
				<path class="st9" d="M181.2,815.6c0,0,10.3,17.1,11.9,33.4c1.6,16.2,6.4,14.6,9.8,29.5c3.4,14.8,0,27.4,9.4,36.1
					c9.4,8.7,15.1,28.1,15.1,28.1"/>
			</g>
			<linearGradient id="SVGID_3_" gradientUnits="userSpaceOnUse" x1="155.4017" y1="895.0963" x2="489.3798" y2="895.0963">
				<stop  offset="0" style="stop-color:#21367F"/>
				<stop  offset="0.2834" style="stop-color:#194E91"/>
				<stop  offset="0.8794" style="stop-color:#068BC0"/>
				<stop  offset="0.9951" style="stop-color:#0298CA"/>
			</linearGradient>
			<path class="st10" d="M485.1,1190.5H159.7c-2.4,0-4.3-1.9-4.3-4.3V603.9c0-2.4,1.9-4.3,4.3-4.3h325.4c2.4,0,4.3,1.9,4.3,4.3
				v582.3C489.4,1188.6,487.5,1190.5,485.1,1190.5z"/>
			<g>
				<rect x="170.8" y="619.8" class="st11" width="303.2" height="532.7"/>
			</g>
			<g>
				<defs>
					<rect id="SVGID_4_" x="170.8" y="619.8" width="303.2" height="532.7"/>
				</defs>
				<clipPath id="SVGID_5_">
					<use xlink:href="#SVGID_4_"  style="overflow:visible;"/>
				</clipPath>
				<g class="st12">
					<g>
						<polygon class="st13" points="191.9,985.1 266.9,997.5 248.2,929.5 221.2,940.5 194.9,910 						"/>
					</g>
					<g>
						<polygon class="st13" points="203.6,902.1 227.7,923.3 284.8,899 266.5,873.2 202.9,863.8 						"/>
					</g>
					<g>
						<polygon class="st13" points="267.9,929.5 317.7,903.7 335.9,960.1 278,991.1 						"/>
					</g>
					<g>
						<path class="st13" d="M303,898.3l-26.3-45.6l49.7-47.8c0,0,43.2,72.8,41,72.8C365.3,877.8,303,898.3,303,898.3z"/>
					</g>
					<g>
						<polygon class="st13" points="258.4,854.4 202.9,848.9 188.3,813.6 238.7,805.8 275.3,814.4 						"/>
					</g>
					<g>
						<polygon class="st13" points="333.7,901.3 347.6,954.6 375.4,968.7 405.4,971.8 380.5,891.2 						"/>
					</g>
					<g>
						<polygon class="st13" points="300.8,805 246.8,792.5 186.8,799.6 191.9,747.9 265,760.4 322.8,790.9 						"/>
					</g>
					<g>
						<polygon class="st13" points="297.6,758.8 332,783.6 411.3,747.5 						"/>
					</g>
					<g>
						<polygon class="st13" points="347.8,804.8 378.6,875.7 399.4,878.5 416.6,962.1 457.6,931.6 447.7,742.5 						"/>
					</g>
					<g>
						<polygon class="st13" points="192.4,994.7 263.9,1011 221.1,1098.1 188.6,1104.5 						"/>
					</g>
					<g>
						<path class="st13" d="M275.8,1014.5c-2.6,3.5-39,88.5-39,88.5s119.7-3.5,113.7-15.6c-6-12-13.9-113.3-13.9-113.3L275.8,1014.5
							z"/>
					</g>
					<g>
						<polygon class="st13" points="188.6,1120.1 189.1,1137.1 301.6,1137.1 267.6,1113.7 220.5,1112.3 						"/>
					</g>
					<g>
						<path class="st13" d="M348.5,978.4l15.2,79.3l70.1-22.7c0,0,16.5-49.6,14.5-50.3C446.4,984.1,348.5,978.4,348.5,978.4z"/>
					</g>
					<g>
						<polygon class="st13" points="371.6,1081.8 379.6,1134.2 445.1,1137.1 450.3,1048.5 						"/>
					</g>
					<g>
						<polygon class="st13" points="358.4,1111.6 352.5,1137.8 302.2,1130.7 285,1113.7 						"/>
					</g>
				</g>
			</g>
			<g>
				<g>
					<g>
						<g>
							<polygon class="st14" points="153.8,640.5 202.1,640.5 201.5,715.8 152.9,715.8 							"/>
						</g>
						<polygon class="st15" points="202.1,640.5 250.5,640.5 250.1,715.8 201.5,715.8 						"/>
						<g>
							<polygon class="st14" points="250.5,640.5 298.8,640.5 298.7,715.8 250.1,715.8 							"/>
						</g>
						<polygon class="st15" points="298.8,640.5 347.1,640.5 347.2,715.8 298.7,715.8 						"/>
						<g>
							<polygon class="st14" points="347.1,640.5 395.4,640.5 395.8,715.8 347.2,715.8 							"/>
						</g>
						<polygon class="st15" points="395.4,640.5 443.8,640.5 444.4,715.8 395.8,715.8 						"/>
						<g>
							<polygon class="st14" points="443.8,640.5 492.1,640.5 492.9,715.8 444.4,715.8 							"/>
						</g>
					</g>
					<g>
						<g>
							<polygon class="st16" points="169.9,619 213.6,619 202.1,640.5 153.8,640.5 							"/>
						</g>
						<polygon class="st17" points="213.6,619 257.4,619 250.5,640.5 202.1,640.5 						"/>
						<g>
							<polygon class="st16" points="257.4,619 301.1,619 298.8,640.5 250.5,640.5 							"/>
						</g>
						<polygon class="st17" points="301.1,619 344.8,619 347.1,640.5 298.8,640.5 						"/>
						<g>
							<polygon class="st16" points="344.8,619 388.5,619 395.4,640.5 347.1,640.5 							"/>
						</g>
						<polygon class="st17" points="388.5,619 432.2,619 443.8,640.5 395.4,640.5 						"/>
						<g>
							<polygon class="st16" points="432.2,619 476,619 492.1,640.5 443.8,640.5 							"/>
						</g>
					</g>
					<g>
						<path class="st16" d="M177.2,740.1c13.4,0,24.3-10.9,24.3-24.3h-48.6C152.9,729.2,163.8,740.1,177.2,740.1z"/>
					</g>
					<path class="st17" d="M225.8,740.1c13.4,0,24.3-10.9,24.3-24.3h-48.6C201.5,729.2,212.4,740.1,225.8,740.1z"/>
					<g>
						<path class="st16" d="M274.4,740.1c13.4,0,24.3-10.9,24.3-24.3h-48.6C250.1,729.2,261,740.1,274.4,740.1z"/>
					</g>
					<path class="st17" d="M323.2,739.9c13.4,0,24.3-10.9,24.3-24.3h-48.6C298.9,729,309.8,739.9,323.2,739.9z"/>
					<g>
						<path class="st16" d="M371.7,739.9c13.4,0,24.3-10.9,24.3-24.3h-48.6C347.5,729,358.3,739.9,371.7,739.9z"/>
					</g>
					<path class="st17" d="M420.1,740.1c13.4,0,24.3-10.9,24.3-24.3h-48.6C395.8,729.2,406.7,740.1,420.1,740.1z"/>
					<g>
						<path class="st16" d="M468.7,740.1c13.4,0,24.3-10.9,24.3-24.3h-48.6C444.4,729.2,455.2,740.1,468.7,740.1z"/>
					</g>
				</g>
			</g>
			<g>
				<g>
					<path class="st18" d="M215.6,999.7c-12.3,0-22.2,9.9-22.2,22.2c0,12.3,22.2,37.5,22.2,37.5s22.2-25.2,22.2-37.5
						C237.8,1009.7,227.9,999.7,215.6,999.7z M215.6,1030.3c-5.1,0-9.3-4.1-9.3-9.3c0-5.1,4.1-9.3,9.3-9.3c5.1,0,9.3,4.1,9.3,9.3
						C224.9,1026.1,220.7,1030.3,215.6,1030.3z"/>
				</g>
				<g>
					<path class="st18" d="M373.4,763c-12.3,0-22.2,9.9-22.2,22.2c0,12.3,22.2,37.5,22.2,37.5s22.2-25.2,22.2-37.5
						C395.6,773,385.7,763,373.4,763z M373.4,793.6c-5.1,0-9.3-4.1-9.3-9.3c0-5.1,4.1-9.3,9.3-9.3c5.1,0,9.3,4.1,9.3,9.3
						C382.7,789.4,378.5,793.6,373.4,793.6z"/>
				</g>
				<g>
					<g>
						<path class="st19" d="M222.4,969.8c0.2-1,0.4-2,0.6-2.9"/>
						<path class="st20" d="M224.2,961c9.4-41.1,26-57.5,40.3-64.7c25.5-12.7,50.9,0.5,77.5-17.7c12.8-8.7,20.4-20.9,24.9-31.2"/>
						<path class="st19" d="M368.2,844.7c0.4-1,0.8-1.9,1.1-2.8"/>
					</g>
				</g>
			</g>
		</g>
		<g>
			<g>
				<polygon points="672.7,996.6 676.5,993.4 625.2,926.3 606.6,925.5 				"/>
			</g>
			<g>
				<polygon points="739.8,996.6 743,993.4 700.5,926.3 685.1,925.5 				"/>
			</g>
			<ellipse class="st18" cx="1030.9" cy="821.6" rx="22.5" ry="23.1"/>
			<path class="st21" d="M767.7,1132.6h229c2.5,0,4.5-2.1,4.5-4.6v-21.6c0-2.5-2-4.6-4.5-4.6H794.4c-2.5,0-4.5,2.1-4.5,4.6
				L767.7,1132.6z"/>
			<circle cx="697.2" cy="1115.6" r="68.4"/>
			<g>
				<circle class="st22" cx="697.2" cy="1115.6" r="34.9"/>
			</g>
			<g>
				<path class="st21" d="M1049,1019c9.7-3.1,19.9-4.7,30.6-4.7c7.5,0,14.9,0.8,21.9,2.4c40.5,9,72,42.3,78.3,83.8
					c1.2,8-5,15.1-13.1,15.1h-0.4c-4.3,0-7.9-3.3-8.4-7.7c-3.9-39.8-37.5-71-78.3-71c-12.2,0-23.7,2.8-34,7.7
					c-26.4,12.7-44.7,39.7-44.7,70.9h-22.6C978.3,1070.4,1008,1032,1049,1019z"/>
			</g>
			<g>
				<path class="st15" d="M944,1101.8l34.3,13.8c23.7-46.2,48-68.8,68.7-80c37.3-20.1,63.3-3.1,54.5-18.9l-64-135.1
					c-6-8.3-13.8-14.7-22.6-18.8c-9.5-4.5-20.1-6.4-30.6-5.4c-12.2,1.1-20.2,13.4-16.3,25.1c8.4,25.1,11.6,50.2,11.6,74.2
					C979.7,1036.2,944,1101.8,944,1101.8z"/>
			</g>
			<path class="st15" d="M978.9,873l25.8-9.9c3.5,0,10.2,3.2,10.2-0.3l-3.8-63.1c0-3.5-2.9-6.4-6.4-6.4h-16.6
				c-3.5,0-17.6,6.7-16.6,19.4l-4.4,63.6C967.1,879.8,975.4,873,978.9,873z"/>
			<path d="M542.1,928.7h165.8c6.7,0,12.2-5.5,12.2-12.2v0c0-6.7-5.5-12.2-12.2-12.2H542.1c-6.7,0-12.2,5.5-12.2,12.2v0
				C530,923.2,535.4,928.7,542.1,928.7z"/>
			<circle cx="1079.6" cy="1115.6" r="68.4"/>
			<path class="st23" d="M1044.7,1115.6c0,5.9,1.5,11.4,4,16.3c0.2,0.3,0.3,0.6,0.5,0.9c6,10.6,17.3,17.7,30.3,17.7
				c19.3,0,34.9-15.6,34.9-34.9c0-14.5-8.9-27-21.5-32.2c-0.1-0.1-0.3-0.1-0.4-0.2c-4-1.6-8.4-2.5-13-2.5
				C1060.3,1080.7,1044.7,1096.3,1044.7,1115.6z"/>
			<path class="st15" d="M828.9,977.8c0,0-26.7,59.4,32.9,124H724.3L743,960.4L828.9,977.8z"/>
			<path class="st15" d="M559.3,1123.5c0,2.5,1,4.8,2.7,6.4c1.6,1.6,3.9,2.7,6.4,2.7h219.5c5,0,9.1-4.1,9.1-9.1L794,979.9l-73.9-4.5
				C621.6,975.4,559.3,1025,559.3,1123.5z"/>
			<path class="st21" d="M1008.3,820.3c0,2.2,0.2,4.4,0.6,6.5c3.1,16.4,17.5,28.9,34.8,28.9v-70.8
				C1024.2,784.9,1008.3,800.8,1008.3,820.3z"/>
			<g>
				<path class="st24" d="M952.4,825.1c0.1,0,1.6-0.3,1.7-0.3l39-10.8c1.5-0.3,2.6-2.2,2.4-4.3c-0.2-2.1-1.7-3.5-3.2-3.2l-39.1,7.6
					c-1.5,0.3-2.8,2.7-3.1,4.7C949.5,822.2,951.1,825.1,952.4,825.1z"/>
			</g>
			<path class="st15" d="M1046.6,1038.3c-0.4,2.2-0.7,4.3-1,6.3c0.1,0,0.2-0.1,0.3-0.1c10.2-4.9,21.7-7.6,33.7-7.6
				c40.8,0,74.5,31.2,78.3,71c0.4,4.3,4,7.7,8.4,7.7h0.4c8.1,0,14.3-7.2,13.1-15.1c-6.2-41.3-37.5-74.6-77.8-83.7
				c-0.1,0-0.3-0.1-0.4-0.1l-64-135.1c-6-8.3-13.8-14.7-22.6-18.8c10.9,18.4,41,77.1,34,156.2c-0.5,5.4-1.1,11-2,16.6
				C1046.9,1036.5,1046.7,1037.4,1046.6,1038.3z"/>
			<path class="st25" d="M681.9,949.7V971c0,3.7,3,6.7,6.7,6.7h140.3c3.7,0,6.7-3,6.7-6.7v-21.3c0-3.7-3-6.7-6.7-6.7H688.6
				C684.9,943,681.9,946,681.9,949.7z"/>
			<path class="st21" d="M576.7,1132.6h211.2c0,0,12.9-78.2-34.6-104.6c-11.4-6.4-25.8-8.5-41.5-7
				C662.3,1025.8,600.2,1067.6,576.7,1132.6z"/>
			<path class="st15" d="M1008.9,826.8c3.1,16.4,17.5,28.9,34.8,28.9V836C1033.4,836.4,1018.4,835.3,1008.9,826.8z"/>
			<path class="st26" d="M726.3,977.8h102.6c3.7,0,6.7-3,6.7-6.7v-21.3c0-3.7-3-6.7-6.7-6.7h-70.3
				C752.5,951.6,741.1,966.2,726.3,977.8z"/>
			<path class="st25" d="M576.7,1132.6h87.7c52.9-26.9,49.7-91.7,47.3-111.6C662.3,1025.8,600.2,1067.6,576.7,1132.6z"/>
			<path class="st15" d="M1049.3,1132.8c6,10.6,17.3,17.7,30.3,17.7c19.3,0,34.9-15.6,34.9-34.9c0-14.5-8.9-27-21.5-32.2
				C1090,1098.5,1080.2,1126.5,1049.3,1132.8z"/>
			<path class="st21" d="M1046.6,1038.3c-0.4,2.2-0.7,4.3-1,6.3c0.1,0,0.2-0.1,0.3-0.1c12.6-11.7,39.3-22,56.1-27.7
				c-0.1,0-0.3-0.1-0.4-0.1l-64-135.1c-6-8.3-13.8-14.7-22.6-18.8c10.9,18.4,41,77.1,34,156.2c-0.5,5.4-1.1,11-2,16.6
				C1046.9,1036.5,1046.7,1037.4,1046.6,1038.3z"/>
			<linearGradient id="SVGID_6_" gradientUnits="userSpaceOnUse" x1="596.6166" y1="859.2719" x2="705.9562" y2="859.2719">
				<stop  offset="0" style="stop-color:#D61669"/>
				<stop  offset="0.6157" style="stop-color:#EF4445"/>
				<stop  offset="1" style="stop-color:#FC5C33"/>
			</linearGradient>
			<rect x="596.6" y="814.2" class="st27" width="109.3" height="90.2"/>
			<linearGradient id="SVGID_7_" gradientUnits="userSpaceOnUse" x1="541.949" y1="859.2744" x2="651.2861" y2="859.2744">
				<stop  offset="0" style="stop-color:#D61669"/>
				<stop  offset="0.6157" style="stop-color:#EF4445"/>
				<stop  offset="1" style="stop-color:#FC5C33"/>
			</linearGradient>
			<rect x="541.9" y="814.2" class="st28" width="109.3" height="90.2"/>
			<polygon points="705.9,881.5 688.6,881.5 690.1,876.6 688.6,873.1 705.9,873.1 			"/>
			<linearGradient id="SVGID_8_" gradientUnits="userSpaceOnUse" x1="541.949" y1="859.2744" x2="651.2861" y2="859.2744">
				<stop  offset="0" style="stop-color:#D61669"/>
				<stop  offset="0.6157" style="stop-color:#EF4445"/>
				<stop  offset="1" style="stop-color:#FC5C33"/>
			</linearGradient>
			<polygon class="st29" points="541.9,874 541.9,904.4 651.3,904.4 651.3,814.2 631.9,814.2 			"/>
			<polygon class="st30" points="541.9,834.4 559.3,834.4 557.7,829.5 559.3,826.1 541.9,826.1 			"/>
			<polygon points="541.9,889.8 559.3,889.8 557.7,885 559.3,881.5 541.9,881.5 			"/>
			<path class="st31" d="M816.7,732.5c-18.9,7.7-53.5-8.7-53.5-8.7s11.5-10.2,13.7-29.4c0.1-1,0.2-2,0.3-3c2-0.7,5.8-2,9.8-3.5
				l16.7,11.4c0,0,0.4,5.6-0.2,15.4c-0.1,1.7-0.2,3.6-0.4,5.5C811.8,724.2,816.7,732.5,816.7,732.5z"/>
			<path class="st32" d="M803.7,699.3c0,0,0.4,5.6-0.2,15.4c-15.2-2.8-23.6-15.1-26.6-20.4c0.1-1,0.2-2,0.3-3c2-0.7,5.8-2,9.8-3.5
				L803.7,699.3z"/>
			<path class="st31" d="M806.8,707.5c0,0-32.6-1.1-31.6-21.3c1-20.3-2.6-34,18.3-34.2c20.8-0.2,24.5,7.7,25.8,14.6
				C820.6,673.4,815.3,707.2,806.8,707.5z"/>
			<path d="M776.9,694.4c0,0-1.3-6.7,2.4-11.2c0,0-2.4-6.6,0.2-8.1c2.5-1.5,3.9,4.2,5,3.1c1.1-1.1,6-6.1,7.6-12.7
				c1.5-6.6,24.1-1.9,26.8-1.1c2.7,0.8-15-32.1-34-24.3c-19.1,7.8-20.5,17.6-18.3,25.5C768.7,673.6,768.5,692.7,776.9,694.4z"/>
			<path d="M745.8,887.8c0,0,2.3,39.8,11.3,51.1c9.1,11.3,182.6,6.9,182.6,6.9s0.8-25.5-6-32.1c-6.8-6.6-38.5-25.4-139.7-36.1
				L745.8,887.8z"/>
			<linearGradient id="SVGID_9_" gradientUnits="userSpaceOnUse" x1="742.9594" y1="808.0639" x2="845.0679" y2="808.0639">
				<stop  offset="0" style="stop-color:#A30A7C"/>
				<stop  offset="0.6549" style="stop-color:#D541A5"/>
				<stop  offset="1" style="stop-color:#EB59B7"/>
			</linearGradient>
			<path class="st33" d="M743.5,804.5c2.8,34.2-0.9,86.1,2.3,95.1c2.8,7.8,34.3,3.1,46.9,0.6c4.7-1,10.3-2.3,16.1-4
				c16.3-4.5,34-11,35.9-15.8c0.1-0.2,0.1-0.4,0.2-0.6c0.2-0.7,0.1-1.4,0-2c-0.5-1.8-1.9-3.7-2.8-7.1c-0.3-1.2-0.5-2.5-0.6-4.1
				c-0.3-6.2-0.3-13.4-0.5-21.1c0-0.7,0-1.4-0.1-2.1c0-1,0-2-0.1-3l0-0.4c0-0.2,0-0.4,0-0.5c-0.3-9.5-0.8-19.6-1.5-29.5
				c-0.2-3.1-0.4-6.2-0.7-9.2c-0.1-1.1-0.2-2.2-0.2-3.2c-0.2-2-0.3-4-0.5-5.9c-1.4-15.3-3.3-28.9-5.9-37.5
				c-4.1-14-13.3-23.2-21.6-29.9l-6-4.6c-6.7,1.3-14.6,0.4-21.8-2.6c-7.7-3.3-10.4-5.7-11.8-4.8C753,724.8,740.1,762.8,743.5,804.5z
				"/>
			<g>
				<path class="st34" d="M877.3,1076.6c0,0,1.5,24.8,6.3,25.1c0.6,0,24.3,0,24.3,0l30.2-0.2c0,0-0.2-7.3-9-8.8
					c-8.8-1.5-23.6-7.7-28.9-19.4C894.5,1061.1,877.3,1076.6,877.3,1076.6z"/>
			</g>
			<path d="M871,1078.3c0,0,5.8,4.5,17.7,5.1c3.1,0.1,5.9,0,8.3-0.3c6.6-0.8,10.7-2.7,10.7-2.7l32-134.5c0,0-34.7-30.3-52.8-11.5
				c-2.4,2.5-4.4,6.7-6.1,12.3C869.3,983.7,871,1078.3,871,1078.3z"/>
			<path class="st31" d="M928.8,810.3c0,0,9.8,0.8,12.3,0c2.5-0.8,14.3-7.8,18.6-6.3c4.3,1.5,15.1,12.6,12.3,17.6c0,0-5,0.1-9.7-4.7
				c-4.7-4.8-9.7-1.5-9.2-0.9c0.5,0.6,7.8,3.5,6.5,4.8c-1.3,1.3-10.8,1-13.1-0.5c-2.3-1.5-19.1,0.4-19.1,0.4L928.8,810.3z"/>
			<linearGradient id="SVGID_10_" gradientUnits="userSpaceOnUse" x1="773.1251" y1="780.7067" x2="943.6951" y2="780.7067">
				<stop  offset="0" style="stop-color:#A30A7C"/>
				<stop  offset="0.6549" style="stop-color:#D541A5"/>
				<stop  offset="1" style="stop-color:#EB59B7"/>
			</linearGradient>
			<path class="st35" d="M794,735.2c0,0,60.8,51.9,76.9,56.9c16,5,72.6,16,72.6,16s1.6,13.4-3.7,18.4c0,0-72.7-4.2-81.8-6.1
				c-9.1-1.9-76.5-36.9-82-39.5C770.4,778.2,771.3,730.9,794,735.2z"/>
			<path d="M871,1078.3c0,0,5.8,4.5,17.7,5.1c3.1,0.1,5.9,0,8.3-0.3c-18.3-23.1-16.2-136.4-16.2-136.4
				C869.3,983.7,871,1078.3,871,1078.3z"/>
			<path class="st15" d="M761.7,667v0.3c0,0.9,0.4,1.6,1,1.9c0.2,0.1,0.4,0.2,0.6,0.2h77.1c0.9,0,1.5-0.9,1.5-2.1V667
				c0-1.1-0.7-2.1-1.5-2.1l-17.2-2.2c-1.6-12.8-10.1-23.2-21.3-26.8c0,0,0,0,0,0c-2.7-0.9-5.6-1.4-8.6-1.4
				c-15.8,0-28.8,13.1-30.2,29.7c0,0.2,0,0.4,0,0.6c-0.2,0.1-0.3,0.2-0.3,0.2C762.1,665.4,761.7,666.1,761.7,667z"/>
			<path class="st21" d="M787.8,664.3c-5.7-30.4,13.4-28.5,14-28.4c-2.7-0.9-5.6-1.4-8.6-1.4c-15.8,0-28.8,13.1-30.2,29.7H787.8z"/>
		</g>
		<linearGradient id="SVGID_11_" gradientUnits="userSpaceOnUse" x1="0" y1="1195" x2="1200" y2="1195">
			<stop  offset="0" style="stop-color:#89CEF9"/>
			<stop  offset="2.709514e-02" style="stop-color:#86CCF7"/>
			<stop  offset="0.6865" style="stop-color:#49A7CD"/>
			<stop  offset="1" style="stop-color:#3199BC"/>
		</linearGradient>
		<rect y="1190" class="st36" width="1200" height="10"/>
	</g>
</g>
</svg>
