<svg xmlns="http://www.w3.org/2000/svg" xmlns:xlink="http://www.w3.org/1999/xlink" width="1200" height="1200" viewBox="0 0 1200 1200">
  <defs>
    <filter id="Rectangle_1" x="206" y="104" width="548" height="925" filterUnits="userSpaceOnUse">
      <feOffset dx="1" dy="1" input="SourceAlpha"/>
      <feGaussianBlur stdDeviation="23" result="blur"/>
      <feFlood flood-color="#979797" flood-opacity="0.161"/>
      <feComposite operator="in" in2="blur"/>
      <feComposite in="SourceGraphic"/>
    </filter>
    <linearGradient id="linear-gradient" x1="0.5" x2="0.5" y2="1" gradientUnits="objectBoundingBox">
      <stop offset="0" stop-color="#fff"/>
      <stop offset="1" stop-color="#f5c8c8"/>
    </linearGradient>
    <filter id="Rectangle_9" x="275" y="294" width="239" height="239" filterUnits="userSpaceOnUse">
      <feOffset dx="1" dy="1" input="SourceAlpha"/>
      <feGaussianBlur stdDeviation="18" result="blur-2"/>
      <feFlood flood-color="#888" flood-opacity="0.161"/>
      <feComposite operator="in" in2="blur-2"/>
      <feComposite in="SourceGraphic"/>
    </filter>
    <linearGradient id="linear-gradient-2" x1="0.5" x2="0.5" y2="1" gradientUnits="objectBoundingBox">
      <stop offset="0" stop-color="#fff"/>
      <stop offset="1" stop-color="#cffcbc"/>
    </linearGradient>
    <filter id="Rectangle_12" x="275" y="518" width="239" height="239" filterUnits="userSpaceOnUse">
      <feOffset dx="1" dy="1" input="SourceAlpha"/>
      <feGaussianBlur stdDeviation="18" result="blur-3"/>
      <feFlood flood-color="#888" flood-opacity="0.161"/>
      <feComposite operator="in" in2="blur-3"/>
      <feComposite in="SourceGraphic"/>
    </filter>
    <linearGradient id="linear-gradient-3" x1="0.5" x2="0.5" y2="1" gradientUnits="objectBoundingBox">
      <stop offset="0" stop-color="#fff"/>
      <stop offset="1" stop-color="#c5c4f8"/>
    </linearGradient>
    <filter id="Rectangle_10" x="447" y="294" width="239" height="239" filterUnits="userSpaceOnUse">
      <feOffset dx="1" dy="1" input="SourceAlpha"/>
      <feGaussianBlur stdDeviation="18" result="blur-4"/>
      <feFlood flood-color="#888" flood-opacity="0.161"/>
      <feComposite operator="in" in2="blur-4"/>
      <feComposite in="SourceGraphic"/>
    </filter>
    <linearGradient id="linear-gradient-4" x1="0.5" x2="0.5" y2="1" gradientUnits="objectBoundingBox">
      <stop offset="0" stop-color="#fff"/>
      <stop offset="1" stop-color="#fca9f7"/>
    </linearGradient>
    <filter id="Rectangle_11" x="447" y="518" width="239" height="239" filterUnits="userSpaceOnUse">
      <feOffset dx="1" dy="1" input="SourceAlpha"/>
      <feGaussianBlur stdDeviation="18" result="blur-5"/>
      <feFlood flood-color="#888" flood-opacity="0.161"/>
      <feComposite operator="in" in2="blur-5"/>
      <feComposite in="SourceGraphic"/>
    </filter>
    <linearGradient id="linear-gradient-5" x1="8.319" y1="0.411" x2="8.552" y2="2.003" gradientUnits="objectBoundingBox">
      <stop offset="0" stop-color="#0000ba"/>
      <stop offset="1" stop-color="#965cf8"/>
    </linearGradient>
    <clipPath id="clip-Artboard_1">
      <rect width="1200" height="1200"/>
    </clipPath>
  </defs>
  <g id="Artboard_1" data-name="Artboard – 1" clip-path="url(#clip-Artboard_1)">
    <rect width="1200" height="1200" fill="#fff"/>
    <path id="Path_153" data-name="Path 153" d="M186.941,370.644c45.284-56.729,129.867-158.153,175.151-214.88,21.846-27.367,47.044-56.779,83.756-63.775,37.969-7.237,75.863,12.161,105.474,34.669,59.819,45.468,103.069,105.593,145.415,164.778a694.624,694.624,0,0,1,71.72-117.849c11.1-14.741,28.282-30.953,47.284-25.86,7.657,2.052,13.641,7.309,19.2,12.455a731.849,731.849,0,0,1,96.769,109.177c46.483-49.243,93-90.727,144.832-135.472,14.343-12.379,30.933-25.352,50.842-25.386,19.021-.03,35.273,11.851,48.71,23.926,39.276,35.292,69.881,77.432,100.184,119.236,36.887,50.883,73.131,110.174,110.018,161.058l.641,200.228h-1200Z" transform="translate(-186.941 411.054)" fill="#e9fbff" style="mix-blend-mode: multiply;isolation: isolate"/>
    <g id="Group_46" data-name="Group 46">
      <path id="Path_159" data-name="Path 159" d="M189.627,498.635H490.96l-9.568-9.568a65.662,65.662,0,0,0-46.432-19.233h0A65.663,65.663,0,0,1,388.529,450.6l-7.81-7.81a65.663,65.663,0,0,0-46.432-19.233H320.244a65.663,65.663,0,0,0-46.432,19.233l-9.573,9.573a35,35,0,0,1-24.75,10.25h0a35.013,35.013,0,0,0-25.067,10.572Z" transform="translate(470.537 -86.135)" fill="#e9fbff"/>
      <path id="Path_118" data-name="Path 118" d="M43.09,209c-17,2.429-64.372,23.077-47.368,41.3s97.391,7.985,161.943,7.287c74.9-.809,124.695,0,125.909,18.219S219.2,303.736,136.611,306.165C78.324,307.88-12.78,315.882-13.995,351.1s127.529,38.866,221.051,30.364S605.434,374.181,719.6,375.4s355.868-3.644,398.378-7.287,68.016-20.648,58.3-34.008-89.878,1.215-100.809-10.931,6.073-34.008,44.939-36.437S1186,284.3,1186,284.3V213.858Z" transform="translate(14.004 815)" fill="#dfffe6"/>
      <g id="Group_6" data-name="Group 6" transform="translate(963.156 979.213)">
        <path id="Path_16" data-name="Path 16" d="M973.1,1338.309c0-.591.032-1.173.087-1.747l-75.954-12.74.4-2.379,75.955,12.742a17.782,17.782,0,0,1,6.138-9.719l-46.1-65.857,1.977-1.383,44.231,63.187-23.853-71.56,2.287-.764,24.755,74.266a17.674,17.674,0,0,1,6.66-1.788v-79.331h2.412v79.331a17.743,17.743,0,0,1,3.989.728l24.621-68.609,2.27.815-23.431,65.293,47.11-54.232,1.821,1.581-49.1,56.527a17.858,17.858,0,0,1,6.357,5.834l2.777-.478,68.662-34.808,1.09,2.151-61.68,31.268,68.769-11.826.408,2.377-76.481,13.153-2.008,1.017a17.727,17.727,0,0,1,1.409,6.951c0,.475-.023.944-.06,1.41l75.907,11.264-.354,2.386-75.9-11.263a17.883,17.883,0,0,1-.594,2.1l69.311,29.775-.951,2.217-69.314-29.775c-.013.024-.025.048-.038.073l54.4,54.878-1.712,1.7-53.987-54.458a17.891,17.891,0,0,1-3.958,4.025l39.922,62.8-2.035,1.294-39.92-62.8c-.351.191-.71.367-1.074.535,9.974,26.259,28.237,74.365,28.685,75.708l-2.288.763c-.4-1.189-16.483-43.578-28.651-75.611a17.8,17.8,0,0,1-5.176.767c-.3,0-.59-.009-.883-.022l6.305,76.195-2.4.2-6.347-76.686a17.631,17.631,0,0,1-2.241-.579c-12.548,30.858-29.022,71.428-29.464,72.725l-2.287-.763c.449-1.347,19.158-47.392,29.517-72.869-.224-.109-.446-.221-.664-.34l-42.367,67-2.037-1.29,42.369-67a17.847,17.847,0,0,1-4.311-4.51l-62.882,43.6-1.373-1.982,63.051-43.722A17.723,17.723,0,0,1,973.1,1338.309Z" transform="translate(-886.578 -1234)" fill="#2c3a64"/>
        <g id="Group_4" data-name="Group 4">
          <path id="Path_17" data-name="Path 17" d="M983.827,1436.279a104.263,104.263,0,1,0-52.772-14.316A104.425,104.425,0,0,0,983.827,1436.279Zm0-194.146a89.863,89.863,0,1,1-89.837,89.838A89.939,89.939,0,0,1,983.827,1242.133Z" transform="translate(-879.519 -1227.662)" fill="#2c3a64"/>
        </g>
        <g id="Group_5" data-name="Group 5" transform="translate(11.632 13.048)">
          <path id="Path_18" data-name="Path 18" d="M996.213,1435.895a91.878,91.878,0,1,0-91.879-91.879A91.982,91.982,0,0,0,996.213,1435.895Zm0-180.047a88.168,88.168,0,1,1-88.168,88.168A88.269,88.269,0,0,1,996.213,1255.848Z" transform="translate(-904.334 -1252.138)" fill="#b84c42"/>
        </g>
      </g>
      <g id="Group_9" data-name="Group 9" transform="translate(623 979.213)">
        <path id="Path_19" data-name="Path 19" d="M1611.168,1338.309q0-.886.086-1.747l-75.955-12.74.4-2.379,75.955,12.742a17.786,17.786,0,0,1,6.137-9.719l-46.1-65.857,1.976-1.383,44.23,63.187-23.854-71.56,2.288-.764,24.757,74.266a17.661,17.661,0,0,1,6.659-1.788v-79.331h2.412v79.331a17.748,17.748,0,0,1,3.988.728l24.621-68.609,2.27.815-23.43,65.293,47.111-54.232,1.821,1.581-49.1,56.527a17.852,17.852,0,0,1,6.356,5.834l2.778-.478,68.662-34.808,1.09,2.151-61.679,31.268,68.768-11.826.409,2.377-76.481,13.153-2.007,1.017a17.736,17.736,0,0,1,1.41,6.951c0,.475-.025.944-.06,1.41l75.907,11.264-.355,2.386-75.9-11.263a17.56,17.56,0,0,1-.594,2.1l69.311,29.775-.952,2.217-69.315-29.775c-.012.024-.024.048-.037.073l54.4,54.878-1.712,1.7-53.988-54.458a17.882,17.882,0,0,1-3.958,4.025l39.922,62.8-2.035,1.294-39.921-62.8c-.35.191-.709.367-1.074.535,9.974,26.259,28.238,74.365,28.686,75.708l-2.289.763c-.4-1.189-16.483-43.578-28.65-75.611a17.8,17.8,0,0,1-5.175.767c-.3,0-.591-.009-.884-.022l6.306,76.195-2.4.2-6.346-76.686a17.647,17.647,0,0,1-2.241-.579c-12.548,30.858-29.022,71.428-29.464,72.725l-2.287-.763c.448-1.347,19.157-47.392,29.516-72.869-.223-.109-.445-.221-.663-.34l-42.366,67-2.039-1.29,42.37-67a17.858,17.858,0,0,1-4.311-4.51l-62.88,43.6-1.375-1.982,63.053-43.722A17.7,17.7,0,0,1,1611.168,1338.309Z" transform="translate(-1524.646 -1234)" fill="#2c3a64"/>
        <g id="Group_7" data-name="Group 7">
          <path id="Path_20" data-name="Path 20" d="M1621.9,1436.279a104.262,104.262,0,1,0-52.773-14.316A104.425,104.425,0,0,0,1621.9,1436.279Zm0-194.146a89.862,89.862,0,1,1-89.838,89.838A89.939,89.939,0,0,1,1621.9,1242.133Z" transform="translate(-1517.588 -1227.662)" fill="#2c3a64"/>
        </g>
        <g id="Group_8" data-name="Group 8" transform="translate(11.632 13.048)">
          <path id="Path_21" data-name="Path 21" d="M1634.281,1435.895a91.878,91.878,0,1,0-91.878-91.879A91.982,91.982,0,0,0,1634.281,1435.895Zm0-180.047a88.168,88.168,0,1,1-88.169,88.168A88.268,88.268,0,0,1,1634.281,1255.848Z" transform="translate(-1542.403 -1252.138)" fill="#b84c42"/>
        </g>
      </g>
      <path id="Path_22" data-name="Path 22" d="M1562.079,1071.828a10.481,10.481,0,0,1,9.109-6.577c45.029-103.448,45.513-104.259,46.193-105.37l6.511,12.9c.346-.565-24.584,54.854-42.377,95.476l2.541,1.017-63.829,137a5.52,5.52,0,0,1-7.09,2.781l-.1-.041a5.522,5.522,0,0,1-3.039-7.165Z" transform="translate(-788.021 -123.422)" fill="#b84c42"/>
      <path id="Path_23" data-name="Path 23" d="M1329.418,531.1c.094-1.262,1.581-14.839,22.344-14.773,0,0-10.241.833-12.172,5.25,0,0,7.15-5.279,12.738-3.284s8.537,12.023,8.449,15.284-3.625,13.645-7.246,14.4a10.953,10.953,0,0,1-4.346-.158,48.939,48.939,0,0,1,2.6,5.077c7.638,17.295-1.519,33.574-8.455,31.478-4.448-1.344-6.007,6.273-6.007,6.273L1295,553.681S1312.275,521.11,1329.418,531.1Z" transform="translate(-410.501 83.672)"/>
      <path id="Path_24" data-name="Path 24" d="M1287.458,963.036s-7.8,16.216-17.649,38.691c-11.052,25.2-24.685,58.274-32.806,85.164-4.294,14.223-7.049,26.712-7.057,35.4,0,2.98,11.489,15.083,14.805,19.7,20.942,29.143,49.542,68.061,49.542,68.061l7.808-1.959s-10.935-48.677-26.868-72.977c-3.133-4.778-11.959-10.595-11.538-11.12a.032.032,0,0,1,.016-.016c1.375-1.723,4.806-6.044,9.485-12.2,12.915-16.993,35.335-47.963,50.351-76.773q1.4-2.695,2.717-5.363c7.917-16.079,13.14-31.148,12.63-42.313Z" transform="translate(-353.969 -124.895)" fill="#f99ba4"/>
      <path id="Path_25" data-name="Path 25" d="M1319.546,1410.3l-5.372,3.4c-1.98.856-3.637,1.175-5.635,2.1-3.036,1.406-3.6,3.372-3.688,3.8a.754.754,0,0,0-.017.085l-22.822,14.441c-1.094-.456-1.744-2.7-2.088-4.444a3.839,3.839,0,0,1,.9-3.305c1.977-2.232,6.354-5.875,8.22-12.6,1.053-3.776,6.7-15.678,6.7-15.678l.043-.043c.21-.127,1.385-.447,7.953.458,3.394.465,4.319-6.421,4.319-6.421a6.357,6.357,0,0,1,2.3.895,6.708,6.708,0,0,1,2.708,3.193c.96,2.272,4.477,5.4,6.989,7.429,1.522,1.229,2.674,2.056,2.674,2.056S1323.8,1406.8,1319.546,1410.3Z" transform="translate(-364.492 -325.223)"/>
      <path id="Path_26" data-name="Path 26" d="M1317.891,1392.992c-.711,1.716-2.291,5.209-3.94,6.58-2.223,1.851-10.672-1.468-10.672-1.468l.043-.043c.21-.127,1.385-.447,7.953.458,3.394.465,4.319-6.421,4.319-6.421A6.356,6.356,0,0,1,1317.891,1392.992Z" transform="translate(-372.026 -325.223)" fill="#900"/>
      <path id="Path_27" data-name="Path 27" d="M1319.471,1420.387l-5.372,3.4c-1.98.856-3.637,1.175-5.635,2.1-3.036,1.406-3.6,3.372-3.688,3.8a.765.765,0,0,0-.017.085l-22.822,14.441c-1.094-.456-1.744-2.7-2.088-4.444.3-1.054,2.582,2.115,3.3,2.4s18.739-11.589,19.307-13.021,2.88-4.771,7.949-6.5c4.413-1.511,8.575-7.432,9.578-8.94,1.522,1.229,2.674,2.056,2.674,2.056S1323.726,1416.884,1319.471,1420.387Z" transform="translate(-364.417 -335.31)" fill="#900"/>
      <path id="Path_28" data-name="Path 28" d="M1066.589,1109.649l8.665-19.56,137.216,92.752L1243,1087.336l10.337,3.3-31.5,98.534,114.237,77.236a2.482,2.482,0,0,1-1.175,4.528l-137.709,11.974-.939-10.811,114.179-9.928-92.912-59.484-25.476,79.686-10.337-3.3,2.917-9.122-6.931,4.47Zm119.071,157.046,22.4-70.062L1097.9,1126.1Z" transform="translate(-265.125 -182.931)" fill="#b4150b"/>
      <path id="Path_29" data-name="Path 29" d="M1423.648,921.131a13.588,13.588,0,0,1,26.6,3.241l60.565,15.2a13.594,13.594,0,1,1-1.859,15.86l-68.85-17.279a13.59,13.59,0,0,1-16.454-17.02Z" transform="translate(-652.394 -100.791)" fill="#033093"/>
      <path id="Path_30" data-name="Path 30" d="M1403,1389.977l-20.365,11.758a5.04,5.04,0,0,0-1.839,6.864h0a5.04,5.04,0,0,0,6.864,1.839l20.365-11.757a5.04,5.04,0,0,0,1.838-6.864h0A5.038,5.038,0,0,0,1403,1389.977Z" transform="translate(-505.632 -323.921)" fill="#415da5"/>
      <g id="Group_10" data-name="Group 10" transform="translate(893.33 1071.583)">
        <path id="Path_31" data-name="Path 31" d="M1349.214,1402.99l25.677,28.413,2.37-2.06-25.678-28.412Z" transform="translate(-1349.214 -1400.931)" fill="#415da5"/>
      </g>
      <path id="Path_32" data-name="Path 32" d="M979.487,1183.073a6.594,6.594,0,0,1,8.407-4.036l6.015,2.113a18.5,18.5,0,0,0,14.385-.886c21.923-10.927,48.6-16.457,79.5-16.457.37,0,.744,0,1.117,0,13.79.059,38.476,3.438,49.043,5.012a5.885,5.885,0,0,1,5.019,5.824v3.815a1.733,1.733,0,0,1-2.088,1.695l-.032-.007c-19.533-4.1-87.055-15.181-135.859,14.305a5.427,5.427,0,0,1-4.605.475l-18.291-6.427A4.257,4.257,0,0,1,979.487,1183.073Z" transform="translate(-24.361 -218.635)" fill="#b84c42"/>
      <path id="Path_33" data-name="Path 33" d="M1237.29,1074.433s1.96-8.893-3.618-9.5-25.926,3.768-31.353,3.165-33.765-5.275-38.738-.452-2.864,9.045,7.084,9.948,23.213,2.564,26.981,5.729S1228.7,1095.838,1237.29,1074.433Z" transform="translate(-215.906 -172.446)" fill="#0a379b"/>
      <path id="Path_34" data-name="Path 34" d="M1351.886,1426.33a27.132,27.132,0,1,0-27.132,27.133A27.132,27.132,0,0,0,1351.886,1426.33Z" transform="translate(-403.006 -328.539)" fill="#415da5"/>
      <path id="Path_35" data-name="Path 35" d="M1384.17,833.765s6.693-2.194,11.958-1.975,12.717-4.659,12.717-4.659,27.329-17.843,33.241-23.937c12.684-13.073,21.143-68.682,35.834-75.281,0,0,14.743,8.3,13.008,29.308s-21.018,54.135-35.678,62.355c-10.752,6.029-40.342,15.189-44.663,16.512-4.869,1.871-11.017,6.511-12.812,7.111-1.976.657-7.206-1.213-10.2,0-10.929,4.415-11.08.986-11.08.986A11.644,11.644,0,0,1,1384.17,833.765Z" transform="translate(-584.235 -15.117)" fill="#fdaeb3"/>
      <path id="Path_36" data-name="Path 36" d="M1208.74,737.9a54.251,54.251,0,0,0,3.461,12.689c1.284,3.247,2.769,6.342,4.3,9.565,4.477,9.476,15.027,14.142,15.384,32.36.121,6.274,5.354,20.4,2.392,30.64-14.585,50.464,80.854,4.577,75.685-8.829-10.272-26.641-24.944-42.042-24.635-63.986a.9.9,0,0,1,.016-.169c.094-1.062.238-3.911.4-7.676.4-9.209.917-23.9,1.106-31.333.006-.175.007-.344.014-.509.076-3.185.173-5.489.3-6.094-7.1-30.192-23.421-30.321-28.994-30.228-2.065.035-4.234.17-6.016.32-3.5-1.992-9.561-11.28-12.7-26.552l-1.271.541-21.4,9.1s1.979,6.922,3.38,13.535c1.1,5.171,1.831,10.152,1.006,11.511-1.684.611-2.69,1-2.69,1a.083.083,0,0,1-.005.021C1218.088,684.648,1205.323,713.884,1208.74,737.9Z" transform="translate(-313.589 22.15)" fill="#fdaeb3"/>
      <path id="Path_37" data-name="Path 37" d="M1253.972,833.26c1.284,3.247,2.769,6.342,4.3,9.565,4.477,9.476,15.028,14.142,15.384,32.36.322.034.651.062.984.09,39.137,3.059,52.474-42.434,52.474-42.434.093-1.062.238-3.911.4-7.676l-70.625.116A71.312,71.312,0,0,0,1253.972,833.26Z" transform="translate(-355.36 -60.524)" fill="#fdaeb3"/>
      <path id="Path_38" data-name="Path 38" d="M1343.2,658.21s1.979,6.92,3.38,13.535C1359,668.777,1363.218,656,1364.6,649.114Z" transform="translate(-440.017 21.674)" fill="#f9a7af"/>
      <path id="Path_39" data-name="Path 39" d="M1251.871,730.052c.455-1.211,1.587-3.746,2.806-6.4a29.292,29.292,0,0,1,15.287-14.8c1.779-.746,3.8-1.528,6.083-2.327a.087.087,0,0,1-.006.021c-.229.723-6.252,19.741-4.472,23.913,1.814,4.248,39.566-7.825,41.715-10.821,1.724-2.4,2.26-15.441,2.4-20.528.036-1.261.05-2.035.05-2.035s13.979-1.364,21.674,2.1a60.294,60.294,0,0,0-4.75,13.942c-.133.7-.25,1.4-.344,2.1a28.4,28.4,0,0,0-.278,4.435c.078,3.7,3.425,6.705,7.917,10.247,1.4,1.1,2.918,2.258,4.479,3.5-.007.165-.008.334-.014.509-.266,10.477-1.182,35.345-1.506,39.009-.007.058-.01.111-.016.169a235.091,235.091,0,0,0-37.951,1.235,128.171,128.171,0,0,0-15.092,2.728,65.82,65.82,0,0,0-15.782,5.853c-.189.1-.379.209-.563.313,0,0-6.224-13.51-13.007-29.682-.244-.587-.465-1.17-.661-1.754-2.157-6.442-1.474-12.957-.437-18.756A13.024,13.024,0,0,0,1251.871,730.052Z" transform="translate(-371.164 -0.592)" fill="#0000ba"/>
      <path id="Path_40" data-name="Path 40" d="M1357.011,632.976s29.66-5.7,25.823-24.119-2.591-31.554-21.689-28.691-21.3,10.654-21.519,17.112S1349.2,633.985,1357.011,632.976Z" transform="translate(-456.686 54.049)" fill="#fdaeb3"/>
      <path id="Path_41" data-name="Path 41" d="M1251.871,812.182c.184-.1.375-.209.563-.313a65.814,65.814,0,0,1,15.782-5.853,128.164,128.164,0,0,1,15.092-2.728,235.1,235.1,0,0,1,37.951-1.235c.006-.058.009-.111.016-.169.324-3.664,1.24-28.533,1.505-39.009.006-.175.007-.344.014-.509-1.561-1.246-3.078-2.4-4.479-3.5C1299.1,768.193,1262.935,788.282,1251.871,812.182Z" transform="translate(-349.524 -29.567)" fill="#0000ba"/>
      <path id="Path_42" data-name="Path 42" d="M1326.363,583.535c3.41-6.495,7.117-6,9.4-4.742,14.3-12.266,33.976-2.34,33.976-2.34,4.742,12.8,9.335,19.4,9.335,19.4s-4.689,4.456-17.778,3.863c-4-.181-7.95-2.169-11.514-4.836a70.443,70.443,0,0,0,14.9,12.01c-16.27-3.751-26.549-23.136-27.6-25.194-1.465,2-4.284,6.263-4.647,9.94-.491,5,.868,14.788-2.013,15.048C1330.423,606.68,1321.251,593.275,1326.363,583.535Z" transform="translate(-444.688 57.37)"/>
      <path id="Path_43" data-name="Path 43" d="M1353.143,963.084s22.062,34.973-5.2,54.209-119.051,28.436-114.55,32.167c13.766,11.411,26.272,28.964,25.615,134.058l-6.8,3.51s-65.454-142.392-61.067-159.36C1194.044,1016.435,1289.512,955.637,1353.143,963.084Z" transform="translate(-355.812 -124.624)" fill="#fdaeb3"/>
      <path id="Path_44" data-name="Path 44" d="M1235.852,1015.293s55.617-9.214,61.355-28.848c4.285-14.667,5.555-20.65-19.651-68.04,0,0-10.532,20.009-65.505,15.376,0,0,.281,2.6.281,6.108-.07,5.827-.984,14.111-5.547,16.5-.071.071-.212.071-.281.141-7.232,3.3-18.434,9.958-20.119,10.59C1186.315,967.118,1220.124,973.59,1235.852,1015.293Z" transform="translate(-291.444 -104.057)"/>
      <path id="Path_45" data-name="Path 45" d="M1261.5,975.2c24.5-7.231,52.8-8.916,52.8-9.126-20.782-5.337-36.017-7.372-47.25-7.372C1266.975,964.532,1266.062,972.816,1261.5,975.2Z" transform="translate(-346.158 -122.873)" fill="#141614"/>
      <path id="Path_46" data-name="Path 46" d="M1400.566,1369.691l-5.731,2.752c-2.064.62-3.749.746-5.841,1.435-3.178,1.044-3.966,2.931-4.105,3.344-.019.054-.025.083-.025.083L1360.518,1389c-1.033-.579-1.418-2.888-1.558-4.656a3.843,3.843,0,0,1,1.279-3.178c2.223-1.988,6.992-5.1,9.626-11.556,1.485-3.628,8.477-14.794,8.477-14.794l.047-.038c.223-.1,1.428-.284,7.847,1.379,3.316.855,5.034-5.877,5.034-5.877a6.355,6.355,0,0,1,2.179,1.156,6.7,6.7,0,0,1,2.319,3.487c.689,2.367,3.82,5.881,6.08,8.189,1.37,1.4,2.417,2.352,2.417,2.352S1405.2,1366.706,1400.566,1369.691Z" transform="translate(-488.154 -305.698)"/>
      <path id="Path_47" data-name="Path 47" d="M1394.488,1351.433c-.9,1.621-2.88,4.908-4.677,6.076-2.422,1.582-10.43-2.7-10.43-2.7l.047-.038c.223-.1,1.428-.284,7.847,1.379,3.316.855,5.034-5.877,5.034-5.877A6.355,6.355,0,0,1,1394.488,1351.433Z" transform="translate(-489.193 -305.698)" fill="#900"/>
      <path id="Path_48" data-name="Path 48" d="M1400.553,1380.929l-5.731,2.752c-2.064.62-3.749.746-5.841,1.434-3.178,1.044-3.966,2.931-4.105,3.344-.019.054-.025.083-.025.083l-24.344,11.694c-1.033-.579-1.418-2.888-1.558-4.656.424-1.012,2.319,2.4,3,2.764s19.957-9.335,20.688-10.691,3.415-4.405,8.651-5.538c4.558-.988,9.38-6.386,10.552-7.768,1.37,1.4,2.417,2.352,2.417,2.352S1405.186,1377.944,1400.553,1380.929Z" transform="translate(-488.141 -316.935)" fill="#900"/>
      <path id="Path_49" data-name="Path 49" d="M1255.016,830.483s6.692-2.2,11.958-1.976,12.717-4.659,12.717-4.659,51.125-24.429,56.766-33.409c7.345-11.7,19.705-51.2,30.765-73.706,5.271-10.729,10.25-17.6,14.255-15.76,0,0,10.007,3.161,9.416,23.479q-.042,1.7-.2,3.573c-1.943,23.531-26.573,79.189-42.841,88.655s-66.033,16.265-66.033,16.265c-5.228-.17-11.227,6.313-13.2,6.971s-7.786-.745-10.2,0c-11.049,3.407-11.08.987-11.08.987A11.641,11.641,0,0,1,1255.016,830.483Z" transform="translate(-415.229 -2.4)" fill="#f99ba4"/>
      <path id="Path_50" data-name="Path 50" d="M1247.393,716.571c13.645-3.218,23.67,7.719,23.67,7.719.591-20.319-9.416-23.479-9.416-23.479C1257.642,698.974,1246.452,702,1247.393,716.571Z" transform="translate(-295.4 -2.238)" fill="#0000ba"/>
      <g id="Group_36" data-name="Group 36" transform="translate(705.757 830.586)">
        <g id="Group_18" data-name="Group 18" transform="translate(20.695 18.783)">
          <path id="Path_51" data-name="Path 51" d="M1684.5,987.7a4.282,4.282,0,0,0-2.161-1.262,4.987,4.987,0,0,0-1.05-.135,2.578,2.578,0,0,1,.9-.831l-.006-.135a3.379,3.379,0,0,0-1.186.792,9.317,9.317,0,0,0-1.832-.853h0c-1.51-.5-3.512-.646-4.9,1.185a4.918,4.918,0,0,0-1.089,3.819c.435,2.588,3.25,4.8,7.7,5.4C1685.952,996.363,1687.077,990.475,1684.5,987.7Z" transform="translate(-1663.586 -984.493)" fill="#e58638"/>
          <path id="Path_52" data-name="Path 52" d="M1621.876,987.794a3.771,3.771,0,0,0-2.186.3,4.34,4.34,0,0,0-.8.478,2.262,2.262,0,0,1,.174-1.068l-.078-.091a2.99,2.99,0,0,0-.39,1.2,8.245,8.245,0,0,0-1.735.408h0a3.626,3.626,0,0,0-2.749,3.491,4.334,4.334,0,0,0,1.328,3.241c1.712,1.557,4.871,1.557,8.281-.45C1627.608,993.011,1625.177,988.315,1621.876,987.794Z" transform="translate(-1572.005 -985.647)" fill="#a03530"/>
          <g id="Group_12" data-name="Group 12" transform="translate(0)">
            <path id="Path_53" data-name="Path 53" d="M1697.486,995.794c-3.653-2.655-5.091-5.961-4.24-8.462a4.942,4.942,0,0,1,2.787-2.864c2.1-.961,3.8.127,4.905,1.288l0,0a9.147,9.147,0,0,1,1.374,1.913,5.011,5.011,0,0,1,.88.631,4.314,4.314,0,0,1,1.312,2.15C1705.464,994.143,1701.655,998.825,1697.486,995.794Z" transform="translate(-1693.009 -984.098)" fill="#c65447"/>
            <path id="Path_54" data-name="Path 54" d="M1697.486,998.626c-3.653-2.655-5.091-5.961-4.24-8.462,4.885,5.979,9.925,3.846,11.261,3.119C1705.464,996.975,1701.655,1001.657,1697.486,998.626Z" transform="translate(-1693.009 -986.93)" fill="#b24239"/>
            <g id="Group_11" data-name="Group 11" transform="translate(6.338 1.654)">
              <path id="Path_55" data-name="Path 55" d="M1699.491,990.765c-.025-.37-1.267-1.1-1.337-.863s-.969.951-.969.951a3.7,3.7,0,0,0-.035-1.386,6.2,6.2,0,0,0-1.539-1,4.131,4.131,0,0,1,1.743.318,4.026,4.026,0,0,0-.158-1.58l.009,0a9.142,9.142,0,0,1,1.374,1.913,5,5,0,0,1,.88.631A2.334,2.334,0,0,1,1699.491,990.765Z" transform="translate(-1695.611 -987.201)" fill="#a8d29f"/>
              <path id="Path_56" data-name="Path 56" d="M1695.081,990.267a5.571,5.571,0,0,1,2-.29l-.059.124a2.5,2.5,0,0,0-1.672.648S1694.839,990.572,1695.081,990.267Z" transform="translate(-1692.843 -988.479)" fill="#87af7d"/>
            </g>
          </g>
          <g id="Group_14" data-name="Group 14" transform="translate(51.095 2.597)">
            <path id="Path_57" data-name="Path 57" d="M1603.364,1000.457c-4.582,1.1-8.179,0-9.587-2.37a5.159,5.159,0,0,1-.384-4.153c.661-2.318,2.68-2.932,4.347-3.019h0a9.529,9.529,0,0,1,2.449.207,5.237,5.237,0,0,1,1.1-.271,4.5,4.5,0,0,1,2.6.417C1607.461,993.01,1608.594,999.2,1603.364,1000.457Z" transform="translate(-1593.136 -989.828)" fill="#f1a34f"/>
            <path id="Path_58" data-name="Path 58" d="M1602.722,1001.426c-4.581,1.1-8.166-.568-9.574-2.937,8.054.176,9.778-5.269,10.105-6.82C1606.832,993.411,1607.953,1000.172,1602.722,1001.426Z" transform="translate(-1592.507 -990.23)" fill="#e58638"/>
            <g id="Group_13" data-name="Group 13" transform="translate(4.523)">
              <path id="Path_59" data-name="Path 59" d="M1606.624,991.55c-.311-.231-1.731.262-1.591.477a5.223,5.223,0,0,1,.1,1.412s-.74-.827-1.123-.912a6.461,6.461,0,0,0-1.84.54c.232-.519,1.434-1.167,1.434-1.167a4.2,4.2,0,0,0-1.361-.946l.01,0a9.534,9.534,0,0,1,2.449.207,5.24,5.24,0,0,1,1.1-.271A2.45,2.45,0,0,1,1606.624,991.55Z" transform="translate(-1602.168 -989.865)" fill="#a8d29f"/>
              <path id="Path_60" data-name="Path 60" d="M1604.677,990.754s.668-1.528,1.127-1.784l.058.131a2.606,2.606,0,0,0-.619,1.766S1604.755,991.152,1604.677,990.754Z" transform="translate(-1602.743 -988.97)" fill="#87af7d"/>
            </g>
          </g>
          <g id="Group_17" data-name="Group 17" transform="translate(21.934 2.468)">
            <g id="Group_16" data-name="Group 16">
              <path id="Path_61" data-name="Path 61" d="M1657.982,1000.276c-4.606,1.1-8.221,0-9.636-2.383a5.185,5.185,0,0,1-.386-4.174c.665-2.331,2.694-2.947,4.37-3.034h0a9.571,9.571,0,0,1,2.461.208,5.269,5.269,0,0,1,1.1-.273,4.53,4.53,0,0,1,2.609.418C1662.1,992.789,1663.24,999.015,1657.982,1000.276Z" transform="translate(-1647.701 -989.591)" fill="#c65447"/>
              <path id="Path_62" data-name="Path 62" d="M1657.337,1000.695c-4.605,1.1-8.221,0-9.636-2.383,8.1.177,9.829-5.3,10.159-6.856C1661.457,993.208,1662.6,999.434,1657.337,1000.695Z" transform="translate(-1647.056 -990.001)" fill="#b24239"/>
              <g id="Group_15" data-name="Group 15" transform="translate(4.547)">
                <path id="Path_63" data-name="Path 63" d="M1661.26,991.321c-.312-.232-1.74.263-1.6.479a5.234,5.234,0,0,1,.1,1.42s-.743-.832-1.13-.916a6.49,6.49,0,0,0-1.849.543c.234-.521,1.441-1.173,1.441-1.173a4.212,4.212,0,0,0-1.367-.951l.01,0a9.573,9.573,0,0,1,2.461.208,5.27,5.27,0,0,1,1.1-.273A2.458,2.458,0,0,1,1661.26,991.321Z" transform="translate(-1656.78 -989.627)" fill="#a8d29f"/>
                <path id="Path_64" data-name="Path 64" d="M1659.3,990.521s.672-1.535,1.132-1.793l.058.131a2.626,2.626,0,0,0-.623,1.775S1659.38,990.921,1659.3,990.521Z" transform="translate(-1657.357 -988.728)" fill="#87af7d"/>
              </g>
            </g>
          </g>
        </g>
        <g id="Group_19" data-name="Group 19">
          <path id="Path_65" data-name="Path 65" d="M1721.12,1015.164l-.021.01c-3.888,1.79-9.13-1.248-22.35-29.633-10.178-21.853-12.062-33.647-8.616-35.991a2.092,2.092,0,0,1,.336-.194c3.889-1.812,8.492.008,22.369,29.623C1724.382,1003.608,1725.01,1013.353,1721.12,1015.164Z" transform="translate(-1688.551 -948.864)" fill="#82b378"/>
          <path id="Path_66" data-name="Path 66" d="M1719.538,1015.164l-.021.01c-3.893-3.26-9.617-12.228-19.268-33.118-6.925-15-10.6-25.769-11.7-32.506a2.092,2.092,0,0,1,.336-.194c3.889-1.812,8.492.008,22.369,29.623C1722.8,1003.608,1723.428,1013.353,1719.538,1015.164Z" transform="translate(-1686.969 -948.864)" fill="#a8d29f"/>
        </g>
        <g id="Group_20" data-name="Group 20" transform="translate(74.549 12.859)">
          <path id="Path_67" data-name="Path 67" d="M1577.6,1020.4l.015,0c2.786.976,6.188-1.451,13.42-21.806,5.567-15.671,6.093-23.893,3.575-25.279a1.552,1.552,0,0,0-.244-.111c-2.79-.991-5.833.559-13.435,21.8C1574.6,1012.673,1574.806,1019.406,1577.6,1020.4Z" transform="translate(-1575.74 -972.985)" fill="#82b378"/>
          <path id="Path_68" data-name="Path 68" d="M1580.3,1020.4l.015,0c2.461-2.492,5.809-9.023,11.077-24,3.78-10.749,5.606-18.388,5.918-23.086a1.552,1.552,0,0,0-.244-.111c-2.79-.991-5.833.559-13.435,21.8C1577.312,1012.673,1577.515,1019.406,1580.3,1020.4Z" transform="translate(-1578.449 -972.985)" fill="#a8d29f"/>
        </g>
        <g id="Group_35" data-name="Group 35" transform="translate(12.667 22.487)">
          <g id="Group_21" data-name="Group 21" transform="translate(19.559 1.176)">
            <path id="Path_69" data-name="Path 69" d="M1677.93,1009.234c-.79.437-1.795.436-2.281,1.01a3.956,3.956,0,0,1-2.8.777c-.67-.138-1.567,1.442-3.019,1.487-.6.02-2.335-1.424-4.031-3.356-2.406-2.735-4.74-6.451-3.682-8.384,1.8-3.3,7.506-2.759,7.506-2.759a5.708,5.708,0,0,1,4.655-3.244,8.377,8.377,0,0,1,.9-.095C1679.612,994.428,1678.72,1008.8,1677.93,1009.234Z" transform="translate(-1661.854 -993.912)" fill="#f1a34f"/>
            <path id="Path_70" data-name="Path 70" d="M1673.986,1009.234c-.79.437-1.795.436-2.281,1.01a3.957,3.957,0,0,1-2.8.777c-.67-.138-1.567,1.442-3.019,1.487-.6.02-2.335-1.424-4.031-3.356,10.263-3.4,8.474-14.385,8.474-14.385l0,0a8.382,8.382,0,0,1,.9-.095C1675.668,994.428,1674.776,1008.8,1673.986,1009.234Z" transform="translate(-1657.91 -993.912)" fill="#e58638"/>
            <path id="Path_71" data-name="Path 71" d="M1677.324,997.316a7.461,7.461,0,0,1,.907-4.065,1.544,1.544,0,0,1,.336.683s-.971,1.818.021,2.936S1677.729,997.607,1677.324,997.316Z" transform="translate(-1670.395 -993.251)" fill="#76a56a"/>
          </g>
          <g id="Group_22" data-name="Group 22" transform="translate(37.403)">
            <path id="Path_72" data-name="Path 72" d="M1639.743,1010.2c-.9.043-1.8-.4-2.492-.1a3.956,3.956,0,0,1-2.855-.54c-.541-.421-2.043.6-3.365,0-.549-.248-1.466-2.309-2.134-4.792-.95-3.516-1.4-7.881.4-9.148,3.076-2.163,7.953.841,7.953.841a5.709,5.709,0,0,1,5.61-.853,8.218,8.218,0,0,1,.848.312C1647.794,997.661,1640.644,1010.159,1639.743,1010.2Z" transform="translate(-1628.065 -992.815)" fill="#f1a34f"/>
            <path id="Path_73" data-name="Path 73" d="M1638.911,1010.876c-.9.043-1.8-.4-2.492-.1a3.956,3.956,0,0,1-2.855-.54c-.541-.421-2.043.6-3.365,0-.549-.248-1.466-2.309-2.134-4.792,10.712,1.48,13.958-9.16,13.958-9.16h.005a8.218,8.218,0,0,1,.848.312C1646.962,998.337,1639.812,1010.835,1638.911,1010.876Z" transform="translate(-1627.233 -993.49)" fill="#e58638"/>
            <path id="Path_74" data-name="Path 74" d="M1638.916,994.29a7.452,7.452,0,0,1,2.609-3.245,1.535,1.535,0,0,1,0,.761s-1.674,1.2-1.278,2.644S1639.15,994.732,1638.916,994.29Z" transform="translate(-1630.468 -991.045)" fill="#76a56a"/>
          </g>
          <g id="Group_23" data-name="Group 23" transform="translate(27.046 6.96)">
            <path id="Path_75" data-name="Path 75" d="M1655.064,1021.364c-.872-.235-1.594-.934-2.343-.859a3.96,3.96,0,0,1-2.552-1.389c-.386-.566-2.129-.053-3.2-1.03-.446-.4-.689-2.647-.565-5.216.173-3.638,1.078-7.931,3.182-8.585,3.591-1.118,7.313,3.234,7.313,3.234a5.71,5.71,0,0,1,5.6.905,8,8,0,0,1,.712.557C1666.566,1011.891,1655.935,1021.6,1655.064,1021.364Z" transform="translate(-1646.368 -1004.102)" fill="#a8d29f"/>
            <path id="Path_76" data-name="Path 76" d="M1655.064,1025.148c-.872-.235-1.594-.934-2.343-.859a3.96,3.96,0,0,1-2.552-1.389c-.386-.566-2.129-.053-3.2-1.03-.446-.4-.689-2.647-.565-5.216,9.746,4.688,16.093-4.448,16.093-4.448l0,0a7.991,7.991,0,0,1,.712.557C1666.566,1015.675,1655.935,1025.384,1655.064,1025.148Z" transform="translate(-1646.368 -1007.886)" fill="#82b378"/>
            <path id="Path_77" data-name="Path 77" d="M1654,1007.369a7.456,7.456,0,0,1,3.478-2.291,1.534,1.534,0,0,1-.233.724s-1.962.632-2.025,2.125S1654.09,1007.861,1654,1007.369Z" transform="translate(-1644.054 -1004.557)" fill="#76a56a"/>
          </g>
          <g id="Group_24" data-name="Group 24" transform="translate(52.011 4.911)">
            <path id="Path_78" data-name="Path 78" d="M1608.234,1017.52c-.872-.234-1.593-.934-2.342-.859a3.962,3.962,0,0,1-2.553-1.388c-.386-.566-2.129-.054-3.2-1.03-.446-.4-.689-2.648-.565-5.216.172-3.638,1.077-7.932,3.182-8.586,3.59-1.117,7.313,3.235,7.313,3.235a5.709,5.709,0,0,1,5.6.9,8.176,8.176,0,0,1,.712.557C1619.736,1008.047,1609.1,1017.757,1608.234,1017.52Z" transform="translate(-1599.539 -1000.258)" fill="#a8d29f"/>
            <path id="Path_79" data-name="Path 79" d="M1609.356,1021.815c-.872-.235-2.845-1.445-3.594-1.37a3.962,3.962,0,0,1-2.553-1.388c-.386-.566-2.129-.054-3.2-1.03-.446-.4-.689-2.648-.565-5.216,9.745,4.688,16.092-4.448,16.092-4.448l0,0a8.188,8.188,0,0,1,.712.557C1619.606,1011.831,1610.226,1022.052,1609.356,1021.815Z" transform="translate(-1599.409 -1004.042)" fill="#82b378"/>
            <path id="Path_80" data-name="Path 80" d="M1607.172,1003.526a7.453,7.453,0,0,1,3.478-2.291,1.543,1.543,0,0,1-.233.724s-1.962.632-2.026,2.127S1607.26,1004.018,1607.172,1003.526Z" transform="translate(-1597.224 -1000.714)" fill="#76a56a"/>
          </g>
          <g id="Group_25" data-name="Group 25" transform="translate(38.93 8.449)">
            <path id="Path_81" data-name="Path 81" d="M1641.595,1022.877c-.79.438-1.795.437-2.281,1.011a3.958,3.958,0,0,1-2.8.776c-.671-.138-1.567,1.442-3.018,1.487-.6.02-2.336-1.424-4.032-3.356-2.405-2.735-4.74-6.45-3.682-8.383,1.8-3.3,7.506-2.759,7.506-2.759a5.708,5.708,0,0,1,4.655-3.244,8.342,8.342,0,0,1,.9-.095C1643.277,1008.071,1642.385,1022.442,1641.595,1022.877Z" transform="translate(-1625.52 -1007.555)" fill="#c65447"/>
            <path id="Path_82" data-name="Path 82" d="M1637.651,1022.877c-.79.438-1.795.437-2.281,1.011a3.958,3.958,0,0,1-2.8.776c-.671-.138-1.567,1.442-3.018,1.487-.6.02-2.336-1.424-4.032-3.356,10.264-3.4,8.475-14.384,8.475-14.384l0,0a8.336,8.336,0,0,1,.9-.095C1639.334,1008.071,1638.442,1022.442,1637.651,1022.877Z" transform="translate(-1621.577 -1007.555)" fill="#b24239"/>
            <path id="Path_83" data-name="Path 83" d="M1640.989,1010.958a7.463,7.463,0,0,1,.908-4.065,1.548,1.548,0,0,1,.336.683s-.971,1.818.021,2.937S1641.395,1011.25,1640.989,1010.958Z" transform="translate(-1634.061 -1006.893)" fill="#76a56a"/>
          </g>
          <g id="Group_26" data-name="Group 26" transform="translate(44.033 14.029)">
            <path id="Path_84" data-name="Path 84" d="M1631.463,1034.478c-.827.363-1.828.269-2.365.8a3.959,3.959,0,0,1-2.86.514c-.655-.2-1.694,1.29-3.143,1.2-.6-.036-2.194-1.635-3.7-3.715-2.141-2.946-4.121-6.862-2.889-8.689,2.1-3.119,7.729-2.052,7.729-2.052a5.708,5.708,0,0,1,4.936-2.8,8.434,8.434,0,0,1,.9-.011C1634.509,1019.892,1632.291,1034.119,1631.463,1034.478Z" transform="translate(-1616.122 -1018.46)" fill="#f1a34f"/>
            <path id="Path_85" data-name="Path 85" d="M1628.194,1034.478c-.827.363-1.828.269-2.365.8a3.959,3.959,0,0,1-2.86.514c-.655-.2-1.694,1.29-3.143,1.2-.6-.036-2.194-1.635-3.7-3.715,10.535-2.441,9.771-13.538,9.771-13.538l0,0a8.436,8.436,0,0,1,.9-.011C1631.24,1019.892,1629.021,1034.119,1628.194,1034.478Z" transform="translate(-1612.853 -1018.46)" fill="#e58638"/>
            <path id="Path_86" data-name="Path 86" d="M1630.758,1021.323a7.456,7.456,0,0,1,1.279-3.963,1.534,1.534,0,0,1,.271.711s-1.135,1.721-.25,2.926S1631.134,1021.652,1630.758,1021.323Z" transform="translate(-1623.481 -1017.36)" fill="#76a56a"/>
          </g>
          <g id="Group_27" data-name="Group 27" transform="translate(57.067 16.349)">
            <path id="Path_87" data-name="Path 87" d="M1597.309,1039.342c-.843-.323-1.49-1.092-2.242-1.094a3.959,3.959,0,0,1-2.4-1.642c-.326-.6-2.112-.27-3.081-1.352-.4-.447-.415-2.7-.029-5.246.543-3.6,1.882-7.78,4.042-8.216,3.687-.745,6.945,3.965,6.945,3.965a5.71,5.71,0,0,1,5.48,1.472,8.364,8.364,0,0,1,.651.627C1609.72,1031.094,1598.151,1039.667,1597.309,1039.342Z" transform="translate(-1589.278 -1021.713)" fill="#f1a34f"/>
            <path id="Path_88" data-name="Path 88" d="M1597.309,1044.173c-.843-.323-1.49-1.092-2.242-1.094a3.96,3.96,0,0,1-2.4-1.642c-.326-.6-2.112-.27-3.081-1.351-.4-.447-.415-2.7-.029-5.246,9.215,5.659,16.463-2.78,16.463-2.78l0,0a8.364,8.364,0,0,1,.651.627C1609.72,1035.925,1598.151,1044.5,1597.309,1044.173Z" transform="translate(-1589.278 -1026.543)" fill="#e58638"/>
            <path id="Path_89" data-name="Path 89" d="M1595.771,1026.373a7.453,7.453,0,0,1,3.693-1.923,1.539,1.539,0,0,1-.305.7s-2.016.428-2.233,1.908S1595.808,1026.872,1595.771,1026.373Z" transform="translate(-1585.017 -1022.991)" fill="#76a56a"/>
          </g>
          <g id="Group_28" data-name="Group 28" transform="translate(8.879 2.237)">
            <path id="Path_90" data-name="Path 90" d="M1697.964,1011.224c-.789.437-1.795.437-2.28,1.011a3.962,3.962,0,0,1-2.8.776c-.671-.138-1.567,1.442-3.019,1.487-.6.02-2.336-1.424-4.031-3.356-2.406-2.735-4.74-6.451-3.682-8.384,1.8-3.3,7.506-2.76,7.506-2.76a5.71,5.71,0,0,1,4.656-3.244,8.607,8.607,0,0,1,.9-.094C1699.647,996.418,1698.755,1010.789,1697.964,1011.224Z" transform="translate(-1681.89 -995.902)" fill="#c65447"/>
            <path id="Path_91" data-name="Path 91" d="M1694.021,1011.224c-.789.437-1.795.437-2.28,1.011a3.962,3.962,0,0,1-2.8.776c-.671-.138-1.567,1.442-3.019,1.487-.6.02-2.336-1.424-4.031-3.356,10.264-3.405,8.475-14.385,8.475-14.385l0,0a8.607,8.607,0,0,1,.9-.094C1695.7,996.418,1694.811,1010.789,1694.021,1011.224Z" transform="translate(-1677.946 -995.902)" fill="#b24239"/>
            <path id="Path_92" data-name="Path 92" d="M1697.357,999.305a7.462,7.462,0,0,1,.907-4.064,1.534,1.534,0,0,1,.336.682s-.971,1.818.022,2.937S1697.763,999.6,1697.357,999.305Z" transform="translate(-1690.429 -995.241)" fill="#76a56a"/>
          </g>
          <g id="Group_29" data-name="Group 29" transform="translate(0 7.429)">
            <path id="Path_93" data-name="Path 93" d="M1709.9,1024.136c-.9.043-1.8-.4-2.492-.1a3.962,3.962,0,0,1-2.855-.541c-.541-.421-2.043.6-3.365,0-.548-.248-1.466-2.31-2.135-4.793-.949-3.516-1.4-7.881.4-9.147,3.077-2.163,7.953.841,7.953.841a5.709,5.709,0,0,1,5.61-.853,8.532,8.532,0,0,1,.848.312C1717.954,1011.6,1710.8,1024.1,1709.9,1024.136Z" transform="translate(-1698.224 -1006.751)" fill="#f1a34f"/>
            <path id="Path_94" data-name="Path 94" d="M1709.071,1024.811c-.9.043-1.8-.4-2.492-.1a3.961,3.961,0,0,1-2.855-.541c-.541-.421-2.043.6-3.365,0-.548-.248-1.466-2.31-2.135-4.792,10.713,1.48,13.959-9.159,13.959-9.159h.005a8.547,8.547,0,0,1,.848.312C1717.123,1012.273,1709.973,1024.771,1709.071,1024.811Z" transform="translate(-1697.393 -1007.426)" fill="#e58638"/>
            <path id="Path_95" data-name="Path 95" d="M1709.075,1008.226a7.459,7.459,0,0,1,2.61-3.245,1.547,1.547,0,0,1,0,.761s-1.675,1.2-1.278,2.644S1709.31,1008.668,1709.075,1008.226Z" transform="translate(-1700.628 -1004.981)" fill="#76a56a"/>
          </g>
          <g id="Group_30" data-name="Group 30" transform="translate(7.621 13.545)">
            <path id="Path_96" data-name="Path 96" d="M1691.5,1033.715c-.871-.235-1.593-.934-2.342-.859a3.956,3.956,0,0,1-2.552-1.388c-.387-.566-2.129-.054-3.2-1.03-.446-.4-.689-2.648-.565-5.216.172-3.638,1.078-7.932,3.181-8.585,3.591-1.119,7.315,3.234,7.315,3.234a5.708,5.708,0,0,1,5.6.9,8.581,8.581,0,0,1,.712.557C1703,1024.241,1692.372,1033.951,1691.5,1033.715Z" transform="translate(-1682.807 -1016.452)" fill="#a8d29f"/>
            <path id="Path_97" data-name="Path 97" d="M1691.5,1037.5c-.871-.235-1.593-.934-2.342-.859a3.956,3.956,0,0,1-2.552-1.388c-.387-.566-2.129-.054-3.2-1.03-.446-.4-.689-2.648-.565-5.216,9.745,4.688,16.092-4.448,16.092-4.448h0a8.569,8.569,0,0,1,.712.557C1703,1028.026,1692.372,1037.736,1691.5,1037.5Z" transform="translate(-1682.807 -1020.237)" fill="#82b378"/>
            <path id="Path_98" data-name="Path 98" d="M1690.441,1019.719a7.463,7.463,0,0,1,3.477-2.291,1.547,1.547,0,0,1-.232.725s-1.962.631-2.026,2.125S1690.53,1020.211,1690.441,1019.719Z" transform="translate(-1680.494 -1016.908)" fill="#76a56a"/>
          </g>
          <g id="Group_31" data-name="Group 31" transform="translate(29.798 17.646)">
            <path id="Path_99" data-name="Path 99" d="M1649.9,1041.408c-.871-.234-1.594-.934-2.343-.859a3.96,3.96,0,0,1-2.552-1.389c-.386-.566-2.129-.053-3.2-1.029-.446-.4-.689-2.648-.566-5.216.172-3.638,1.078-7.932,3.182-8.586,3.59-1.118,7.313,3.235,7.313,3.235a5.708,5.708,0,0,1,5.6.9,8.208,8.208,0,0,1,.712.557C1661.4,1031.934,1650.771,1041.644,1649.9,1041.408Z" transform="translate(-1641.206 -1024.146)" fill="#a8d29f"/>
            <path id="Path_100" data-name="Path 100" d="M1649.9,1045.193c-.871-.235-1.594-.934-2.343-.859a3.961,3.961,0,0,1-2.552-1.389c-.386-.566-2.129-.053-3.2-1.029-.446-.4-.689-2.648-.566-5.216,9.745,4.688,16.093-4.448,16.093-4.448l0,0a8.208,8.208,0,0,1,.712.557C1661.4,1035.719,1650.771,1045.429,1649.9,1045.193Z" transform="translate(-1641.206 -1027.931)" fill="#82b378"/>
            <path id="Path_101" data-name="Path 101" d="M1648.839,1027.414a7.454,7.454,0,0,1,3.478-2.291,1.544,1.544,0,0,1-.233.724s-1.962.632-2.026,2.125S1648.927,1027.906,1648.839,1027.414Z" transform="translate(-1638.891 -1024.602)" fill="#76a56a"/>
          </g>
          <g id="Group_32" data-name="Group 32" transform="translate(18.343 10.694)">
            <path id="Path_102" data-name="Path 102" d="M1680.211,1027.088c-.789.437-1.794.437-2.281,1.011a3.956,3.956,0,0,1-2.8.777c-.671-.139-1.567,1.442-3.019,1.486-.6.02-2.336-1.424-4.032-3.356-2.405-2.735-4.739-6.451-3.681-8.384,1.8-3.3,7.506-2.759,7.506-2.759a5.708,5.708,0,0,1,4.655-3.244,8.5,8.5,0,0,1,.9-.095C1681.894,1012.282,1681,1026.653,1680.211,1027.088Z" transform="translate(-1664.137 -1011.766)" fill="#c65447"/>
            <path id="Path_103" data-name="Path 103" d="M1676.268,1027.088c-.789.437-1.794.437-2.281,1.011a3.956,3.956,0,0,1-2.8.777c-.671-.139-1.567,1.442-3.019,1.486-.6.02-2.336-1.424-4.032-3.356,10.264-3.405,8.475-14.385,8.475-14.385l0,0a8.5,8.5,0,0,1,.9-.095C1677.951,1012.282,1677.058,1026.653,1676.268,1027.088Z" transform="translate(-1660.193 -1011.766)" fill="#b24239"/>
            <path id="Path_104" data-name="Path 104" d="M1679.605,1015.169a7.454,7.454,0,0,1,.907-4.064,1.539,1.539,0,0,1,.336.682s-.972,1.819.021,2.937S1680.011,1015.462,1679.605,1015.169Z" transform="translate(-1672.677 -1011.105)" fill="#76a56a"/>
          </g>
          <g id="Group_33" data-name="Group 33" transform="translate(10.897 19.115)">
            <path id="Path_105" data-name="Path 105" d="M1693.62,1044.021c-.827.362-1.828.269-2.365.795a3.961,3.961,0,0,1-2.86.515c-.656-.2-1.694,1.29-3.143,1.2-.6-.036-2.194-1.635-3.7-3.715-2.141-2.946-4.121-6.862-2.89-8.688,2.1-3.118,7.729-2.052,7.729-2.052a5.708,5.708,0,0,1,4.936-2.8,8.444,8.444,0,0,1,.9-.012C1696.666,1029.435,1694.446,1043.661,1693.62,1044.021Z" transform="translate(-1678.279 -1028.002)" fill="#f1a34f"/>
            <path id="Path_106" data-name="Path 106" d="M1690.351,1044.021c-.827.362-1.828.269-2.365.795a3.961,3.961,0,0,1-2.86.515c-.656-.2-1.694,1.29-3.143,1.2-.6-.036-2.194-1.635-3.7-3.715,10.535-2.44,9.771-13.538,9.771-13.538l0,0a8.444,8.444,0,0,1,.9-.012C1693.4,1029.435,1691.177,1043.661,1690.351,1044.021Z" transform="translate(-1675.009 -1028.002)" fill="#e58638"/>
            <path id="Path_107" data-name="Path 107" d="M1692.913,1030.866a7.46,7.46,0,0,1,1.279-3.964,1.537,1.537,0,0,1,.272.711s-1.135,1.72-.25,2.926S1693.289,1031.194,1692.913,1030.866Z" transform="translate(-1685.636 -1026.902)" fill="#76a56a"/>
          </g>
          <g id="Group_34" data-name="Group 34" transform="translate(23.762 20.168)">
            <path id="Path_108" data-name="Path 108" d="M1659.782,1046.506c-.843-.323-1.49-1.092-2.242-1.094a3.966,3.966,0,0,1-2.4-1.642c-.326-.6-2.111-.271-3.081-1.352-.4-.447-.415-2.7-.029-5.246.543-3.6,1.883-7.78,4.042-8.215,3.687-.745,6.945,3.965,6.945,3.965a5.709,5.709,0,0,1,5.48,1.472,8.518,8.518,0,0,1,.652.627C1672.192,1038.258,1660.624,1046.83,1659.782,1046.506Z" transform="translate(-1651.751 -1028.877)" fill="#f1a34f"/>
            <path id="Path_109" data-name="Path 109" d="M1659.782,1051.336c-.843-.323-1.49-1.092-2.242-1.094a3.966,3.966,0,0,1-2.4-1.642c-.326-.6-2.111-.271-3.081-1.352-.4-.447-.415-2.7-.029-5.246,9.215,5.659,16.463-2.78,16.463-2.78l0,0a8.474,8.474,0,0,1,.652.627C1672.192,1043.088,1660.624,1051.66,1659.782,1051.336Z" transform="translate(-1651.751 -1033.707)" fill="#e58638"/>
            <path id="Path_110" data-name="Path 110" d="M1658.244,1033.537a7.454,7.454,0,0,1,3.694-1.924,1.553,1.553,0,0,1-.305.7s-2.017.427-2.233,1.907S1658.281,1034.035,1658.244,1033.537Z" transform="translate(-1647.491 -1030.155)" fill="#76a56a"/>
          </g>
        </g>
        <path id="Path_111" data-name="Path 111" d="M1586.671,1030.219h63.7l-9.268,94.462h-46.831Z" transform="translate(-1561.344 -986.848)" fill="#cc905e"/>
        <path id="Path_112" data-name="Path 112" d="M1610.925,1030.219h63.7l-9.269,94.462H1618.53Z" transform="translate(-1598.528 -986.848)" fill="#f9c693"/>
        <path id="Path_113" data-name="Path 113" d="M1680.686,1147.111h-46.83l-5.544-68.852s16.6,14.616,15.57,29.025.655,22.615,14.22,8.605S1639.871,1146.71,1680.686,1147.111Z" transform="translate(-1613.853 -1009.278)" fill="#cc905e"/>
      </g>
      <g id="Group_37" data-name="Group 37" transform="translate(714.903 897.349)">
        <path id="Path_114" data-name="Path 114" d="M1682.421,1077.1h-32.454a7.019,7.019,0,0,0-6.964,7.888l7.133,57.182a3.941,3.941,0,0,0,3.822,3.452l37.826.857Z" transform="translate(-1641.901 -1075.503)" fill="#71a5cc" opacity="0.3"/>
        <path id="Path_115" data-name="Path 115" d="M1615.656,1084.093l-7.9,57.087a6.146,6.146,0,0,1-6.088,5.3h-23.428a6.146,6.146,0,0,1-6.091-5.326l-7.564-62.134a1.694,1.694,0,0,1,1.679-1.92h43.309A6.146,6.146,0,0,1,1615.656,1084.093Z" transform="translate(-1524.046 -1075.503)" fill="#71a5cc" opacity="0.5"/>
        <path id="Path_116" data-name="Path 116" d="M1577.506,1146.682h24.775a7.225,7.225,0,0,0,7.179-6.4l6.708-58.128a7.227,7.227,0,0,0-7.179-8.055h-46.3l7.636,66.183A7.226,7.226,0,0,0,1577.506,1146.682Zm31.482-69.379a4.024,4.024,0,0,1,4,4.486l-6.707,58.128a4.024,4.024,0,0,1-4,3.564h-24.775a4.024,4.024,0,0,1-4-3.564l-7.224-62.614Z" transform="translate(-1523.546 -1074.101)" fill="#2c3a64"/>
        <path id="Path_117" data-name="Path 117" d="M1634.859,1146.682h47.691v-3.2h-47.691a4.025,4.025,0,0,1-4-3.563l-6.708-58.129a4.025,4.025,0,0,1,4-4.485h44.5v-3.2h-44.5a7.227,7.227,0,0,0-7.179,8.055l6.707,58.128A7.225,7.225,0,0,0,1634.859,1146.682Z" transform="translate(-1620.925 -1074.101)" fill="#2c3a64"/>
        <rect id="Rectangle_2" data-name="Rectangle 2" width="69.871" height="3.202" transform="matrix(-0.118, -0.993, 0.993, -0.118, 33.617, 71.17)" fill="#2c3a64"/>
        <rect id="Rectangle_3" data-name="Rectangle 3" width="69.51" height="3.203" transform="translate(59.226 71.079) rotate(-93.522)" fill="#2c3a64"/>
        <rect id="Rectangle_4" data-name="Rectangle 4" width="3.202" height="69.51" transform="translate(73.363 71.079) rotate(-176.479)" fill="#2c3a64"/>
        <rect id="Rectangle_5" data-name="Rectangle 5" width="69.809" height="3.202" transform="translate(20.009 71.158) rotate(-96.367)" fill="#2c3a64"/>
        <rect id="Rectangle_6" data-name="Rectangle 6" width="78.714" height="3.202" transform="translate(6.589 54.31)" fill="#2c3a64"/>
        <rect id="Rectangle_7" data-name="Rectangle 7" width="82.639" height="3.202" transform="translate(5.015 35.538)" fill="#2c3a64"/>
        <rect id="Rectangle_8" data-name="Rectangle 8" width="86.746" height="3.202" transform="translate(3.028 17.162)" fill="#2c3a64"/>
      </g>
      <g id="Group_45" data-name="Group 45">
        <g transform="matrix(1, 0, 0, 1, 0, 0)" filter="url(#Rectangle_1)">
          <rect id="Rectangle_1-2" data-name="Rectangle 1" width="410" height="787" rx="64" transform="translate(274 172)" fill="#fff"/>
        </g>
        <g id="Ellipse_1" data-name="Ellipse 1" transform="translate(451 865)" fill="#fff" stroke="#707070" stroke-width="1">
          <circle cx="28.5" cy="28.5" r="28.5" stroke="none"/>
          <circle cx="28.5" cy="28.5" r="28" fill="none"/>
        </g>
        <g transform="matrix(1, 0, 0, 1, 0, 0)" filter="url(#Rectangle_9)">
          <rect id="Rectangle_9-2" data-name="Rectangle 9" width="131" height="131" rx="20" transform="translate(328 347)" fill="url(#linear-gradient)"/>
        </g>
        <g transform="matrix(1, 0, 0, 1, 0, 0)" filter="url(#Rectangle_12)">
          <rect id="Rectangle_12-2" data-name="Rectangle 12" width="131" height="131" rx="20" transform="translate(328 571)" fill="url(#linear-gradient-2)"/>
        </g>
        <g transform="matrix(1, 0, 0, 1, 0, 0)" filter="url(#Rectangle_10)">
          <rect id="Rectangle_10-2" data-name="Rectangle 10" width="131" height="131" rx="20" transform="translate(500 347)" fill="url(#linear-gradient-3)"/>
        </g>
        <g transform="matrix(1, 0, 0, 1, 0, 0)" filter="url(#Rectangle_11)">
          <rect id="Rectangle_11-2" data-name="Rectangle 11" width="131" height="131" rx="20" transform="translate(500 571)" fill="url(#linear-gradient-4)"/>
        </g>
        <g id="Handyman" transform="translate(352.578 371.334)">
          <path id="Path_119" data-name="Path 119" d="M280.826,278.713l22.265,22.265a1.2,1.2,0,0,0,1.7-1.7l-22.265-22.265a1.2,1.2,0,0,0-1.7,1.7Zm0,0" transform="translate(-235.641 -232.022)" fill="#ff5e5e"/>
          <path id="Path_120" data-name="Path 120" d="M161.615,157.806a1.2,1.2,0,0,0,0,1.7l6.014,6.014a1.2,1.2,0,1,0,1.7-1.7l-6.014-6.014A1.2,1.2,0,0,0,161.615,157.806Zm0,0" transform="translate(-135.485 -131.866)" fill="#ff5e5e"/>
          <path id="Path_121" data-name="Path 121" d="M42.215,46.839l19.309-21.37,1.437,1.29a2.177,2.177,0,0,0,3.063-.16l.38-.42L67.755,27.4l-.536.593a3.269,3.269,0,0,0,.234,4.617l3.255,2.941a3.243,3.243,0,0,0,2.187.844c.056,0,.113,0,.169,0a3.247,3.247,0,0,0,2.26-1.073l7.224-8a3.273,3.273,0,0,0-.234-4.617L79.06,19.763a3.269,3.269,0,0,0-4.527.138L73.18,18.679l.488-.541a2.175,2.175,0,0,0-.154-3.068L62.7,5.282h0A18.8,18.8,0,0,0,51.91.581a15.443,15.443,0,0,0-10.6,2.626,2.173,2.173,0,0,0,.941,3.9c8.195,1.3,10.42,3.943,11,5.017a4.044,4.044,0,0,1-.115,3.761,2.165,2.165,0,0,0,.084,1.976L33.857,39.288a2.492,2.492,0,0,0-3.083.49l-1.436,1.59a2.491,2.491,0,0,0-.164,3.133l-5,3.537-.022.016a38.154,38.154,0,0,0-5.567,5.054L4.25,68.972a7.7,7.7,0,0,0,5.7,12.86q.2,0,.4-.01a7.645,7.645,0,0,0,5.323-2.528L30.009,63.43a38.158,38.158,0,0,0,4.465-6.049l.014-.023L37.5,52.025a2.462,2.462,0,0,0,1.253.34c.042,0,.086,0,.129,0a2.471,2.471,0,0,0,1.719-.816l1.436-1.59a2.489,2.489,0,0,0,.176-3.116ZM40.473,45.19l-4.8-4.337L54.925,19.548l4.814,4.32ZM76.824,21.319a.867.867,0,0,1,.628.224l3.254,2.94a.872.872,0,0,1,.062,1.23l-7.224,8a.871.871,0,0,1-1.23.062L69.06,30.83A.871.871,0,0,1,69,29.6l7.224-8A.864.864,0,0,1,76.824,21.319Zm-3.9.36-3.56,3.941L68.012,24.4l3.561-3.941ZM43.173,4.831C48.161,1.579,56.065,2.524,61.087,7.06L71.739,16.7,64.4,24.825l-9.017-8.091a6.309,6.309,0,0,0-.021-5.742C53.3,7.156,47.068,5.5,43.173,4.831ZM32.408,56.166a35.771,35.771,0,0,1-4.178,5.657L13.9,77.687A5.3,5.3,0,0,1,6.029,70.58L20.364,54.715a35.8,35.8,0,0,1,5.205-4.727l5.386-3.809,4.7,4.245Zm7.851-7.818-1.436,1.59a.082.082,0,0,1-.061.029.1.1,0,0,1-.063-.022L31.124,43.1a.089.089,0,0,1-.006-.125l1.436-1.59a.089.089,0,0,1,.125-.006l7.574,6.844a.087.087,0,0,1,.006.124Zm0,0" transform="translate(-1.904)" fill="#ff5e5e"/>
          <path id="Path_122" data-name="Path 122" d="M5.389,28.64a14.525,14.525,0,0,0,11.53,2.87,5.514,5.514,0,0,1,4.78,1.57L27.315,38.7a1.2,1.2,0,0,0,1.7-1.7L23.4,31.385a7.919,7.919,0,0,0-6.867-2.24A12.125,12.125,0,0,1,6.9,26.775,12.145,12.145,0,0,1,2.4,16.982l7.23,5.85a4.711,4.711,0,0,0,6.619-.7l3.321-4.1a4.707,4.707,0,0,0-.7-6.619l-7.231-5.85A12.1,12.1,0,0,1,22.518,8.21a12.03,12.03,0,0,1,3.921,9.635,8.112,8.112,0,0,0,2.327,6.039L36.1,31.215a1.2,1.2,0,1,0,1.7-1.7l-7.331-7.33a5.706,5.706,0,0,1-1.625-4.252A14.415,14.415,0,0,0,24.1,6.4a14.489,14.489,0,0,0-13.631-3.01,2.127,2.127,0,0,0-.742,3.7l7.644,6.184a2.309,2.309,0,0,1,.343,3.248l-3.321,4.1a2.311,2.311,0,0,1-3.247.342L3.5,14.783A2.127,2.127,0,0,0,.039,16.277,14.545,14.545,0,0,0,5.389,28.64Zm0,0" transform="translate(0 -1.941)" fill="#ff5e5e"/>
          <path id="Path_123" data-name="Path 123" d="M302.223,278.626l-28.978-28.978a1.2,1.2,0,0,0-1.7,1.7l28.978,28.977a4.551,4.551,0,0,1-6.435,6.436L266.775,259.44a1.2,1.2,0,0,0-1.7,1.7L292.4,288.454a6.949,6.949,0,0,0,9.826-9.828Zm0,0" transform="translate(-222.411 -209.028)" fill="#ff5e5e"/>
        </g>
        <path id="Path_124" data-name="Path 124" d="M2094.675,782.115h-76.35l38.175-29.086Z" transform="translate(-1491 -380.367)" fill="#463ffe"/>
        <path id="Path_125" data-name="Path 125" d="M2042.06,834.4v49.342h19.217V849.467h20.256v34.279h18.7V834.4Z" transform="translate(-1505.646 -430.58)" fill="#463ffe"/>
        <g id="Cook" transform="translate(349.424 592.904)">
          <path id="Path_127" data-name="Path 127" d="M29.1,124.755,5.539,118.394a4.262,4.262,0,0,0-1.162-.156,4.36,4.36,0,0,0-1.135,8.574L26.3,133.036a16,16,0,0,0,11.792,15.24l22.454,6.06a15.969,15.969,0,0,0,19.6-11.262l.567-2.107c.588-2.18-1.7-4.451-7.22-7.155a103.345,103.345,0,0,0-17.729-6.362c-2.371-.643-20.8-5.477-26.661-2.694ZM4,124a1.455,1.455,0,0,1,.766-2.806l22.447,6.06-.38,1.4c-.128.473-.224.949-.309,1.424Zm57.3,27.522-22.452-6.06a13.045,13.045,0,0,1-8.69-7.741,59.31,59.31,0,0,0,9.456,4.377,1.487,1.487,0,0,0,.512.093,1.453,1.453,0,0,0,.512-2.813c-5.533-2.085-9.679-4.226-11.371-5.875-.016-.016-.04-.021-.057-.036a13.048,13.048,0,0,1,.194-2.955,41.785,41.785,0,0,0,11.114,5.735l.61.227q.566.212,1.128.414c2.43.885,5.039,1.743,7.763,2.525,1.11.326,1.937.553,2.325.658q1.453.392,2.883.742c.221.055.436.106.66.158q1.162.282,2.3.536l.517.112q1.291.291,2.546.527c.06.011.118.023.176.035,2.845.55,5.523.952,7.933,1.189l.076.007c.481.046.965.094,1.423.126.276.021.529.031.793.045h.077c.727.04,1.436.068,2.077.068a19.06,19.06,0,0,0,3.171-.236,13.079,13.079,0,0,1-15.68,8.138Zm4.384-11.553c-.739-.113-1.489-.235-2.261-.373l-.4-.07q-1.486-.272-3.038-.6l-.257-.055c-.923-.2-1.865-.413-2.812-.639l-.631-.145c-1.051-.255-2.112-.524-3.18-.814s-2.12-.59-3.159-.9c-.208-.062-.409-.124-.613-.185-.933-.282-1.853-.569-2.75-.871l-.26-.084q-1.5-.494-2.916-1.008l-.4-.145q-1.09-.4-2.12-.81c-.158-.061-.317-.123-.471-.186a116.971,116.971,0,0,1,13.069,2.783,116.411,116.411,0,0,1,12.693,4.181Zm12.135.214a8.152,8.152,0,0,1-3.448.525,92.128,92.128,0,0,0-20.128-7.65A90.856,90.856,0,0,0,33,129.526a8.231,8.231,0,0,1-2.718-2.188c1.612-1,10.693-.872,24.716,2.916s21.93,8.26,22.82,9.93Zm0,0" transform="translate(0 -96.76)" fill="#43d207"/>
          <path id="Path_128" data-name="Path 128" d="M247.868,245.5q-1.4-.414-2.751-.842a1.453,1.453,0,0,0-.881,2.769q1.376.436,2.812.861a1.507,1.507,0,0,0,.409.06,1.453,1.453,0,0,0,.41-2.848Zm0,0" transform="translate(-199.044 -200.161)" fill="#43d207"/>
          <path id="Path_129" data-name="Path 129" d="M294.134,258.354c-.915-.205-1.85-.424-2.8-.658a1.453,1.453,0,0,0-.7,2.821q1.453.36,2.863.675a1.494,1.494,0,0,0,.318.035,1.453,1.453,0,0,0,.314-2.872Zm0,0" transform="translate(-236.963 -210.855)" fill="#43d207"/>
          <path id="Path_130" data-name="Path 130" d="M283.727,5.086a5.087,5.087,0,0,0,2.906,4.575v4.871a1.453,1.453,0,0,0,1.453,1.453H293.9a1.453,1.453,0,0,0,1.453-1.453V9.663A5.074,5.074,0,0,0,293.173,0h-4.36a5.086,5.086,0,0,0-5.086,5.086Zm5.813,7.993V10.172h2.906v2.906Zm5.813-7.993a2.179,2.179,0,0,1-2.18,2.18h-4.36a2.18,2.18,0,0,1,0-4.36h4.36A2.179,2.179,0,0,1,295.353,5.086Zm0,0" transform="translate(-232.19 0)" fill="#43d207"/>
          <path id="Path_131" data-name="Path 131" d="M376.756,70.952a1.463,1.463,0,0,0-.319-1.066l-4.591-5.633a1.453,1.453,0,0,0-.979-.526,1.409,1.409,0,0,0-1.065.318l-5.631,4.591a1.452,1.452,0,0,0-.209,2.044l4.59,5.633a1.455,1.455,0,0,0,.979.528,1.231,1.231,0,0,0,.145,0,1.455,1.455,0,0,0,.919-.327l5.633-4.589a1.451,1.451,0,0,0,.53-.972Zm-6.869,2.4-2.761-3.378L370.5,67.21l2.761,3.38Zm0,0" transform="translate(-297.582 -52.144)" fill="#43d207"/>
          <path id="Path_132" data-name="Path 132" d="M231.353,45.813a5.813,5.813,0,1,0-5.813,5.813A5.813,5.813,0,0,0,231.353,45.813Zm-5.813,2.906a2.906,2.906,0,1,1,2.906-2.906A2.907,2.907,0,0,1,225.54,48.719Zm0,0" transform="translate(-179.816 -32.734)" fill="#43d207"/>
          <path id="Path_133" data-name="Path 133" d="M243.727,120h2.906v2.906h-2.906Zm0,0" transform="translate(-199.456 -98.202)" fill="#43d207"/>
          <path id="Path_134" data-name="Path 134" d="M315.727,104h2.906v2.906h-2.906Zm0,0" transform="translate(-258.377 -85.109)" fill="#43d207"/>
          <path id="Path_135" data-name="Path 135" d="M315.727,136h2.906v4.36h-2.906Zm0,0" transform="translate(-258.377 -111.296)" fill="#43d207"/>
          <path id="Path_136" data-name="Path 136" d="M403.727,144h2.906v2.906h-2.906Zm0,0" transform="translate(-330.392 -117.843)" fill="#43d207"/>
          <path id="Path_137" data-name="Path 137" d="M403.727,176h2.906v2.906h-2.906Zm0,0" transform="translate(-330.392 -144.03)" fill="#43d207"/>
          <path id="Path_138" data-name="Path 138" d="M155.094,353.925l3.231-5.812,2.54,1.412-3.231,5.812Zm0,0" transform="translate(-126.923 -284.878)" fill="#43d207"/>
          <path id="Path_139" data-name="Path 139" d="M137.79,406.944l1.379-.459-1.377.459,1.391,4.171,2.761-.918-1.391-4.171a9.463,9.463,0,0,1,.7-7.574l-2.54-1.413a12.378,12.378,0,0,0-.927,9.9Zm0,0" transform="translate(-112.247 -324.917)" fill="#43d207"/>
          <path id="Path_140" data-name="Path 140" d="M204.442,348.067l1.388-4.171a12.372,12.372,0,0,0-.92-9.9L199.97,325.1a1.453,1.453,0,0,0-2.719.706V333.8c0,.262-.012.523-.033.785a14.527,14.527,0,0,0-1.3-3.178l-5.926-10.665a1.453,1.453,0,0,0-2.723.706v9.591a11.692,11.692,0,0,1-2.325,6.975,14.453,14.453,0,0,0-1.4,2.308c-.182-.29-.366-.581-.573-.852a9.54,9.54,0,0,1-1.889-5.667v-8a1.453,1.453,0,0,0-2.723-.7L173.416,334a12.371,12.371,0,0,0-.922,9.9l1.4,4.171a1.453,1.453,0,0,0,1.377.993h27.8a1.452,1.452,0,0,0,1.379-.994Zm-29.193-5.086a9.476,9.476,0,0,1,.7-7.571l2.218-3.991V333.8a12.485,12.485,0,0,0,2.47,7.411,8.986,8.986,0,0,1,1.568,3.321,14.689,14.689,0,0,0-.145,1.617h-5.753Zm9.709,3.174a11.7,11.7,0,0,1,2.31-6.394,14.609,14.609,0,0,0,2.906-8.719v-3.985l3.2,5.764a11.651,11.651,0,0,1,1.208,8.042,1.453,1.453,0,0,0,2.659,1.059l.145-.253a4.293,4.293,0,0,1,.291-.455,12.436,12.436,0,0,0,2.47-7.411v-2.385l2.225,3.984a9.472,9.472,0,0,1,.7,7.575l-1.058,3.178Zm0,0" transform="translate(-140.646 -261.87)" fill="#43d207"/>
          <path id="Path_141" data-name="Path 141" d="M346.141,349.525l2.541-1.411,1.95,3.51-2.54,1.412Zm0,0" transform="translate(-283.267 -284.879)" fill="#43d207"/>
          <path id="Path_142" data-name="Path 142" d="M368.954,384.6l-1.535-2.761-2.54,1.411,1.535,2.761A9.459,9.459,0,0,1,367.6,390.9l2.906.094A12.355,12.355,0,0,0,368.954,384.6Zm0,0" transform="translate(-298.601 -312.479)" fill="#43d207"/>
          <path id="Path_143" data-name="Path 143" d="M369.555,456.379l.969-2.906,2.756.92-.97,2.906Zm0,0" transform="translate(-302.428 -371.1)" fill="#43d207"/>
          <path id="Path_144" data-name="Path 144" d="M180.715,319.332l1.453-2.906,2.6,1.3-1.452,2.906Zm0,0" transform="translate(-147.89 -258.947)" fill="#43d207"/>
          <path id="Path_145" data-name="Path 145" d="M447.451,84.665a6.482,6.482,0,0,0,.808-8.16l-.627-.939-2.418,1.611.627.942a3.569,3.569,0,0,1-.445,4.492Zm0,0" transform="translate(-364.343 -61.84)" fill="#43d207"/>
        </g>
        <g id="General_Medicine" data-name="General Medicine" transform="translate(524.836 603.768)">
          <g id="Group_40" data-name="Group 40" transform="translate(30.068 18.102)">
            <g id="Group_39" data-name="Group 39">
              <path id="Path_146" data-name="Path 146" d="M117.133,125.994a1.437,1.437,0,1,0,1.437,1.437A1.437,1.437,0,0,0,117.133,125.994Z" transform="translate(-115.696 -125.994)" fill="#a10096"/>
            </g>
          </g>
          <g id="Group_42" data-name="Group 42" transform="translate(31.504 39.221)">
            <g id="Group_41" data-name="Group 41">
              <path id="Path_147" data-name="Path 147" d="M138.626,278.733h-4.31v-4.31a1.437,1.437,0,1,0-2.873,0v4.31h-4.31a1.437,1.437,0,1,0,0,2.873h4.31v4.31a1.437,1.437,0,1,0,2.873,0v-4.31h4.31a1.437,1.437,0,1,0,0-2.873Z" transform="translate(-125.696 -272.986)" fill="#a10096"/>
            </g>
          </g>
          <g id="Group_44" data-name="Group 44" transform="translate(15.701)">
            <g id="Group_43" data-name="Group 43" transform="translate(0)">
              <path id="Path_148" data-name="Path 148" d="M83.209,46.26a11.487,11.487,0,0,0-15.7-4.207l-5.836,3.369V32.947a7.235,7.235,0,0,0-1.437-4.31L53.054,19.06V14.981a4.317,4.317,0,0,0,2.873-4.063V4.31A4.315,4.315,0,0,0,51.617,0H25.758a4.315,4.315,0,0,0-4.31,4.31v6.609a4.317,4.317,0,0,0,2.873,4.063V19.06l-7.184,9.578A7.234,7.234,0,0,0,15.7,32.947V60.77a7.191,7.191,0,0,0,7.183,7.183H45.973a11.482,11.482,0,0,0,15.612,4.063L79,61.96A11.5,11.5,0,0,0,83.209,46.26ZM24.321,4.31a1.438,1.438,0,0,1,1.437-1.437h25.86A1.438,1.438,0,0,1,53.054,4.31v6.609a1.438,1.438,0,0,1-1.437,1.437H25.758a1.438,1.438,0,0,1-1.437-1.437V4.31ZM19.436,30.361l7.47-9.96a1.437,1.437,0,0,0,.287-.862v-4.31H50.181V18.1H37.251a1.437,1.437,0,0,0,0,2.873H50.9l7.039,9.385a4.347,4.347,0,0,1,.832,2.108H18.6A4.345,4.345,0,0,1,19.436,30.361Zm3.448,34.72a4.315,4.315,0,0,1-4.31-4.31V59.319h26.1a11.512,11.512,0,0,0,.069,5.761H22.884ZM45.8,56.46H18.574V35.342H58.8v11.74L50.091,52.11A11.408,11.408,0,0,0,45.8,56.46ZM60.148,69.528a8.62,8.62,0,1,1-8.62-14.93l7.8-4.5,8.62,14.93ZM77.566,59.472l-7.131,4.118-8.62-14.93,7.132-4.117a8.62,8.62,0,1,1,8.62,14.93Z" transform="translate(-15.701)" fill="#a10096"/>
            </g>
          </g>
        </g>
        <line id="Line_1" data-name="Line 1" x2="82" transform="translate(438.5 221.5)" fill="none" stroke="#c6c6c6" stroke-width="3"/>
      </g>
      <path id="Path_157" data-name="Path 157" d="M198.514,227.67H65.745l20.708-20.708a27.709,27.709,0,0,1,19.594-8.117h14.6a27.707,27.707,0,0,1,19.594,8.117h0a27.714,27.714,0,0,0,19.594,8.115h14.526a27.709,27.709,0,0,1,19.424,7.949Z" transform="translate(1001.486 85.577)" fill="#e9fbff"/>
      <path id="Path_158" data-name="Path 158" d="M10.514,396.482H239.181l-7.26-7.26a49.822,49.822,0,0,0-35.234-14.6h0a49.837,49.837,0,0,1-35.236-14.594l-5.927-5.927a49.826,49.826,0,0,0-35.234-14.6H109.634a49.83,49.83,0,0,0-35.236,14.6l-7.264,7.264a26.56,26.56,0,0,1-18.782,7.779h0a26.564,26.564,0,0,0-19.022,8.023Z" transform="translate(8.486 -174.982)" fill="#e9fbff"/>
      <g id="Group_3" data-name="Group 3" transform="translate(-413.698 -8.54)">
        <path id="Path_1" data-name="Path 1" d="M610.014,577.629s-12.655,6.155-14.982,13.226c-1.867,5.674-15.859,6.405-17.242,17.564a12.8,12.8,0,0,1-10.715,11.254c-14.291,2.19-36.315,9.611-39.839,34.424-2.69,18.939,6.965,26.121,17.1,28.606a14.352,14.352,0,0,1,10.882,16.578c-1.444,7.206.709,15.537,13.194,22.125,27.978,14.762,55.918-34.975,55.918-34.975l5.726-86.844Z" transform="translate(-19.524 -26.115)"/>
        <path id="Path_2" data-name="Path 2" d="M777.834,517.762s-36,98.139-97.342,128.812c0,0,20.417,33.312,31.072,35.333,0,0,65.528-83.87,72.209-152.581Z" transform="translate(-55.647 -12.046)" fill="#ffd4d8"/>
        <path id="Path_3" data-name="Path 3" d="M475.49,1287.7l-1.81,14.883a6.149,6.149,0,0,1-5.392,5.379,95.165,95.165,0,0,1-19.919.312,5.265,5.265,0,0,1-4.422-6.828c1.826-5.746,5.168-14.37,9.984-19.446h16.51A5.086,5.086,0,0,1,475.49,1287.7Z" transform="translate(0 -191.642)"/>
        <path id="Path_4" data-name="Path 4" d="M644.508,1061.54l2.787,16.393s-9.332,94.526-10.992,132.337a29.62,29.62,0,0,0,4.384,16.838l16.227,26.351-41.24-24.336-.822-5.032,6.751-9.283-8.843-105.893a32.49,32.49,0,0,1,3.7-17.969l8.531-16.026Z" transform="translate(-39.703 -139.834)" fill="#ffd4d8"/>
        <path id="Path_5" data-name="Path 5" d="M659.311,1305.385H646.15a7.924,7.924,0,0,1-6.289-3.084c-4.1-5.331-12.6-15.731-16.668-16-5.471-.366-4.771,19.087-4.771,19.087h-3.067l-3.885-24.172a14.31,14.31,0,0,1,7.508-14.957h0s1.251,9.25,8.033,13.342,27.6,18.744,27.6,18.744a18.815,18.815,0,0,1,5.349.142C664.11,1299.236,663.53,1305.385,659.311,1305.385Z" transform="translate(-39.383 -187.943)"/>
        <path id="Path_6" data-name="Path 6" d="M550.1,1069.625s-54.671,103.7-63.361,127.381-11.734,43.43-11.851,45.3c-.182,2.922-3.817,5.726-13.837,5.726-5.171,0-7.7-2.073-8.944-4.08a5.843,5.843,0,0,1-.221-5.658c3.163-6.4,13.2-26.853,16.915-36.129,4.438-11.076,13.983-61.269,19.218-78.721s11.153-36.382,33.951-53.819C521.964,1069.625,537.614,1054.3,550.1,1069.625Z" transform="translate(-1.776 -140.133)" fill="#ffd4d8"/>
        <path id="Path_7" data-name="Path 7" d="M618.961,811.184c14.1-59.758-21.624-93.556-21.624-93.556,22.542-21.638,63.614-31.484,63.614-31.484s39.192,28.652,34.542,51.079c-2.724,13.145-27.548,78.732-27.548,78.732S644.992,826.818,618.961,811.184Z" transform="translate(-36.105 -51.616)" fill="url(#linear-gradient-5)"/>
        <path id="Path_8" data-name="Path 8" d="M574.552,879.179c5.739-17.29,31.267-29.584,31.267-29.584,26.031,15.634,48.984,4.771,48.984,4.771s5.148,19.676,1.6,37.961-25.843,135.8-25.843,135.8c-35.122,7.116-89.139-7.16-89.139-7.16C563.788,981.247,568.813,896.469,574.552,879.179Z" transform="translate(-22.964 -90.027)"/>
        <path id="Path_9" data-name="Path 9" d="M643.424,633.015l-11.466,51.5c-1.1,4.536,3.038,3.794,7.624,2.929,7.511-1.416,17.191-4.332,20.428-10.177a5.56,5.56,0,0,0,.587-1.941l4.926-35.712a6.418,6.418,0,0,0-3.756-6.743l-9.505-4.215A6.417,6.417,0,0,0,643.424,633.015Z" transform="translate(-44.199 -37.977)" fill="#ffd4d8"/>
        <path id="Path_10" data-name="Path 10" d="M585.417,727.3s-80.023,57.253-10.234,117.414a18.027,18.027,0,0,0,7.9,4.575c2.642.79,10.461,6.705,14.425,9.789a2.715,2.715,0,0,0,3.972-.714h0a3.709,3.709,0,0,0,.21-3.556l-9.908-20.95a7.641,7.641,0,0,0-9.924-.43h0a3.77,3.77,0,0,1-5.717-1.294c-5.395-10.988-15.582-43.3,26.113-79.821a4.519,4.519,0,0,0,1-5.491C600.322,741.194,593.622,730.019,585.417,727.3Z" transform="translate(-24.185 -61.288)" fill="#ffd4d8"/>
        <path id="Path_11" data-name="Path 11" d="M657.158,570.175s13.579,5.734,22.812,25.356,2.338,28.682-6.323,29.926-21.613,1.054-35.313-11.622S639.506,563.378,657.158,570.175Z" transform="translate(-44.481 -24.172)" fill="#ffd4d8"/>
        <path id="Path_12" data-name="Path 12" d="M642.952,597.987s-10.245-28.708,15.207-29.048l5.989,4.186s9.339-15.917-5.989-23.515-33.267-1.322-39.79,19.328-7.636,34.474,3.215,44.355,15.324-1.323,15.324-1.323-5.91-9.24-3.5-14.185,7.954,1.023,7.954,1.023Z" transform="translate(-39.889 -18.8)"/>
        <path id="Path_13" data-name="Path 13" d="M643.949,614.823s-5.18-14.787-12.09-8.9,5.616,13.66,10.52,16.177Z" transform="translate(-43.74 -32.439)" fill="#ffd4d8"/>
        <g id="Group_2" data-name="Group 2" transform="translate(715.025 466.502)">
          <path id="Path_14" data-name="Path 14" d="M808.992,523.579c.549,1.746-5.811,4.4-9.556-2.737-.131-3.423-2.212-18.085-.167-20.874,10.893-14.85,32.011-33.466,32.011-33.466a5.027,5.027,0,0,1,.629,6.982l-10.245,10.672c2.143,3.872,4.756,7.14,5.982,11.825a14.354,14.354,0,0,1-1.431,10.565c-1.8,3.241-4.252,7.452-6.571,10.747A14.177,14.177,0,0,1,808.992,523.579Z" transform="translate(-798.373 -466.502)" fill="#ffd4d8"/>
          <path id="Path_15" data-name="Path 15" d="M816.045,523.44l-2.254-.4c.291-1.623,2.9-15.946,5.032-19.416a4.272,4.272,0,0,0,.9-3.036,1.859,1.859,0,0,0-.747-.97l-8.482,7.189-2.826,7.6-2.147-.8,3.037-8.159,10.145-8.6.679.347a4.53,4.53,0,0,1,2.544,2.774c.386,1.375.008,2.962-1.154,4.853C819.16,507.444,816.813,519.15,816.045,523.44Z" transform="translate(-800.053 -473.633)" fill="#fcb9c1"/>
        </g>
      </g>
    </g>
  </g>
</svg>
