<?xml version="1.0" encoding="UTF-8"?>
<svg xmlns="http://www.w3.org/2000/svg" xmlns:xlink="http://www.w3.org/1999/xlink" width="238pt" height="65pt" viewBox="0 0 238 65" version="1.1">
<g id="surface1">
<path style=" stroke:none;fill-rule:evenodd;fill:rgb(22.352941%,75.686275%,83.137255%);fill-opacity:1;" d="M 36.035156 41.003906 L 36.949219 41.320312 C 36.949219 41.320312 36.914062 44.726562 36.386719 44.589844 C 35.859375 44.449219 34.597656 44.34375 34.351562 43.710938 C 34.105469 43.078125 32.492188 46.871094 31.859375 45.679688 C 31.859375 45.679688 31.71875 44.273438 31.085938 44.414062 C 30.457031 44.554688 29.472656 47.082031 28.769531 45.992188 C 28.769531 45.992188 28.734375 45.082031 28.3125 45.011719 C 27.894531 44.941406 25.960938 46.484375 25.402344 45.429688 C 25.402344 45.429688 25.714844 43.78125 24.277344 44.0625 C 22.839844 44.34375 21.644531 45.011719 21.609375 43.746094 C 21.609375 43.746094 22.347656 42.65625 21.539062 42.621094 C 20.734375 42.585938 18.976562 42.796875 19.328125 41.8125 C 19.328125 41.8125 21.117188 39.179688 19.644531 39.390625 C 19.644531 39.390625 15.574219 40.515625 17.46875 37.351562 C 17.46875 37.351562 19.925781 30.46875 28.699219 31.871094 C 28.699219 31.871094 29.261719 39.847656 36.035156 41.003906 Z M 36.035156 41.003906 "/>
<path style=" stroke:none;fill-rule:evenodd;fill:rgb(99.607843%,99.607843%,99.607843%);fill-opacity:1;" d="M 25.03125 32.882812 L 25.078125 32.988281 C 25.078125 32.988281 20.949219 34.0625 21.21875 38.691406 C 20.398438 33.789062 24.582031 32.664062 25.03125 32.882812 Z M 25.03125 32.882812 "/>
<path style=" stroke:none;fill-rule:evenodd;fill:rgb(99.607843%,99.607843%,99.607843%);fill-opacity:1;" d="M 26.019531 33.933594 L 26.113281 34 C 26.113281 34 23.011719 36.933594 25.476562 40.859375 C 22.398438 36.960938 25.519531 33.953125 26.019531 33.933594 Z M 26.019531 33.933594 "/>
<path style=" stroke:none;fill-rule:evenodd;fill:rgb(99.607843%,99.607843%,99.607843%);fill-opacity:1;" d="M 26.96875 34.265625 L 27.078125 34.296875 C 27.078125 34.296875 25.175781 38.121094 28.84375 40.957031 C 24.609375 38.359375 26.507812 34.460938 26.96875 34.265625 Z M 26.96875 34.265625 "/>
<path style=" stroke:none;fill-rule:evenodd;fill:rgb(99.607843%,99.607843%,99.607843%);fill-opacity:1;" d="M 28.558594 35.070312 L 28.652344 35.078125 C 28.652344 35.078125 27.757812 38.367188 31.070312 40.015625 C 27.351562 38.640625 28.230469 35.292969 28.558594 35.070312 Z M 28.558594 35.070312 "/>
<path style=" stroke:none;fill-rule:evenodd;fill:rgb(22.352941%,75.686275%,83.137255%);fill-opacity:1;" d="M 23.640625 23.824219 L 22.726562 23.511719 C 22.726562 23.511719 22.761719 20.101562 23.289062 20.242188 C 23.816406 20.382812 25.078125 20.488281 25.324219 21.121094 C 25.570312 21.753906 27.183594 17.960938 27.816406 19.15625 C 27.816406 19.15625 27.957031 20.558594 28.589844 20.417969 C 29.21875 20.277344 30.203125 17.75 30.90625 18.839844 C 30.90625 18.839844 30.941406 19.75 31.363281 19.820312 C 31.78125 19.890625 33.714844 18.347656 34.273438 19.398438 C 34.273438 19.398438 33.960938 21.050781 35.398438 20.769531 C 36.835938 20.488281 38.03125 19.820312 38.066406 21.085938 C 38.066406 21.085938 37.328125 22.175781 38.136719 22.210938 C 38.941406 22.246094 40.699219 22.035156 40.347656 23.019531 C 40.347656 23.019531 38.558594 25.652344 40.03125 25.441406 C 40.03125 25.441406 44.101562 24.316406 42.207031 27.480469 C 42.207031 27.480469 39.75 34.363281 30.976562 32.957031 C 30.976562 32.957031 30.414062 24.984375 23.640625 23.824219 Z M 23.640625 23.824219 "/>
<path style=" stroke:none;fill-rule:evenodd;fill:rgb(99.607843%,99.607843%,99.607843%);fill-opacity:1;" d="M 34.644531 31.949219 L 34.597656 31.84375 C 34.597656 31.84375 38.726562 30.769531 38.457031 26.140625 C 39.277344 31.042969 35.09375 32.167969 34.644531 31.949219 Z M 34.644531 31.949219 "/>
<path style=" stroke:none;fill-rule:evenodd;fill:rgb(99.607843%,99.607843%,99.607843%);fill-opacity:1;" d="M 33.65625 30.898438 L 33.5625 30.832031 C 33.5625 30.832031 36.664062 27.898438 34.199219 23.972656 C 37.277344 27.871094 34.15625 30.875 33.65625 30.898438 Z M 33.65625 30.898438 "/>
<path style=" stroke:none;fill-rule:evenodd;fill:rgb(99.607843%,99.607843%,99.607843%);fill-opacity:1;" d="M 32.707031 30.566406 L 32.597656 30.535156 C 32.597656 30.535156 34.5 26.710938 30.832031 23.875 C 35.066406 26.472656 33.167969 30.371094 32.707031 30.566406 Z M 32.707031 30.566406 "/>
<path style=" stroke:none;fill-rule:evenodd;fill:rgb(99.607843%,99.607843%,99.607843%);fill-opacity:1;" d="M 31.117188 29.761719 L 31.027344 29.753906 C 31.027344 29.753906 31.917969 26.464844 28.605469 24.816406 C 32.324219 26.191406 31.445312 29.539062 31.117188 29.761719 Z M 31.117188 29.761719 "/>
<path style=" stroke:none;fill-rule:evenodd;fill:rgb(22.352941%,75.686275%,83.137255%);fill-opacity:1;" d="M 30.257812 12.59375 C 41.171875 12.59375 50.019531 21.449219 50.019531 32.371094 C 50.019531 43.292969 41.171875 52.148438 30.257812 52.148438 C 19.34375 52.148438 10.496094 43.292969 10.496094 32.371094 C 10.496094 21.449219 19.34375 12.59375 30.257812 12.59375 Z M 30.257812 14.878906 C 39.910156 14.878906 47.738281 22.710938 47.738281 32.371094 C 47.738281 42.03125 39.910156 49.863281 30.257812 49.863281 C 20.605469 49.863281 12.777344 42.03125 12.777344 32.371094 C 12.777344 22.710938 20.605469 14.878906 30.257812 14.878906 Z M 30.257812 14.878906 "/>
<path style=" stroke:none;fill-rule:nonzero;fill:rgb(21.568627%,20.392157%,20.784314%);fill-opacity:1;" d="M 56.171875 38.433594 L 56.171875 16.910156 L 61.277344 16.910156 C 63.210938 16.910156 64.472656 17.015625 65.058594 17.234375 C 65.960938 17.558594 66.71875 18.257812 67.328125 19.339844 C 67.9375 20.421875 68.242188 21.820312 68.242188 23.535156 C 68.242188 24.855469 68.066406 25.964844 67.714844 26.867188 C 67.363281 27.765625 66.921875 28.472656 66.382812 28.988281 C 65.839844 29.5 65.289062 29.839844 64.734375 30.007812 C 63.972656 30.210938 62.875 30.316406 61.4375 30.316406 L 59.367188 30.316406 L 59.367188 38.433594 Z M 59.367188 20.546875 L 59.367188 26.679688 L 61.101562 26.679688 C 62.355469 26.679688 63.1875 26.566406 63.609375 26.339844 C 64.03125 26.113281 64.363281 25.761719 64.601562 25.277344 C 64.839844 24.796875 64.960938 24.242188 64.960938 23.597656 C 64.960938 22.8125 64.789062 22.167969 64.457031 21.65625 C 64.121094 21.144531 63.695312 20.824219 63.179688 20.695312 C 62.800781 20.597656 62.042969 20.546875 60.898438 20.546875 Z M 83.433594 38.433594 L 79.996094 38.433594 L 78.632812 33.535156 L 72.308594 33.535156 L 71 38.433594 L 67.621094 38.433594 L 73.746094 16.910156 L 77.117188 16.910156 Z M 77.597656 29.898438 L 75.40625 21.929688 L 73.277344 29.898438 Z M 87.046875 38.433594 L 87.046875 20.546875 L 82.378906 20.546875 L 82.378906 16.910156 L 94.886719 16.910156 L 94.886719 20.546875 L 90.242188 20.546875 L 90.242188 38.433594 Z M 109.527344 38.433594 L 106.089844 38.433594 L 104.726562 33.535156 L 98.402344 33.535156 L 97.089844 38.433594 L 93.714844 38.433594 L 99.835938 16.910156 L 103.210938 16.910156 Z M 103.691406 29.898438 L 101.5 21.929688 L 99.371094 29.898438 Z M 111.273438 38.433594 L 111.273438 16.910156 L 114.464844 16.910156 L 114.464844 26.445312 L 120.902344 16.910156 L 125.179688 16.910156 L 119.230469 25.292969 L 125.488281 38.433594 L 121.371094 38.433594 L 117.03125 28.328125 L 114.464844 31.925781 L 114.464844 38.433594 Z M 141.339844 38.433594 L 137.902344 38.433594 L 136.539062 33.535156 L 130.214844 33.535156 L 128.902344 38.433594 L 125.527344 38.433594 L 131.648438 16.910156 L 135.023438 16.910156 Z M 135.503906 29.898438 L 133.3125 21.929688 L 131.183594 29.898438 Z M 143.039062 38.433594 L 143.039062 16.910156 L 149.746094 16.910156 C 151.429688 16.910156 152.65625 17.105469 153.421875 17.492188 C 154.1875 17.878906 154.796875 18.566406 155.257812 19.550781 C 155.714844 20.542969 155.945312 21.671875 155.945312 22.945312 C 155.945312 24.5625 155.601562 25.894531 154.90625 26.945312 C 154.214844 27.996094 153.179688 28.660156 151.796875 28.933594 C 152.484375 29.480469 153.050781 30.082031 153.496094 30.738281 C 153.941406 31.394531 154.542969 32.5625 155.300781 34.234375 L 157.222656 38.433594 L 153.417969 38.433594 L 151.132812 33.734375 C 150.316406 32.066406 149.753906 31.011719 149.449219 30.578125 C 149.148438 30.148438 148.828125 29.847656 148.492188 29.6875 C 148.148438 29.527344 147.613281 29.445312 146.878906 29.445312 L 146.234375 29.445312 L 146.234375 38.433594 Z M 146.234375 26.019531 L 148.589844 26.019531 C 150.117188 26.019531 151.066406 25.929688 151.449219 25.753906 C 151.828125 25.578125 152.128906 25.273438 152.339844 24.84375 C 152.558594 24.410156 152.664062 23.871094 152.664062 23.222656 C 152.664062 22.496094 152.523438 21.917969 152.238281 21.464844 C 151.957031 21.019531 151.554688 20.738281 151.042969 20.625 C 150.78125 20.574219 150.007812 20.546875 148.71875 20.546875 L 146.234375 20.546875 Z M 158.945312 38.433594 L 158.945312 16.910156 L 170.617188 16.910156 L 170.617188 20.546875 L 162.140625 20.546875 L 162.140625 25.328125 L 170.023438 25.328125 L 170.023438 28.964844 L 162.140625 28.964844 L 162.140625 34.796875 L 170.925781 34.796875 L 170.925781 38.433594 Z M 189.84375 30.496094 L 192.925781 31.789062 C 192.453125 34.160156 191.664062 35.917969 190.5625 37.070312 C 189.460938 38.21875 188.066406 38.792969 186.375 38.792969 C 184.277344 38.792969 182.554688 37.816406 181.207031 35.863281 C 179.859375 33.910156 179.183594 31.238281 179.183594 27.847656 C 179.183594 24.265625 179.863281 21.480469 181.21875 19.496094 C 182.570312 17.511719 184.355469 16.519531 186.566406 16.519531 C 188.496094 16.519531 190.0625 17.300781 191.265625 18.859375 C 191.988281 19.78125 192.523438 21.105469 192.882812 22.832031 L 189.734375 23.855469 C 189.546875 22.742188 189.15625 21.859375 188.566406 21.214844 C 187.972656 20.570312 187.25 20.25 186.40625 20.25 C 185.238281 20.25 184.285156 20.820312 183.558594 21.964844 C 182.828125 23.109375 182.464844 24.960938 182.464844 27.527344 C 182.464844 30.242188 182.824219 32.179688 183.539062 33.332031 C 184.257812 34.488281 185.191406 35.066406 186.339844 35.066406 C 187.1875 35.066406 187.917969 34.699219 188.527344 33.964844 C 189.136719 33.226562 189.578125 32.074219 189.84375 30.496094 Z M 195 27.800781 C 195 25.609375 195.242188 23.765625 195.722656 22.273438 C 196.082031 21.175781 196.570312 20.1875 197.191406 19.316406 C 197.8125 18.445312 198.492188 17.796875 199.230469 17.371094 C 200.214844 16.808594 201.347656 16.519531 202.632812 16.519531 C 204.960938 16.519531 206.816406 17.507812 208.214844 19.476562 C 209.609375 21.449219 210.308594 24.191406 210.308594 27.703125 C 210.308594 31.183594 209.613281 33.910156 208.230469 35.871094 C 206.847656 37.839844 204.992188 38.824219 202.675781 38.824219 C 200.332031 38.824219 198.460938 37.847656 197.078125 35.886719 C 195.695312 33.933594 195 31.238281 195 27.800781 Z M 198.28125 27.65625 C 198.28125 30.097656 198.699219 31.945312 199.523438 33.207031 C 200.351562 34.464844 201.398438 35.097656 202.667969 35.097656 C 203.941406 35.097656 204.984375 34.46875 205.804688 33.222656 C 206.617188 31.96875 207.027344 30.097656 207.027344 27.597656 C 207.027344 25.128906 206.628906 23.285156 205.832031 22.070312 C 205.039062 20.855469 203.988281 20.25 202.667969 20.25 C 201.355469 20.25 200.292969 20.863281 199.488281 22.089844 C 198.6875 23.324219 198.28125 25.175781 198.28125 27.65625 Z M 212.75 38.433594 L 212.75 16.910156 L 217.53125 16.910156 L 220.359375 31.589844 L 223.152344 16.910156 L 227.949219 16.910156 L 227.949219 38.433594 L 224.996094 38.433594 L 224.984375 21.492188 L 221.875 38.433594 L 218.808594 38.433594 L 215.710938 21.492188 L 215.699219 38.433594 Z M 173.59375 38.433594 L 173.59375 34.316406 L 176.609375 34.316406 L 176.609375 38.433594 Z M 173.59375 38.433594 "/>
<path style=" stroke:none;fill-rule:nonzero;fill:rgb(44.705882%,45.098039%,46.27451%);fill-opacity:1;" d="M 59.363281 47.867188 L 60.40625 48.003906 C 60.242188 48.609375 59.941406 49.078125 59.496094 49.414062 C 59.054688 49.746094 58.488281 49.914062 57.800781 49.914062 C 56.933594 49.914062 56.246094 49.648438 55.738281 49.113281 C 55.230469 48.582031 54.980469 47.832031 54.980469 46.867188 C 54.980469 45.871094 55.234375 45.09375 55.746094 44.542969 C 56.261719 43.992188 56.925781 43.71875 57.746094 43.71875 C 58.539062 43.71875 59.183594 43.988281 59.6875 44.527344 C 60.1875 45.066406 60.4375 45.828125 60.4375 46.808594 C 60.4375 46.867188 60.4375 46.957031 60.433594 47.074219 L 56.007812 47.074219 C 56.046875 47.726562 56.230469 48.226562 56.5625 48.570312 C 56.890625 48.917969 57.308594 49.089844 57.800781 49.089844 C 58.167969 49.089844 58.484375 48.992188 58.742188 48.800781 C 59.003906 48.605469 59.210938 48.292969 59.363281 47.867188 Z M 56.066406 46.25 L 59.375 46.25 C 59.332031 45.75 59.203125 45.375 58.996094 45.125 C 58.675781 44.738281 58.261719 44.542969 57.75 44.542969 C 57.289062 44.542969 56.902344 44.699219 56.585938 45.007812 C 56.273438 45.316406 56.101562 45.730469 56.066406 46.25 Z M 60.992188 49.789062 L 63.160156 46.710938 L 61.152344 43.84375 L 62.390625 43.84375 L 63.328125 45.246094 C 63.503906 45.511719 63.640625 45.722656 63.738281 45.890625 C 63.90625 45.652344 64.058594 45.4375 64.191406 45.246094 L 65.183594 43.84375 L 66.414062 43.84375 L 64.390625 46.710938 L 66.542969 49.789062 L 65.320312 49.789062 L 64.089844 47.957031 L 63.808594 47.515625 L 62.222656 49.789062 Z M 67.402344 52.070312 L 67.402344 43.84375 L 68.316406 43.84375 L 68.316406 44.625 C 68.535156 44.324219 68.777344 44.097656 69.050781 43.945312 C 69.320312 43.792969 69.652344 43.71875 70.039062 43.71875 C 70.546875 43.71875 70.992188 43.847656 71.382812 44.109375 C 71.769531 44.367188 72.058594 44.738281 72.257812 45.210938 C 72.457031 45.6875 72.554688 46.207031 72.554688 46.773438 C 72.554688 47.378906 72.445312 47.925781 72.226562 48.410156 C 72.011719 48.898438 71.695312 49.269531 71.277344 49.527344 C 70.863281 49.785156 70.425781 49.914062 69.96875 49.914062 C 69.632812 49.914062 69.332031 49.84375 69.066406 49.703125 C 68.800781 49.5625 68.582031 49.386719 68.410156 49.171875 L 68.410156 52.070312 Z M 68.316406 46.851562 C 68.316406 47.613281 68.472656 48.179688 68.78125 48.542969 C 69.089844 48.90625 69.464844 49.089844 69.902344 49.089844 C 70.347656 49.089844 70.730469 48.902344 71.046875 48.523438 C 71.367188 48.144531 71.523438 47.5625 71.523438 46.769531 C 71.523438 46.011719 71.371094 45.449219 71.058594 45.070312 C 70.746094 44.695312 70.378906 44.507812 69.945312 44.507812 C 69.519531 44.507812 69.140625 44.707031 68.8125 45.109375 C 68.484375 45.507812 68.316406 46.089844 68.316406 46.851562 Z M 77.824219 47.867188 L 78.863281 48.003906 C 78.703125 48.609375 78.398438 49.078125 77.957031 49.414062 C 77.515625 49.746094 76.949219 49.914062 76.261719 49.914062 C 75.394531 49.914062 74.707031 49.648438 74.199219 49.113281 C 73.691406 48.582031 73.4375 47.832031 73.4375 46.867188 C 73.4375 45.871094 73.695312 45.09375 74.207031 44.542969 C 74.71875 43.992188 75.386719 43.71875 76.207031 43.71875 C 76.996094 43.71875 77.644531 43.988281 78.144531 44.527344 C 78.648438 45.066406 78.898438 45.828125 78.898438 46.808594 C 78.898438 46.867188 78.898438 46.957031 78.894531 47.074219 L 74.46875 47.074219 C 74.507812 47.726562 74.691406 48.226562 75.023438 48.570312 C 75.351562 48.917969 75.765625 49.089844 76.261719 49.089844 C 76.628906 49.089844 76.941406 48.992188 77.203125 48.800781 C 77.464844 48.605469 77.671875 48.292969 77.824219 47.867188 Z M 74.527344 46.25 L 77.835938 46.25 C 77.789062 45.75 77.664062 45.375 77.457031 45.125 C 77.136719 44.738281 76.71875 44.542969 76.210938 44.542969 C 75.75 44.542969 75.363281 44.699219 75.046875 45.007812 C 74.734375 45.316406 74.558594 45.730469 74.527344 46.25 Z M 80.128906 49.789062 L 80.128906 43.84375 L 81.03125 43.84375 L 81.03125 44.753906 C 81.261719 44.332031 81.476562 44.054688 81.671875 43.917969 C 81.867188 43.785156 82.085938 43.71875 82.320312 43.71875 C 82.660156 43.71875 83.003906 43.824219 83.355469 44.035156 L 82.996094 44.96875 C 82.753906 44.828125 82.507812 44.761719 82.261719 44.761719 C 82.042969 44.761719 81.847656 44.828125 81.671875 44.960938 C 81.5 45.089844 81.375 45.273438 81.300781 45.507812 C 81.1875 45.867188 81.132812 46.257812 81.132812 46.683594 L 81.132812 49.789062 Z M 83.949219 42.730469 L 83.949219 41.585938 L 84.957031 41.585938 L 84.957031 42.730469 Z M 83.949219 49.789062 L 83.949219 43.84375 L 84.957031 43.84375 L 84.957031 49.789062 Z M 90.546875 47.867188 L 91.589844 48.003906 C 91.425781 48.609375 91.125 49.078125 90.679688 49.414062 C 90.238281 49.746094 89.671875 49.914062 88.984375 49.914062 C 88.117188 49.914062 87.429688 49.648438 86.921875 49.113281 C 86.414062 48.582031 86.160156 47.832031 86.160156 46.867188 C 86.160156 45.871094 86.417969 45.09375 86.929688 44.542969 C 87.445312 43.992188 88.109375 43.71875 88.929688 43.71875 C 89.71875 43.71875 90.367188 43.988281 90.871094 44.527344 C 91.371094 45.066406 91.625 45.828125 91.625 46.808594 C 91.625 46.867188 91.621094 46.957031 91.617188 47.074219 L 87.191406 47.074219 C 87.230469 47.726562 87.414062 48.226562 87.746094 48.570312 C 88.078125 48.917969 88.488281 49.089844 88.984375 49.089844 C 89.351562 49.089844 89.667969 48.992188 89.925781 48.800781 C 90.1875 48.605469 90.394531 48.292969 90.546875 47.867188 Z M 87.25 46.25 L 90.558594 46.25 C 90.515625 45.75 90.386719 45.375 90.179688 45.125 C 89.859375 44.738281 89.445312 44.542969 88.933594 44.542969 C 88.472656 44.542969 88.085938 44.699219 87.769531 45.007812 C 87.457031 45.316406 87.285156 45.730469 87.25 46.25 Z M 92.863281 49.789062 L 92.863281 43.84375 L 93.765625 43.84375 L 93.765625 44.6875 C 94.203125 44.039062 94.832031 43.71875 95.652344 43.71875 C 96.011719 43.71875 96.339844 43.78125 96.640625 43.910156 C 96.941406 44.039062 97.164062 44.207031 97.3125 44.417969 C 97.460938 44.625 97.566406 44.871094 97.625 45.160156 C 97.664062 45.347656 97.683594 45.671875 97.683594 46.140625 L 97.683594 49.789062 L 96.675781 49.789062 L 96.675781 46.179688 C 96.675781 45.765625 96.636719 45.460938 96.558594 45.257812 C 96.480469 45.054688 96.339844 44.890625 96.140625 44.769531 C 95.945312 44.648438 95.710938 44.589844 95.441406 44.589844 C 95.015625 44.589844 94.644531 44.722656 94.335938 44.996094 C 94.023438 45.269531 93.871094 45.785156 93.871094 46.546875 L 93.871094 49.789062 Z M 103.109375 47.613281 L 104.09375 47.75 C 103.988281 48.429688 103.710938 48.957031 103.265625 49.339844 C 102.824219 49.726562 102.273438 49.914062 101.628906 49.914062 C 100.816406 49.914062 100.164062 49.652344 99.671875 49.121094 C 99.179688 48.589844 98.933594 47.828125 98.933594 46.839844 C 98.933594 46.199219 99.039062 45.636719 99.25 45.15625 C 99.460938 44.679688 99.785156 44.316406 100.21875 44.078125 C 100.652344 43.839844 101.125 43.71875 101.636719 43.71875 C 102.277344 43.71875 102.808594 43.878906 103.214844 44.207031 C 103.625 44.53125 103.890625 44.996094 104.003906 45.597656 L 103.03125 45.746094 C 102.9375 45.347656 102.773438 45.046875 102.535156 44.84375 C 102.296875 44.644531 102.011719 44.542969 101.675781 44.542969 C 101.167969 44.542969 100.757812 44.722656 100.4375 45.085938 C 100.121094 45.453125 99.960938 46.023438 99.960938 46.8125 C 99.960938 47.609375 100.113281 48.1875 100.421875 48.550781 C 100.726562 48.910156 101.125 49.089844 101.617188 49.089844 C 102.015625 49.089844 102.34375 48.96875 102.605469 48.726562 C 102.871094 48.488281 103.039062 48.117188 103.109375 47.613281 Z M 109.007812 47.867188 L 110.050781 48.003906 C 109.886719 48.609375 109.582031 49.078125 109.140625 49.414062 C 108.699219 49.746094 108.132812 49.914062 107.445312 49.914062 C 106.578125 49.914062 105.890625 49.648438 105.382812 49.113281 C 104.875 48.582031 104.621094 47.832031 104.621094 46.867188 C 104.621094 45.871094 104.878906 45.09375 105.390625 44.542969 C 105.90625 43.992188 106.570312 43.71875 107.390625 43.71875 C 108.179688 43.71875 108.828125 43.988281 109.328125 44.527344 C 109.832031 45.066406 110.082031 45.828125 110.082031 46.808594 C 110.082031 46.867188 110.082031 46.957031 110.078125 47.074219 L 105.652344 47.074219 C 105.691406 47.726562 105.875 48.226562 106.207031 48.570312 C 106.535156 48.917969 106.949219 49.089844 107.445312 49.089844 C 107.8125 49.089844 108.128906 48.992188 108.386719 48.800781 C 108.648438 48.605469 108.855469 48.292969 109.007812 47.867188 Z M 105.710938 46.25 L 109.019531 46.25 C 108.976562 45.75 108.847656 45.375 108.640625 45.125 C 108.320312 44.738281 107.902344 44.542969 107.394531 44.542969 C 106.933594 44.542969 106.546875 44.699219 106.230469 45.007812 C 105.917969 45.316406 105.742188 45.730469 105.710938 46.25 Z M 114.503906 49.789062 L 114.503906 43.84375 L 115.40625 43.84375 L 115.40625 44.683594 C 115.59375 44.394531 115.839844 44.160156 116.148438 43.984375 C 116.457031 43.804688 116.808594 43.71875 117.203125 43.71875 C 117.644531 43.71875 118.003906 43.808594 118.285156 43.992188 C 118.566406 44.171875 118.761719 44.429688 118.878906 44.757812 C 119.351562 44.0625 119.964844 43.71875 120.71875 43.71875 C 121.3125 43.71875 121.765625 43.878906 122.085938 44.207031 C 122.402344 44.53125 122.5625 45.035156 122.5625 45.710938 L 122.5625 49.789062 L 121.554688 49.789062 L 121.554688 46.046875 C 121.554688 45.648438 121.519531 45.355469 121.457031 45.179688 C 121.390625 45 121.273438 44.859375 121.097656 44.75 C 120.925781 44.640625 120.726562 44.589844 120.496094 44.589844 C 120.074219 44.589844 119.726562 44.726562 119.449219 45.003906 C 119.175781 45.285156 119.035156 45.726562 119.035156 46.339844 L 119.035156 49.789062 L 118.027344 49.789062 L 118.027344 45.929688 C 118.027344 45.484375 117.945312 45.148438 117.78125 44.925781 C 117.617188 44.703125 117.347656 44.589844 116.976562 44.589844 C 116.695312 44.589844 116.433594 44.664062 116.191406 44.8125 C 115.953125 44.960938 115.777344 45.179688 115.671875 45.46875 C 115.5625 45.753906 115.511719 46.167969 115.511719 46.707031 L 115.511719 49.789062 Z M 128.09375 47.867188 L 129.136719 48.003906 C 128.972656 48.609375 128.667969 49.078125 128.226562 49.414062 C 127.785156 49.746094 127.21875 49.914062 126.53125 49.914062 C 125.664062 49.914062 124.976562 49.648438 124.46875 49.113281 C 123.960938 48.582031 123.707031 47.832031 123.707031 46.867188 C 123.707031 45.871094 123.964844 45.09375 124.476562 44.542969 C 124.988281 43.992188 125.65625 43.71875 126.476562 43.71875 C 127.265625 43.71875 127.914062 43.988281 128.414062 44.527344 C 128.917969 45.066406 129.167969 45.828125 129.167969 46.808594 C 129.167969 46.867188 129.167969 46.957031 129.164062 47.074219 L 124.738281 47.074219 C 124.777344 47.726562 124.960938 48.226562 125.292969 48.570312 C 125.621094 48.917969 126.035156 49.089844 126.53125 49.089844 C 126.898438 49.089844 127.214844 48.992188 127.472656 48.800781 C 127.734375 48.605469 127.941406 48.292969 128.09375 47.867188 Z M 124.796875 46.25 L 128.105469 46.25 C 128.0625 45.75 127.933594 45.375 127.722656 45.125 C 127.40625 44.738281 126.988281 44.542969 126.480469 44.542969 C 126.019531 44.542969 125.632812 44.699219 125.316406 45.007812 C 125.003906 45.316406 124.828125 45.730469 124.796875 46.25 Z M 134.242188 49.789062 L 134.242188 49.035156 C 133.867188 49.621094 133.3125 49.914062 132.582031 49.914062 C 132.109375 49.914062 131.675781 49.785156 131.28125 49.523438 C 130.882812 49.265625 130.574219 48.898438 130.355469 48.433594 C 130.140625 47.964844 130.03125 47.429688 130.03125 46.824219 C 130.03125 46.230469 130.128906 45.695312 130.324219 45.210938 C 130.523438 44.730469 130.820312 44.359375 131.214844 44.105469 C 131.609375 43.84375 132.050781 43.71875 132.535156 43.71875 C 132.894531 43.71875 133.214844 43.792969 133.492188 43.945312 C 133.773438 44.097656 133.996094 44.292969 134.175781 44.535156 L 134.175781 41.585938 L 135.179688 41.585938 L 135.179688 49.789062 Z M 131.058594 46.824219 C 131.058594 47.585938 131.21875 48.152344 131.542969 48.527344 C 131.863281 48.90625 132.242188 49.089844 132.679688 49.089844 C 133.121094 49.089844 133.496094 48.910156 133.804688 48.554688 C 134.109375 48.195312 134.265625 47.644531 134.265625 46.910156 C 134.265625 46.097656 134.109375 45.503906 133.792969 45.125 C 133.480469 44.742188 133.09375 44.554688 132.632812 44.554688 C 132.1875 44.554688 131.8125 44.734375 131.511719 45.101562 C 131.210938 45.464844 131.058594 46.039062 131.058594 46.824219 Z M 136.773438 42.730469 L 136.773438 41.585938 L 137.78125 41.585938 L 137.78125 42.730469 Z M 136.773438 49.789062 L 136.773438 43.84375 L 137.78125 43.84375 L 137.78125 49.789062 Z M 143.199219 47.613281 L 144.183594 47.75 C 144.074219 48.429688 143.800781 48.957031 143.355469 49.339844 C 142.910156 49.726562 142.363281 49.914062 141.71875 49.914062 C 140.90625 49.914062 140.253906 49.652344 139.761719 49.121094 C 139.265625 48.589844 139.019531 47.828125 139.019531 46.839844 C 139.019531 46.199219 139.128906 45.636719 139.339844 45.15625 C 139.550781 44.679688 139.875 44.316406 140.308594 44.078125 C 140.742188 43.839844 141.214844 43.71875 141.726562 43.71875 C 142.367188 43.71875 142.898438 43.878906 143.304688 44.207031 C 143.714844 44.53125 143.976562 44.996094 144.09375 45.597656 L 143.121094 45.746094 C 143.027344 45.347656 142.863281 45.046875 142.625 44.84375 C 142.386719 44.644531 142.101562 44.542969 141.765625 44.542969 C 141.257812 44.542969 140.84375 44.722656 140.527344 45.085938 C 140.210938 45.453125 140.050781 46.023438 140.050781 46.8125 C 140.050781 47.609375 140.203125 48.1875 140.507812 48.550781 C 140.816406 48.910156 141.214844 49.089844 141.707031 49.089844 C 142.101562 49.089844 142.433594 48.96875 142.695312 48.726562 C 142.960938 48.488281 143.128906 48.117188 143.199219 47.613281 Z M 148.925781 49.046875 C 148.550781 49.363281 148.191406 49.585938 147.84375 49.71875 C 147.5 49.851562 147.128906 49.914062 146.730469 49.914062 C 146.078125 49.914062 145.578125 49.757812 145.226562 49.4375 C 144.875 49.121094 144.699219 48.714844 144.699219 48.21875 C 144.699219 47.929688 144.765625 47.664062 144.898438 47.425781 C 145.03125 47.183594 145.207031 46.992188 145.417969 46.847656 C 145.636719 46.703125 145.875 46.589844 146.144531 46.515625 C 146.34375 46.464844 146.644531 46.414062 147.039062 46.367188 C 147.855469 46.269531 148.453125 46.15625 148.839844 46.019531 C 148.84375 45.882812 148.84375 45.796875 148.84375 45.757812 C 148.84375 45.351562 148.75 45.0625 148.558594 44.894531 C 148.300781 44.667969 147.917969 44.554688 147.410156 44.554688 C 146.933594 44.554688 146.582031 44.636719 146.359375 44.804688 C 146.132812 44.96875 145.964844 45.265625 145.855469 45.6875 L 144.871094 45.550781 C 144.960938 45.128906 145.109375 44.785156 145.3125 44.527344 C 145.519531 44.265625 145.820312 44.070312 146.207031 43.929688 C 146.59375 43.789062 147.046875 43.71875 147.558594 43.71875 C 148.066406 43.71875 148.480469 43.777344 148.796875 43.898438 C 149.117188 44.015625 149.351562 44.167969 149.5 44.347656 C 149.648438 44.53125 149.753906 44.757812 149.8125 45.035156 C 149.847656 45.207031 149.863281 45.515625 149.863281 45.960938 L 149.863281 47.296875 C 149.863281 48.230469 149.882812 48.824219 149.925781 49.074219 C 149.964844 49.324219 150.050781 49.5625 150.171875 49.789062 L 149.117188 49.789062 C 149.019531 49.578125 148.953125 49.332031 148.925781 49.046875 Z M 148.84375 46.8125 C 148.476562 46.960938 147.929688 47.085938 147.195312 47.1875 C 146.78125 47.25 146.484375 47.316406 146.3125 47.390625 C 146.144531 47.464844 146.011719 47.574219 145.917969 47.714844 C 145.824219 47.855469 145.777344 48.015625 145.777344 48.191406 C 145.777344 48.457031 145.878906 48.679688 146.082031 48.859375 C 146.285156 49.035156 146.582031 49.125 146.972656 49.125 C 147.363281 49.125 147.707031 49.042969 148.011719 48.871094 C 148.3125 48.703125 148.535156 48.472656 148.675781 48.179688 C 148.785156 47.953125 148.839844 47.621094 148.839844 47.179688 Z M 151.386719 49.789062 L 151.386719 41.585938 L 152.394531 41.585938 L 152.394531 49.789062 Z M 153.929688 49.789062 L 153.929688 41.585938 L 154.941406 41.585938 L 154.941406 49.789062 Z M 156.453125 52.074219 L 156.339844 51.144531 C 156.558594 51.203125 156.75 51.234375 156.914062 51.234375 C 157.140625 51.234375 157.320312 51.195312 157.453125 51.121094 C 157.585938 51.046875 157.699219 50.941406 157.785156 50.808594 C 157.847656 50.707031 157.949219 50.457031 158.09375 50.054688 C 158.109375 50 158.140625 49.917969 158.179688 49.808594 L 155.925781 43.84375 L 157 43.84375 L 158.242188 47.277344 C 158.40625 47.710938 158.546875 48.167969 158.675781 48.648438 C 158.792969 48.199219 158.929688 47.75 159.089844 47.3125 L 160.355469 43.84375 L 161.363281 43.84375 L 159.117188 49.894531 C 158.875 50.542969 158.683594 50.992188 158.550781 51.238281 C 158.371094 51.566406 158.164062 51.8125 157.933594 51.964844 C 157.699219 52.121094 157.421875 52.195312 157.101562 52.195312 C 156.910156 52.195312 156.691406 52.15625 156.453125 52.074219 Z M 156.453125 52.074219 "/>
</g>
</svg>
